<svg width="235" height="222" viewBox="0 0 235 222" fill="none" xmlns="http://www.w3.org/2000/svg">
<path d="M55.9838 48.5952L0.5 68.2112L55.9838 87.8273L111.468 68.2112L55.9838 48.5952Z" fill="#52C248"/>
<path d="M0.5 68.2114L55.9838 87.8275L111.468 68.2114" stroke="black" stroke-width="0.666192" stroke-miterlimit="10"/>
<path d="M55.9838 24.2996L0.5 43.9123L55.9838 63.5283L111.468 43.9123L55.9838 24.2996Z" fill="#EDEEEF"/>
<path d="M0.5 43.9121L55.9838 63.5281L111.468 43.9121" stroke="black" stroke-width="0.666192" stroke-miterlimit="10"/>
<path d="M55.9838 0L0.5 19.616L55.9838 39.2287L111.468 19.616L55.9838 0Z" fill="#8433C2"/>
<path d="M0.5 19.616L55.9838 39.2287L111.468 19.616" stroke="black" stroke-width="0.666192" stroke-miterlimit="10"/>
<path d="M26.5315 198.465L34.4025 205.297L55.3876 178.463L64.8308 186.367L114.672 120.831L158.741 198.465L170.809 185.131L192.843 221.309H8.17121L26.5315 198.465Z" fill="#F4F4F4"/>
<path d="M199.462 221.309H1.55259" stroke="black" stroke-width="0.666192" stroke-miterlimit="10"/>
<path d="M147.705 85.5289C147.705 85.5289 111.871 146.938 99.8792 207.692L95.479 210.29L116.611 217.285C116.611 217.285 163.427 146.669 166.242 137.712C169.057 128.755 164.243 85.5222 164.243 85.5222" fill="#8433C2"/>
<path d="M156.985 113.316C156.985 113.316 151.233 142.795 152.808 161.205C158.841 151.502 163.74 143.261 165.566 139.304L156.985 113.316Z" fill="black"/>
<path d="M158.071 19.3429V30.7548L172.208 34.229V14.9727L158.071 11.4985V19.3429Z" fill="#EDEEEF"/>
<path d="M166.055 23.2899C166.263 23.2899 166.432 23.1214 166.432 22.9135C166.432 22.7056 166.263 22.5371 166.055 22.5371C165.848 22.5371 165.679 22.7056 165.679 22.9135C165.679 23.1214 165.848 23.2899 166.055 23.2899Z" fill="black"/>
<path d="M160.253 23.2899C160.461 23.2899 160.629 23.1214 160.629 22.9135C160.629 22.7056 160.461 22.5371 160.253 22.5371C160.045 22.5371 159.876 22.7056 159.876 22.9135C159.876 23.1214 160.045 23.2899 160.253 23.2899Z" fill="black"/>
<path d="M161.955 25.1689V19.343H159.037" stroke="black" stroke-width="0.666192" stroke-miterlimit="10"/>
<path d="M166.768 19.343H163.85" stroke="black" stroke-width="0.666192" stroke-miterlimit="10"/>
<path d="M171.275 22.3272V24.3491C171.535 24.3495 171.792 24.2988 172.031 24.1996C172.271 24.1005 172.489 23.9551 172.673 23.7715C172.856 23.588 173.002 23.3701 173.101 23.1303C173.2 22.8904 173.251 22.6334 173.25 22.3738C173.254 22.3139 173.254 22.2539 173.25 22.194C173.134 20.9682 171.275 21.0948 171.275 22.3272Z" fill="#EDEEEF"/>
<path d="M171.275 24.3493C171.535 24.3497 171.792 24.2989 172.031 24.1998C172.271 24.1007 172.489 23.9552 172.673 23.7717C172.856 23.5882 173.002 23.3703 173.101 23.1304C173.2 22.8906 173.251 22.6335 173.25 22.374" stroke="black" stroke-width="0.666192" stroke-miterlimit="10"/>
<path d="M169.566 33.5793L172.208 34.2289" stroke="black" stroke-width="0.666192" stroke-miterlimit="10"/>
<path d="M161.955 25.1721L163.231 25.4852" stroke="black" stroke-width="0.666192" stroke-miterlimit="10" stroke-linecap="round"/>
<path d="M158.071 22.5339C158.071 22.5339 155.233 30.8613 159.037 33.5794C162.841 36.2975 174.146 34.7053 171.092 23.5499" stroke="black" stroke-width="0.666192" stroke-miterlimit="10"/>
<path d="M159.767 25.322C159.715 25.4059 159.685 25.5016 159.681 25.6001C159.677 25.6986 159.699 25.7964 159.744 25.8842C159.789 25.9719 159.855 26.0466 159.938 26.101C160.02 26.1554 160.115 26.1877 160.213 26.1947C161.029 26.3746 162.265 24.7658 163.334 25.6418C163.334 25.6418 163.574 24.406 166.239 25.1455C168.903 25.885 167.984 24.1262 167.984 24.1262" stroke="black" stroke-width="0.666192" stroke-miterlimit="10"/>
<path d="M163.001 26.7544C163.24 26.8661 163.499 26.9294 163.763 26.9404C164.027 26.9515 164.29 26.9101 164.538 26.8188C164.786 26.7274 165.013 26.5878 165.207 26.4081C165.4 26.2284 165.556 26.0121 165.666 25.7717" stroke="#8433C2" stroke-width="0.499644" stroke-miterlimit="10"/>
<path d="M157.055 15.3225C157.055 15.3225 158.011 19.4462 166.768 16.988C166.768 16.988 167.298 19.2297 168.803 19.3197C170.309 19.4096 170.249 20.9285 170.249 20.9285" stroke="black" stroke-width="0.666192" stroke-miterlimit="10"/>
<path d="M158.071 19.3427C158.071 19.3427 148.931 11.4583 159.667 11.0553C170.402 10.6522 176.215 13.9865 172.264 21.3379" stroke="black" stroke-width="0.666192" stroke-miterlimit="10"/>
<path d="M147.705 54.661V85.529L191.431 96.2747V61.8992C191.431 55.9756 189.445 50.223 185.791 45.5612C182.136 40.8995 177.024 37.5978 171.272 36.1841C168.47 35.4957 165.549 35.4534 162.728 36.0604C159.908 36.6675 157.263 37.9079 154.992 39.6879C152.722 41.4679 150.886 43.7408 149.624 46.3349C148.361 48.9289 147.705 51.7761 147.705 54.661Z" fill="#EDEEEF"/>
<path d="M191.431 96.2747L157.055 87.8274C157.055 87.8274 154.723 171.395 168.314 216.779L166.055 221.309H188.589C188.589 221.309 193.076 114.558 191.431 96.2747Z" fill="#8433C2"/>
<path d="M157.055 87.8274C157.055 87.8274 154.723 171.395 168.314 216.779" stroke="black" stroke-width="0.666192" stroke-miterlimit="10"/>
<path d="M177.72 38.7024C177.72 38.7024 204.035 54.2313 203.222 80.0796C202.409 105.928 183.769 116.314 183.769 116.314" stroke="black" stroke-width="0.666192" stroke-miterlimit="10"/>
<path d="M176.841 102.061C176.841 102.061 180.705 116.184 187.234 119.115" stroke="black" stroke-width="0.666192" stroke-miterlimit="10"/>
<path d="M173.25 64.8005L187.234 81.855L177.191 103.23" stroke="black" stroke-width="0.666192" stroke-miterlimit="10"/>
<path d="M178.087 101.345L187.244 81.8551L176.521 68.7744C176.521 68.7744 183.043 88.3338 178.087 101.345Z" fill="black"/>
<path d="M152.535 41.9902L133.785 56.8296C133.785 56.8296 112.187 29.3092 107.414 27.8503C102.641 26.3913 96.8314 29.4491 96.8314 29.4491V31.2578L102.357 32.2571C102.357 32.2571 101.555 38.7025 105.069 41.7004C105.069 41.7004 115.971 81.5487 132.339 81.6719C143.531 81.7585 147.705 78.6541 147.705 78.6541" stroke="black" stroke-width="0.666192" stroke-miterlimit="10"/>
<path d="M116.731 221.309H234.5" stroke="black" stroke-width="0.666192" stroke-miterlimit="10"/>
<path d="M220.573 220.383C220.573 220.383 222.602 216.792 217.449 216.013C214.389 215.539 211.258 215.917 208.399 217.105C208.399 217.105 211.989 212.735 206.37 210.86C200.751 208.984 194.975 213.358 194.975 213.358C194.975 213.358 200.594 202.899 196.224 202.119C191.854 201.34 189.512 205.867 189.512 205.867C189.512 205.867 189.978 192.909 180.925 192.596C171.871 192.283 172.811 209.144 172.811 209.144C172.811 209.144 168.907 201.65 162.351 201.34C155.796 201.03 159.074 213.891 159.074 213.891C159.074 213.891 157.825 210.86 153.454 210.56C149.084 210.26 149.391 213.911 149.391 213.911C149.391 213.911 143.778 206.02 137.529 206.49C131.28 206.959 133.938 214.764 133.938 214.764C127.536 214.294 126.124 221.309 126.124 221.309H225.1L220.573 220.383Z" fill="black"/>
</svg>
