<svg width="594" height="674" viewBox="0 0 594 674" fill="none" xmlns="http://www.w3.org/2000/svg">
<path d="M345.646 599.172L328.378 598.635L328.641 590.17L336.429 590.413L336.774 579.307L329.325 579.075L329.589 570.61L337.038 570.842L337.641 551.474L347.121 551.769L345.646 599.172Z" fill="#8433C2"/>
<path d="M275.917 589.98L281.377 542.459L290.513 544.744L289.559 551.629L295.343 553.075L297.677 546.535L306.025 548.623L288.471 593.12L275.917 589.98ZM285.416 580.483L292.483 560.88L288.343 559.845L285.416 580.483Z" fill="#8433C2"/>
<path d="M232.385 548.09C231.564 546.511 231.156 545.115 231.162 543.903C231.168 542.691 231.568 541.299 232.363 539.727L236.308 531.928C238.959 526.689 242.904 525.394 248.143 528.045L252.859 530.43C258.099 533.08 259.393 537.025 256.743 542.265L252.186 551.273L243.903 547.083L248.063 538.861C248.572 537.854 248.323 537.095 247.316 536.585L246.53 536.188C245.522 535.678 244.763 535.927 244.254 536.935L241.685 542.013C241.114 543.141 241.139 544.293 241.76 545.467L246.293 554.518C247.113 556.097 247.521 557.493 247.515 558.705C247.489 559.957 247.089 561.349 246.314 562.881L242.919 569.592C240.269 574.831 236.324 576.126 231.084 573.475L226.49 571.151C221.25 568.501 219.955 564.556 222.606 559.316L226.52 551.577L234.803 555.767L231.286 562.72C230.776 563.727 231.025 564.486 232.033 564.996L232.698 565.332C233.706 565.842 234.464 565.593 234.974 564.585L236.992 560.595C237.563 559.467 237.538 558.315 236.918 557.141L232.385 548.09Z" fill="#8433C2"/>
<path d="M208.985 502.419L216.347 508.4L191.782 538.637L196.251 542.268L190.911 548.841L174.61 535.597L179.95 529.024L184.42 532.656L208.985 502.419Z" fill="#8433C2"/>
<path d="M175.166 483.078L179.732 479.139C181.51 477.605 182.943 476.638 184.029 476.237C185.15 475.808 187.015 475.481 189.626 475.257L192.572 475.042L194.148 478.425L192.04 478.99C189.524 479.669 187.802 480.23 186.872 480.674L188.819 482.932L180.919 489.747L175.166 483.078Z" fill="#8433C2"/>
<path d="M110.425 449.108L103.917 433.103L111.762 429.913L114.697 437.131L124.99 432.946L122.183 426.042L130.028 422.852L132.835 429.756L150.785 422.457L154.358 431.244L110.425 449.108Z" fill="#8433C2"/>
<path d="M93.949 399.927L92.1497 390.614L130.4 383.224L129.102 376.505L137.417 374.899L140.514 390.931L93.949 399.927Z" fill="#8433C2"/>
<path d="M87.7014 352.422L87.7807 334.807L96.2496 334.845L96.213 342.975L106.85 343.023L106.885 335.232L115.354 335.27L115.319 343.061L126.701 343.112L126.738 334.847L135.207 334.885L135.127 352.636L87.7014 352.422Z" fill="#8433C2"/>
<path d="M96.2688 276.918L117.362 287.569L142.597 287.064L140.454 296.721L125.55 296.327L139.147 302.607L137.194 311.404L116.116 300.687L90.9241 300.993L93.0679 291.337L107.795 291.899L94.3159 285.715L96.2688 276.918Z" fill="#8433C2"/>
<path d="M110.648 237.538L154.071 256.607L150.257 265.292L106.834 246.222L110.648 237.538Z" fill="#8433C2"/>
<path d="M156.294 204.753C158.475 202.97 160.917 203.022 163.621 204.908L171.512 210.413C176.327 213.773 177.055 217.861 173.696 222.676L165.632 234.234L126.736 207.098L134.722 195.651C138.082 190.836 142.169 190.108 146.985 193.467L152.764 197.499C155.802 199.618 156.978 202.036 156.294 204.753ZM142.43 201.772C141.504 201.126 140.718 201.266 140.072 202.192L138.793 204.026L148.017 210.461L149.296 208.628C149.942 207.701 149.802 206.915 148.876 206.269L142.43 201.772ZM154.518 214.997L164.353 221.858L165.71 219.914C166.356 218.988 166.216 218.201 165.29 217.555L158.233 212.632C157.307 211.986 156.521 212.126 155.875 213.052L154.518 214.997Z" fill="#8433C2"/>
<path d="M161.835 163.185L168.73 156.671L195.483 184.99L200.457 180.29L206.273 186.446L194.404 197.66L161.835 163.185Z" fill="#8433C2"/>
<path d="M198.577 132.432L213.486 123.05L217.997 130.218L211.116 134.548L216.781 143.551L223.375 139.401L227.886 146.569L221.291 150.719L227.353 160.353L234.349 155.951L238.859 163.119L223.835 172.572L198.577 132.432Z" fill="#8433C2"/>
<path d="M265.054 139.177L267.318 144.766C268.2 146.943 268.656 148.61 268.687 149.767C268.734 150.966 268.444 152.838 267.818 155.382L267.076 158.242L263.366 158.648L263.507 156.471C263.672 153.87 263.694 152.058 263.572 151.035L260.809 152.154L256.891 142.484L265.054 139.177Z" fill="#8433C2"/>
<path d="M336.195 87.7555L344.791 134.811L335.385 135.282L334.296 128.417L328.341 128.715L328.01 135.651L319.416 136.081L323.27 88.4024L336.195 87.7555ZM329.868 99.6044L328.807 120.416L333.07 120.202L329.868 99.6044Z" fill="#8433C2"/>
<path d="M386.295 115.277L390.159 92.0176L398.235 93.4307L390.059 140.147L380.983 138.559L379.548 112.171L375.31 137.566L367.235 136.153L375.41 89.4366L384.954 91.1066L386.295 115.277Z" fill="#8433C2"/>
<path d="M412.517 146.577L430.832 102.83L443.144 107.985C449.394 110.601 451.21 115.034 448.594 121.284L438.128 146.282C435.511 152.532 431.078 154.348 424.828 151.732L412.517 146.577ZM436.442 113.993L424.406 142.741L426.156 143.474C427.781 144.154 428.933 143.682 429.614 142.057L439.609 118.183C440.289 116.558 439.817 115.406 438.192 114.725L436.442 113.993Z" fill="#8433C2"/>
<path d="M529.046 167.286L501.918 195.341C497.837 199.562 493.685 199.632 489.464 195.55L485.324 191.547C481.103 187.465 481.033 183.314 485.115 179.093L512.242 151.038L519.061 157.631L492.64 184.956C491.855 185.767 491.869 186.566 492.68 187.351L493.411 188.057C494.223 188.842 495.021 188.829 495.806 188.017L522.227 160.692L529.046 167.286Z" fill="#8433C2"/>
<path d="M539.235 218.859L558.859 205.789L563.345 212.651L523.647 238.6L518.605 230.887L536.893 211.81L515.454 226.067L510.969 219.205L550.667 193.256L555.968 201.365L539.235 218.859Z" fill="#8433C2"/>
<path d="M578.296 242.213L581.764 251.042L545.504 265.285L548.006 271.654L540.123 274.751L534.153 259.553L578.296 242.213Z" fill="#8433C2"/>
<path d="M594.683 296.409L548.179 305.717L546.317 296.417L592.821 287.108L594.683 296.409Z" fill="#8433C2"/>
<path d="M599.038 345.43L570.317 347.47L598.894 351.051L598.54 364.8L551.129 363.582L551.37 354.235L582.458 355.034L551.462 350.645L551.692 341.705L583.211 338.923L551.784 338.115L551.979 330.53L599.39 331.748L599.038 345.43Z" fill="#8433C2"/>
<path d="M590.313 409.53L544.349 397.845L546.686 388.652L592.651 400.337L590.313 409.53Z" fill="#8433C2"/>
<path d="M530.504 434.716L534.502 426.114L569.831 442.531L572.258 437.308L579.938 440.877L571.087 459.924L563.407 456.355L565.834 451.133L530.504 434.716Z" fill="#8433C2"/>
<path d="M554.574 487.732L544.059 501.865L537.264 496.81L542.118 490.287L533.583 483.937L528.933 490.188L522.138 485.133L526.789 478.882L517.657 472.088L512.723 478.719L505.928 473.664L516.524 459.422L554.574 487.732Z" fill="#8433C2"/>
<path d="M489.428 492.234L520.6 527.978L510.54 536.75C505.434 541.203 500.655 540.877 496.201 535.771L478.389 515.346C473.936 510.24 474.262 505.46 479.368 501.007L489.428 492.234ZM508.107 528.085L487.623 504.596L486.193 505.843C484.865 507.001 484.781 508.244 485.938 509.571L502.949 529.077C504.107 530.404 505.35 530.489 506.677 529.331L508.107 528.085Z" fill="#8433C2"/>
<g filter="url(#filter0_d_154_16185)">
<g filter="url(#filter1_d_154_16185)">
<path fill-rule="evenodd" clip-rule="evenodd" d="M350.702 289.962V408.176L381.406 377.893L383.06 376.424L435.141 376.511L350.702 289.962Z" fill="white"/>
<path d="M351.246 289.431L349.941 288.093V289.962V408.176V409.994L351.236 408.717L381.926 378.449L383.349 377.185L435.139 377.272L436.948 377.275L435.685 375.98L351.246 289.431Z" stroke="#1A1A1A" stroke-width="1.5207"/>
</g>
<g filter="url(#filter2_d_154_16185)">
<path fill-rule="evenodd" clip-rule="evenodd" d="M300.038 281.518V416.62L336.883 382.011L338.869 380.332L401.365 380.432L300.038 281.518Z" fill="#1A1A1A"/>
<path d="M300.57 280.974L299.278 279.713V281.518V416.62V418.377L300.559 417.174L337.389 382.579L339.147 381.093L401.364 381.192L403.235 381.195L401.896 379.888L300.57 280.974Z" stroke="white" stroke-width="1.5207"/>
</g>
</g>
<defs>
<filter id="filter0_d_154_16185" x="261.701" y="244.701" width="211.777" height="211.777" filterUnits="userSpaceOnUse" color-interpolation-filters="sRGB">
<feFlood flood-opacity="0" result="BackgroundImageFix"/>
<feColorMatrix in="SourceAlpha" type="matrix" values="0 0 0 0 0 0 0 0 0 0 0 0 0 0 0 0 0 0 127 0" result="hardAlpha"/>
<feOffset dy="1.5207"/>
<feGaussianBlur stdDeviation="2.28105"/>
<feColorMatrix type="matrix" values="0 0 0 0 0 0 0 0 0 0 0 0 0 0 0 0 0 0 0.08 0"/>
<feBlend mode="normal" in2="BackgroundImageFix" result="effect1_dropShadow_154_16185"/>
<feBlend mode="normal" in="SourceGraphic" in2="effect1_dropShadow_154_16185" result="shape"/>
</filter>
<filter id="filter1_d_154_16185" x="349.181" y="286.225" width="89.5735" height="127.107" filterUnits="userSpaceOnUse" color-interpolation-filters="sRGB">
<feFlood flood-opacity="0" result="BackgroundImageFix"/>
<feColorMatrix in="SourceAlpha" type="matrix" values="0 0 0 0 0 0 0 0 0 0 0 0 0 0 0 0 0 0 127 0" result="hardAlpha"/>
<feOffset dy="1.5207"/>
<feColorMatrix type="matrix" values="0 0 0 0 0.894118 0 0 0 0 0.894118 0 0 0 0 0.905882 0 0 0 1 0"/>
<feBlend mode="normal" in2="BackgroundImageFix" result="effect1_dropShadow_154_16185"/>
<feBlend mode="normal" in="SourceGraphic" in2="effect1_dropShadow_154_16185" result="shape"/>
</filter>
<filter id="filter2_d_154_16185" x="298.518" y="277.908" width="106.588" height="143.747" filterUnits="userSpaceOnUse" color-interpolation-filters="sRGB">
<feFlood flood-opacity="0" result="BackgroundImageFix"/>
<feColorMatrix in="SourceAlpha" type="matrix" values="0 0 0 0 0 0 0 0 0 0 0 0 0 0 0 0 0 0 127 0" result="hardAlpha"/>
<feOffset dy="1.5207"/>
<feColorMatrix type="matrix" values="0 0 0 0 0.894118 0 0 0 0 0.894118 0 0 0 0 0.905882 0 0 0 1 0"/>
<feBlend mode="normal" in2="BackgroundImageFix" result="effect1_dropShadow_154_16185"/>
<feBlend mode="normal" in="SourceGraphic" in2="effect1_dropShadow_154_16185" result="shape"/>
</filter>
</defs>
</svg>
