<svg width="149" height="57" viewBox="0 0 149 57" fill="none" xmlns="http://www.w3.org/2000/svg">
<g clip-path="url(#clip0_154_16186)">
<path d="M148.445 18.3206L148.445 0L139.284 9.16031L148.445 18.3206Z" fill="#52C248"/>
<path d="M117.403 18.3209L117.403 0.000244141L108.242 9.16055L117.403 18.3209Z" fill="#52C248"/>
<path d="M86.3478 18.3209L86.3478 0.000244141L77.1875 9.16055L86.3478 18.3209Z" fill="#52C248"/>
<path d="M55.306 18.3209L55.306 0.000244141L46.1457 9.16055L55.306 18.3209Z" fill="#52C248"/>
<path d="M24.2642 18.3209L24.2642 0.000244141L15.0906 9.16055L24.2642 18.3209Z" fill="#52C248"/>
<path d="M133.354 56.7754L133.354 38.4548L124.194 47.6151L133.354 56.7754Z" fill="#52C248"/>
<path d="M102.299 56.7757L102.299 38.4551L93.1385 47.6154L102.299 56.7757Z" fill="#52C248"/>
<path d="M71.257 56.7757L71.257 38.4551L62.0967 47.6154L71.257 56.7757Z" fill="#52C248"/>
<path d="M40.2152 56.7757L40.2152 38.4551L31.0549 47.6154L40.2152 56.7757Z" fill="#52C248"/>
<path d="M9.16022 56.7757L9.16022 38.4551L-8.76288e-05 47.6154L9.16022 56.7757Z" fill="#52C248"/>
</g>
<defs>
<clipPath id="clip0_154_16186">
<rect width="56.7754" height="148.445" fill="white" transform="translate(148.445) rotate(90)"/>
</clipPath>
</defs>
</svg>
