<svg width="163" height="160" viewBox="0 0 163 160" fill="none" xmlns="http://www.w3.org/2000/svg">
<path d="M56.7362 155.37L51.8828 153.49L52.8042 151.111L54.993 151.959L56.2019 148.838L54.1082 148.027L55.0297 145.648L57.1233 146.458L59.2315 141.015L61.8961 142.047L56.7362 155.37Z" fill="white"/>
<path d="M37.769 145.748L44.073 132.789L46.4407 134.352L45.4812 136.214L46.9802 137.203L48.2974 135.578L50.4608 137.006L41.0225 147.895L37.769 145.748ZM41.4181 143.999L45.3869 139.135L44.3138 138.427L41.4181 143.999Z" fill="white"/>
<path d="M29.5232 129.437C29.4479 128.906 29.4717 128.468 29.5945 128.124C29.7173 127.781 29.9703 127.425 30.3534 127.058L32.2545 125.236C33.5317 124.012 34.7822 124.039 36.0061 125.316L37.1076 126.466C38.3315 127.743 38.3048 128.993 37.0276 130.217L34.8318 132.321L32.8972 130.302L34.9014 128.382C35.147 128.147 35.1521 127.906 34.9167 127.66L34.7332 127.469C34.4978 127.223 34.2573 127.218 34.0117 127.454L32.7738 128.64C32.4987 128.903 32.3906 129.233 32.4496 129.629L32.8326 132.654C32.9079 133.185 32.8841 133.622 32.7613 133.966C32.6287 134.32 32.3757 134.675 32.0024 135.033L30.3666 136.6C29.0894 137.824 27.8389 137.798 26.615 136.52L25.5417 135.4C24.3178 134.123 24.3445 132.873 25.6217 131.649L27.508 129.841L29.4427 131.86L27.7479 133.484C27.5023 133.719 27.4972 133.96 27.7326 134.206L27.8879 134.368C28.1233 134.613 28.3637 134.618 28.6094 134.383L29.582 133.451C29.8571 133.187 29.9652 132.858 29.9062 132.462L29.5232 129.437Z" fill="white"/>
<path d="M27.3919 114.054L28.8858 116.49L18.8813 122.626L19.7883 124.105L17.6134 125.439L14.3055 120.045L16.4804 118.711L17.3874 120.19L27.3919 114.054Z" fill="white"/>
<path d="M19.6862 105.116L21.3776 104.454C22.0364 104.196 22.5402 104.064 22.889 104.059C23.2504 104.049 23.8132 104.143 24.5774 104.34L25.4361 104.574L25.5457 105.693L24.8903 105.642C24.1074 105.584 23.5617 105.571 23.2532 105.604L23.5808 106.44L20.6541 107.587L19.6862 105.116Z" fill="white"/>
<path d="M4.66022 88.8693L4.41149 83.6705L6.9599 83.5486L7.07208 85.8931L10.4156 85.7332L10.3083 83.4906L12.8567 83.3686L12.964 85.6112L18.7948 85.3323L18.9314 88.1865L4.66022 88.8693Z" fill="white"/>
<path d="M4.90041 73.1724L5.32047 70.3459L16.9291 72.0712L17.2322 70.0321L19.7558 70.4072L19.0327 75.2727L4.90041 73.1724Z" fill="white"/>
<path d="M7.89368 58.9769L9.67787 53.979L12.0807 54.8368L11.2572 57.1435L14.2751 58.2209L15.0643 56.0103L17.4671 56.8681L16.678 59.0786L19.9073 60.2315L20.7445 57.8864L23.1473 58.7441L21.3494 63.7804L7.89368 58.9769Z" fill="white"/>
<path d="M17.9142 38.305L22.8431 43.4412L30.0648 45.8214L28.4899 48.3511L24.2941 46.7488L27.5298 49.8933L26.0951 52.1978L21.177 47.0442L13.9877 44.6121L15.5626 42.0823L19.6913 43.715L16.4795 40.6095L17.9142 38.305Z" fill="white"/>
<path d="M25.9833 28.4939L36.4159 38.2557L34.4635 40.3422L24.0309 30.5805L25.9833 28.4939Z" fill="white"/>
<path d="M42.2886 23.694C43.0865 23.4053 43.7754 23.6642 44.3552 24.4708L46.0469 26.8241C47.0793 28.2605 46.8774 29.4949 45.4411 30.5274L41.9939 33.0053L33.6545 21.4042L37.0686 18.95C38.5049 17.9175 39.7393 18.1195 40.7718 19.5558L42.0108 21.2794C42.6621 22.1854 42.7547 22.9903 42.2886 23.694ZM38.6469 21.4603C38.4483 21.1841 38.2109 21.1453 37.9347 21.3439L37.3878 21.737L39.3654 24.4881L39.9123 24.095C40.1885 23.8964 40.2274 23.659 40.0288 23.3828L38.6469 21.4603ZM40.7593 26.4272L42.8679 29.3606L43.448 28.9437C43.7242 28.7451 43.763 28.5077 43.5645 28.2315L42.0515 26.1267C41.8529 25.8505 41.6156 25.8117 41.3393 26.0102L40.7593 26.4272Z" fill="white"/>
<path d="M48.0868 12.3972L50.6976 11.2357L55.4682 21.9585L57.3516 21.1205L58.3887 23.4516L53.8945 25.4511L48.0868 12.3972Z" fill="white"/>
<path d="M61.6732 7.30942L66.8482 6.13447L67.4131 8.62248L65.0246 9.16477L65.7341 12.2897L68.0231 11.77L68.588 14.258L66.299 14.7777L67.0582 18.1216L69.4865 17.5703L70.0514 20.0583L64.8365 21.2423L61.6732 7.30942Z" fill="white"/>
<path d="M79.9554 15.8655L80.0399 17.6801C80.0728 18.3869 80.0357 18.9063 79.9285 19.2382C79.822 19.5837 79.5525 20.0866 79.1201 20.747L78.6233 21.4852L77.5284 21.2297L77.7863 20.6252C78.0933 19.9025 78.2805 19.3898 78.3482 19.087L77.4511 19.1287L77.3049 15.9889L79.9554 15.8655Z" fill="white"/>
<path d="M105.439 8.38258L103.176 22.6141L100.456 21.8073L100.832 19.7475L99.1105 19.2367L98.3227 21.1746L95.8376 20.4374L101.701 7.27389L105.439 8.38258ZM102.456 11.117L100.073 16.9249L101.306 17.2906L102.456 11.117Z" fill="white"/>
<path d="M117.001 21.2467L120.425 15.0233L122.578 16.2325L115.583 28.6904L113.163 27.3313L115.394 19.6891L111.65 26.4819L109.497 25.2728L116.492 12.8148L119.037 14.2438L117.001 21.2467Z" fill="white"/>
<path d="M121.39 32.8125L130.97 22.2125L133.953 24.9085C135.467 26.277 135.54 27.7184 134.171 29.2327L128.697 35.2899C127.329 36.8041 125.887 36.877 124.373 35.5085L121.39 32.8125ZM131.447 25.9456L125.152 32.9113L125.576 33.2945C125.97 33.6503 126.345 33.6313 126.7 33.2376L131.928 27.453C132.284 27.0593 132.265 26.6846 131.871 26.3287L131.447 25.9456Z" fill="white"/>
<path d="M152.518 50.4616L142.003 55.7211C140.421 56.5125 139.234 56.1172 138.443 54.5351L137.667 52.9835C136.875 51.4015 137.271 50.2148 138.853 49.4234L149.367 44.1639L150.646 46.7195L140.405 51.842C140.101 51.9942 140.025 52.2224 140.177 52.5267L140.314 52.8005C140.466 53.1047 140.694 53.1808 140.999 53.0286L151.239 47.906L152.518 50.4616Z" fill="white"/>
<path d="M150.284 66.2153L157.168 64.4636L157.756 66.8622L143.88 70.2662L143.219 67.5702L150.324 63.9779L142.806 65.8853L142.217 63.4867L156.093 60.0827L156.789 62.9174L150.284 66.2153Z" fill="white"/>
<path d="M159.059 76.8344L159.162 79.69L147.433 80.1114L147.507 82.1716L144.958 82.2632L144.781 77.3474L159.059 76.8344Z" fill="white"/>
<path d="M158.293 93.9402L144.147 91.9347L144.548 89.1055L158.694 91.111L158.293 93.9402Z" fill="white"/>
<path d="M154.607 108.387L146.241 106.095L154.004 109.97L152.528 113.842L139.177 108.754L140.18 106.122L148.935 109.459L140.566 105.112L141.525 102.594L150.76 104.956L141.91 101.583L142.724 99.447L156.075 104.535L154.607 108.387Z" fill="white"/>
<path d="M145.679 125.805L133.786 117.888L135.369 115.509L147.262 123.426L145.679 125.805Z" fill="white"/>
<path d="M126.12 127.035L128.116 124.991L136.514 133.189L137.726 131.948L139.551 133.73L135.131 138.257L133.306 136.475L134.518 135.234L126.12 127.035Z" fill="white"/>
<path d="M127.599 144.557L123.197 147.522L121.772 145.406L123.804 144.038L122.013 141.38L120.067 142.691L118.641 140.575L120.588 139.264L118.672 136.42L116.607 137.811L115.182 135.695L119.617 132.707L127.599 144.557Z" fill="white"/>
<path d="M108.565 139.359L113.848 152.634L110.112 154.121C108.216 154.875 106.89 154.305 106.136 152.408L103.116 144.823C102.362 142.926 102.932 141.601 104.829 140.846L108.565 139.359ZM110.288 151.415L106.815 142.691L106.284 142.903C105.791 143.099 105.643 143.444 105.839 143.937L108.723 151.181C108.919 151.674 109.264 151.822 109.757 151.626L110.288 151.415Z" fill="white"/>
</svg>
