<?xml version="1.0" encoding="utf-8"?>
<!-- Generator: Adobe Illustrator 27.7.0, SVG Export Plug-In . SVG Version: 6.00 Build 0)  -->
<svg version="1.1" id="Layer_1" xmlns="http://www.w3.org/2000/svg" xmlns:xlink="http://www.w3.org/1999/xlink" x="0px" y="0px"
	 viewBox="0 0 173 34" style="enable-background:new 0 0 173 34;" xml:space="preserve">
<style type="text/css">
	.st0{fill:#52C248;}
	.st1{fill:#FFFFFF;}
</style>
<path class="st0" d="M15.7,15.4c2.6,1.2,5.4,1.8,7.7,1.7c0,0,0,0,0,0l0.2-16.4c0-0.6-0.6-0.9-1.1-0.6L8.6,9.4
	C9.8,11.6,12.3,13.9,15.7,15.4z"/>
<path class="st0" d="M22.8,18.7c-2.4,0-5.1-0.7-7.8-1.9c-3.6-1.7-6.4-4.1-7.7-6.5l-7,4.7c-0.5,0.4-0.3,1.2,0.3,1.3L12.4,18
	c0.7,0.1,1.3,0.4,1.8,1l7.8,9c0.4,0.5,1.3,0.2,1.3-0.5l0.1-8.7C23.2,18.7,23,18.7,22.8,18.7L22.8,18.7z"/>
<path class="st1" d="M22.8,17.5c-2.4,0-5.1-0.7-7.8-1.9C8.8,12.7,5.2,7.7,6.9,4.2c1.6-3.5,7.7-3.9,13.9-1.1c2,0.9,3.9,2.2,5.3,3.5
	c0.3,0.3,0.3,0.8,0,1.1c-0.3,0.3-0.8,0.3-1.1,0c-1.3-1.3-3-2.4-4.9-3.3C14.9,2.2,9.5,2.3,8.3,4.9c-1.2,2.6,2.2,6.8,7.4,9.3
	c2.6,1.2,5.4,1.8,7.7,1.7c2.1-0.1,3.6-0.8,4.2-2c0.6-1.2,0-2.7-0.6-3.6c-0.2-0.4-0.1-0.9,0.3-1.1c0.4-0.2,0.9-0.1,1.1,0.3
	c1.1,1.8,1.3,3.6,0.6,5.1c-0.8,1.7-2.8,2.8-5.5,2.9C23.2,17.5,23,17.5,22.8,17.5L22.8,17.5z"/>
<path class="st1" d="M41.6,29.3V0.4h8.1c4.1,0,6.2,2.1,6.2,6.2v16.5c0,4.1-2.1,6.2-6.2,6.2H41.6z M47.4,5.4v19h1.2
	c1.1,0,1.6-0.5,1.6-1.6V7c0-1.1-0.5-1.6-1.6-1.6H47.4z"/>
<path class="st1" d="M70.5,19.9H63v4c0,0.6,0.3,0.9,0.9,0.9h0.5c0.6,0,0.9-0.3,0.9-0.9v-2.2h5.2v2.8c0,3.4-1.7,5-5,5h-2.8
	c-3.4,0-5-1.7-5-5V11c0-3.4,1.7-5,5-5h2.8c3.4,0,5,1.7,5,5V19.9z M63,11.5v4.2h2.2v-4.2c0-0.6-0.3-0.9-0.9-0.9h-0.4
	C63.3,10.6,63,10.9,63,11.5z"/>
<path class="st1" d="M79.5,14.4v-3c0-0.6-0.3-0.9-0.9-0.9h-0.4c-0.6,0-0.9,0.3-0.9,0.9v1.6c0,0.5,0.3,1,0.8,1.3l4.2,2.6
	c0.9,0.6,1.5,1.2,1.9,1.8c0.4,0.6,0.6,1.4,0.6,2.4v3.3c0,3.4-1.7,5-5,5h-2.6c-3.4,0-5-1.7-5-5v-3.6h5.2V24c0,0.6,0.3,0.9,0.9,0.9
	h0.5c0.6,0,0.9-0.3,0.9-0.9v-1.7c0-0.5-0.3-1-0.8-1.3l-4.2-2.6c-0.9-0.6-1.5-1.2-1.9-1.7c-0.4-0.6-0.6-1.4-0.6-2.4V11
	c0-3.4,1.7-5,5-5h2.5c3.4,0,5,1.7,5,5v3.5H79.5z"/>
<path class="st1" d="M86.4,4.7V0H92v4.7H86.4z M86.4,29.3V6.2h5.4v23.1H86.4z"/>
<path class="st1" d="M106.9,6.2v23c0,3.2-1.6,4.8-4.9,4.8h-4c-2.9,0-4.4-1.4-4.4-4.3v-1.4h4.9V29c0,0.6,0.3,0.9,0.9,0.9h1.2
	c0.6,0,0.9-0.3,0.9-0.9v-3.5c-1.3,1.1-2.7,1.6-4,1.6h-0.1c-1.2,0-2.1-0.3-2.8-1c-0.7-0.7-1-1.7-1-3V9.9c0-1.3,0.3-2.3,1-3
	s1.6-1,2.8-1h0.1c1.3,0,2.7,0.5,4,1.6V6.2H106.9z M101.5,22.3V11c-0.4-0.2-0.9-0.2-1.3-0.2c-0.7,0-1.1,0.3-1.1,0.9v10.1
	c0,0.6,0.4,0.9,1.1,0.9C100.6,22.6,101,22.5,101.5,22.3z"/>
<path class="st1" d="M108.7,29.3V6.2h5.4v1.5c1.4-1.2,2.7-1.8,4-1.8h0.4c2.3,0,3.5,1.3,3.5,3.8v19.6h-5.4V11.6
	c0-0.6-0.4-0.9-1.1-0.9c-0.4,0-0.8,0.1-1.2,0.2v18.3H108.7z"/>
<path class="st1" d="M135.2,19.3v10.1h-5.8V0.4h8.5c3.6,0,5.4,1.8,5.4,5.4v8.1c0,3.6-1.8,5.4-5.4,5.4H135.2z M137.5,6.4
	c0-0.7-0.3-1-1-1h-1.2v8.9h1.2c0.7,0,1-0.3,1-1V6.4z"/>
<path class="st1" d="M157.9,6.2v23.1h-5.4v-1.5c-1.4,1.2-2.7,1.8-4,1.8h-0.4c-2.3,0-3.5-1.3-3.5-3.8V6.2h5.4v17.6
	c0,0.6,0.4,0.9,1.1,0.9c0.4,0,0.8-0.1,1.2-0.2V6.2H157.9z"/>
<path class="st1" d="M159.7,29.3V0h5.4v7.8c1.4-1.2,2.7-1.9,4-1.9h0.1c1.2,0,2.1,0.3,2.8,1c0.7,0.7,1,1.7,1,3v15.6
	c0,1.3-0.3,2.3-1,3c-0.7,0.7-1.6,1-2.8,1h-0.1c-1.3,0-2.7-0.5-4-1.6v1.4H159.7z M165.2,11v13.5c0.4,0.2,0.9,0.2,1.3,0.2
	c0.7,0,1.1-0.3,1.1-0.9V11.6c0-0.6-0.4-0.9-1.1-0.9C166,10.7,165.6,10.8,165.2,11z"/>
<path class="st0" d="M15.7,14.2c2.6,1.2,5.4,1.8,7.7,1.7c0,0,0,0,0.1,0l0.2-15.2c0-0.6-0.6-0.9-1.1-0.6l-13.3,9
	C10.5,10.9,12.8,12.8,15.7,14.2z"/>
</svg>
