<svg width="213" height="218" viewBox="0 0 213 218" fill="none" xmlns="http://www.w3.org/2000/svg">
<path d="M176.749 204.98H160.333V198.035H143.557V189.824L131.065 178.776H112.149V146.886H87.5222V107.414L56.4688 134.885V187.298H40.053V210.518H33.2689V204.036H21.1342V217H184.96V212.243L176.749 204.98Z" fill="#F4F4F4"/>
<path d="M13.2839 217H192.811" stroke="black" stroke-width="0.656105" stroke-miterlimit="10"/>
<path d="M89.4216 154.874H91.6654V156.858H89.4216V154.874Z" fill="white"/>
<path d="M94.8771 154.874H97.121V156.858H94.8771V154.874Z" fill="white"/>
<path d="M100.336 154.874H102.58V156.858H100.336V154.874Z" fill="white"/>
<path d="M89.4216 160.224H91.6655V162.209H89.4216V160.224Z" fill="white"/>
<path d="M94.8771 160.224H97.121V162.209H94.8771V160.224Z" fill="white"/>
<path d="M100.336 160.224H102.58V162.209H100.336V160.224Z" fill="white"/>
<path d="M89.4216 165.574H91.6655V167.559H89.4216V165.574Z" fill="white"/>
<path d="M94.8771 165.574H97.121V167.559H94.8771V165.574Z" fill="white"/>
<path d="M100.336 165.574H102.58V167.559H100.336V165.574Z" fill="white"/>
<path d="M89.4216 170.925H91.6655V172.91H89.4216V170.925Z" fill="white"/>
<path d="M94.8771 170.925H97.121V172.91H94.8771V170.925Z" fill="white"/>
<path d="M100.336 170.925H102.58V172.91H100.336V170.925Z" fill="white"/>
<path d="M89.4216 176.272H91.6655V178.257H89.4216V176.272Z" fill="white"/>
<path d="M94.8771 176.272H97.121V178.257H94.8771V176.272Z" fill="white"/>
<path d="M100.336 176.272H102.58V178.257H100.336V176.272Z" fill="white"/>
<path d="M89.4216 181.623H91.6655V183.608H89.4216V181.623Z" fill="white"/>
<path d="M94.8771 181.623H97.121V183.608H94.8771V181.623Z" fill="white"/>
<path d="M100.336 181.623H102.58V183.608H100.336V181.623Z" fill="white"/>
<path d="M89.4216 186.973H91.6655V188.958H89.4216V186.973Z" fill="white"/>
<path d="M94.8771 186.973H97.121V188.958H94.8771V186.973Z" fill="white"/>
<path d="M100.336 186.973H102.58V188.958H100.336V186.973Z" fill="white"/>
<path d="M89.4216 192.324H91.6655V194.309H89.4216V192.324Z" fill="white"/>
<path d="M94.8771 192.324H97.121V194.309H94.8771V192.324Z" fill="white"/>
<path d="M100.336 192.324H102.58V194.309H100.336V192.324Z" fill="white"/>
<path d="M89.4216 197.674H91.6655V199.659H89.4216V197.674Z" fill="white"/>
<path d="M94.8771 197.674H97.121V199.659H94.8771V197.674Z" fill="white"/>
<path d="M100.336 197.674H102.58V199.659H100.336V197.674Z" fill="white"/>
<path d="M170.122 93.0522C170.122 93.0522 131.567 146.656 168.925 204.918L169.814 216.485L192.397 204.465L179.8 157.226L197.384 126.586L184.708 85.6382" fill="#EDEEEF"/>
<path d="M175.339 82.1179L211.989 82.7609L211.654 119.381V216.485H183.113L186.131 211.079L175.339 82.1179Z" fill="#EDEEEF"/>
<path d="M197.416 17.5769V28.816L183.497 32.2376V13.2729L197.416 9.85132V17.5769Z" fill="#EDEEEF"/>
<path d="M189.553 21.4645C189.758 21.4645 189.924 21.2986 189.924 21.0938C189.924 20.8891 189.758 20.7231 189.553 20.7231C189.348 20.7231 189.182 20.8891 189.182 21.0938C189.182 21.2986 189.348 21.4645 189.553 21.4645Z" fill="black"/>
<path d="M195.271 21.4645C195.476 21.4645 195.642 21.2986 195.642 21.0938C195.642 20.8891 195.476 20.7231 195.271 20.7231C195.066 20.7231 194.9 20.8891 194.9 21.0938C194.9 21.2986 195.066 21.4645 195.271 21.4645Z" fill="black"/>
<path d="M193.595 23.3145V17.5769H196.468" stroke="black" stroke-width="0.656105" stroke-miterlimit="10"/>
<path d="M188.851 17.5769H191.725" stroke="black" stroke-width="0.656105" stroke-miterlimit="10"/>
<path d="M184.412 20.5164V22.5109C183.896 22.5101 183.401 22.3044 183.037 21.939C182.672 21.5737 182.467 21.0785 182.467 20.5623C182.464 20.5033 182.464 20.4442 182.467 20.3851C182.585 19.1779 184.412 19.3059 184.412 20.5164Z" fill="#EDEEEF"/>
<path d="M184.412 22.5109C183.896 22.51 183.401 22.3043 183.037 21.939C182.672 21.5736 182.467 21.0785 182.467 20.5623" stroke="black" stroke-width="0.656105" stroke-miterlimit="10"/>
<path d="M192.335 24.7288C191.813 24.7288 191.312 24.5214 190.943 24.1523C190.574 23.7832 190.367 23.2825 190.367 22.7605" stroke="#8433C2" stroke-width="0.492078" stroke-miterlimit="10"/>
<path d="M197.417 28.8162L183.497 32.2377" stroke="black" stroke-width="0.656105" stroke-miterlimit="10"/>
<path d="M193.595 23.3179L192.335 23.6295" stroke="black" stroke-width="0.656105" stroke-miterlimit="10" stroke-linecap="round"/>
<path d="M184.613 20.0505C184.613 20.0505 187.326 17.5146 187.368 15.0641C187.368 15.0641 197.603 16.5961 199.135 16.1565L198.04 14.057C199.269 13.5783 200.455 12.9932 201.583 12.3084C201.583 12.3084 188.418 3.12298 182.424 12.7907C182.424 12.7907 178.416 14.7131 182.562 20.0505" stroke="black" stroke-width="0.656105" stroke-miterlimit="10"/>
<path d="M211.988 52.3603V82.7576L168.925 93.3438V59.4888C168.925 53.6552 170.881 47.99 174.48 43.3989C178.079 38.8078 183.114 35.5559 188.779 34.1632C191.538 33.4859 194.415 33.4447 197.192 34.0428C199.97 34.6409 202.575 35.8626 204.81 37.6155C207.046 39.3684 208.854 41.6067 210.098 44.1611C211.341 46.7155 211.988 49.5192 211.988 52.3603Z" fill="#8433C2"/>
<path d="M205.126 72.588C199.188 79.4181 186.295 78.6701 173.747 74.8057C176.175 79.5887 182.739 83.007 190.458 83.007C200.241 83.007 208.173 77.499 208.173 70.705C208.173 70.0693 208.103 69.4357 207.963 68.8154C207.11 70.1399 206.162 71.4008 205.126 72.588Z" fill="black"/>
<path d="M186.131 211.079L175.338 82.1147" stroke="black" stroke-width="0.656105" stroke-miterlimit="10"/>
<path d="M209.302 42.6765C209.302 42.6765 218.251 57.4979 205.126 72.5883C192 87.6787 144.895 65.7648 142.664 55.0047C140.434 44.2446 142.14 45.1632 144.633 47.3939C147.126 49.6247 148.438 49.0998 148.438 49.0998C148.438 49.0998 148.832 44.9007 150.144 46.0817C151.456 47.2627 151.85 49.4934 151.85 49.4934L183.497 57.8916L191.351 44.9007" stroke="black" stroke-width="0.656105" stroke-miterlimit="10"/>
<path d="M181.657 37.083C181.657 37.083 169.972 44.3559 165.175 53.0231" stroke="black" stroke-width="0.656105" stroke-miterlimit="10"/>
<path d="M150.19 63.478C150.19 63.478 133.436 65.0166 125.038 66.4141C116.64 67.8116 126.088 69.5634 126.088 69.5634C126.088 69.5634 130.448 75.8686 137.993 73.4147C137.993 73.4147 153.329 80.7631 168.932 76.7379" stroke="black" stroke-width="0.656105" stroke-miterlimit="10"/>
<path d="M18.664 98.0845H121.561V172.693H18.664V98.0845Z" fill="#D6D6D6"/>
<path d="M121.561 98.0845V172.693" stroke="black" stroke-width="0.656105" stroke-miterlimit="10"/>
<path d="M35.3717 123.653L34.4564 120.579C33.7506 118.212 32.3001 116.135 30.3203 114.658C28.3405 113.18 25.937 112.381 23.4667 112.378H0.719543L18.664 172.69H121.561L106.969 123.653H35.3717Z" fill="#EDEEEF"/>
<path d="M18.664 172.693H121.561" stroke="black" stroke-width="0.656105" stroke-miterlimit="10"/>
<path d="M121.561 172.693L106.969 123.653H35.3716" stroke="black" stroke-width="0.656105" stroke-miterlimit="10"/>
<path d="M56.1866 13.2075V84.3719H110.837V32.8086L91.2324 13.2075H56.1866Z" fill="#D6D6D6"/>
<path d="M56.1866 84.3719H110.837V32.8086" stroke="black" stroke-width="0.656105" stroke-miterlimit="10"/>
<path d="M65.9101 43.4702H88.7327" stroke="black" stroke-width="0.656105" stroke-miterlimit="10"/>
<path d="M65.9101 48.2761H88.7327" stroke="black" stroke-width="0.656105" stroke-miterlimit="10"/>
<path d="M65.9101 53.082H88.7327" stroke="black" stroke-width="0.656105" stroke-miterlimit="10"/>
<path d="M65.9101 57.8879H77.3197" stroke="black" stroke-width="0.656105" stroke-miterlimit="10"/>
<path d="M36.7889 0V71.1677H91.4391V19.6044L71.838 0H36.7889Z" fill="#EDEEEF"/>
<path d="M36.7889 71.1678H91.4391V19.6045" stroke="black" stroke-width="0.656105" stroke-miterlimit="10"/>
<path d="M91.4391 19.6044L71.838 0V19.6044H91.4391Z" fill="#52C248"/>
<path d="M52.7027 30.2661H75.5253" stroke="black" stroke-width="0.656105" stroke-miterlimit="10"/>
<path d="M52.7026 35.072H75.5252" stroke="black" stroke-width="0.656105" stroke-miterlimit="10"/>
<path d="M52.7026 39.8779H75.5252" stroke="black" stroke-width="0.656105" stroke-miterlimit="10"/>
<path d="M52.7026 44.6841H64.1155" stroke="black" stroke-width="0.656105" stroke-miterlimit="10"/>
</svg>
