<svg width="231" height="190" viewBox="0 0 231 190" fill="none" xmlns="http://www.w3.org/2000/svg">
<path d="M138.08 178.852H124.219V172.989H110.058V166.057L99.5113 156.729H83.5421V129.806H62.7511V96.4832L36.5345 119.675V163.925H22.6756V183.527H16.9482V178.055H6.70358V189H145.01V184.984L138.08 178.852Z" fill="#F4F4F4"/>
<path d="M0.0760498 189H151.64" stroke="black" stroke-width="0.426085" stroke-miterlimit="10"/>
<path d="M64.3518 136.55H66.2462V138.226H64.3518V136.55Z" fill="white"/>
<path d="M68.9603 136.55H70.8547V138.226H68.9603V136.55Z" fill="white"/>
<path d="M73.5688 136.55H75.4632V138.226H73.5688V136.55Z" fill="white"/>
<path d="M64.3517 141.067H66.2461V142.743H64.3517V141.067Z" fill="white"/>
<path d="M68.9603 141.067H70.8547V142.743H68.9603V141.067Z" fill="white"/>
<path d="M73.5688 141.067H75.4632V142.743H73.5688V141.067Z" fill="white"/>
<path d="M64.3517 145.584H66.2461V147.26H64.3517V145.584Z" fill="white"/>
<path d="M68.9603 145.584H70.8547V147.26H68.9603V145.584Z" fill="white"/>
<path d="M73.5688 145.584H75.4632V147.26H73.5688V145.584Z" fill="white"/>
<path d="M64.3517 150.102H66.2461V151.777H64.3517V150.102Z" fill="white"/>
<path d="M68.9603 150.102H70.8547V151.777H68.9603V150.102Z" fill="white"/>
<path d="M73.5688 150.102H75.4632V151.777H73.5688V150.102Z" fill="white"/>
<path d="M64.3517 154.616H66.2461V156.292H64.3517V154.616Z" fill="white"/>
<path d="M68.9603 154.616H70.8547V156.292H68.9603V154.616Z" fill="white"/>
<path d="M73.5688 154.616H75.4632V156.292H73.5688V154.616Z" fill="white"/>
<path d="M64.3517 159.133H66.2461V160.809H64.3517V159.133Z" fill="white"/>
<path d="M68.9603 159.133H70.8547V160.809H68.9603V159.133Z" fill="white"/>
<path d="M73.5688 159.133H75.4632V160.809H73.5688V159.133Z" fill="white"/>
<path d="M64.3517 163.65H66.2461V165.325H64.3517V163.65Z" fill="white"/>
<path d="M68.9603 163.65H70.8547V165.325H68.9603V163.65Z" fill="white"/>
<path d="M73.5688 163.65H75.4632V165.325H73.5688V163.65Z" fill="white"/>
<path d="M64.3517 168.167H66.2461V169.843H64.3517V168.167Z" fill="white"/>
<path d="M68.9603 168.167H70.8547V169.843H68.9603V168.167Z" fill="white"/>
<path d="M73.5688 168.167H75.4632V169.843H73.5688V168.167Z" fill="white"/>
<path d="M64.3517 172.685H66.2461V174.36H64.3517V172.685Z" fill="white"/>
<path d="M68.9603 172.685H70.8547V174.36H68.9603V172.685Z" fill="white"/>
<path d="M73.5688 172.685H75.4632V174.36H73.5688V172.685Z" fill="white"/>
<path d="M114.185 76.1043C114.185 76.1043 152.92 93.4223 175.187 126.325H182.166L168.54 141.942L125.335 113.031C125.335 113.031 98.747 109.023 90.7707 103.06C82.7944 97.0975 95.5039 74.6531 95.5039 74.6531" fill="#EDEEEF"/>
<path d="M108.734 75.5586L82.7917 73.7805L78.0751 75.7026L75.8567 189H99.9546L97.4066 184.435L108.734 75.5586Z" fill="#EDEEEF"/>
<path d="M89.1892 21.0732V25.1694C89.1895 26.7078 89.7056 28.2018 90.655 29.4123C91.6045 30.6228 92.9324 31.48 94.4265 31.8468L100.943 33.4504V17.4396L95.5177 16.1213C94.7662 15.9378 93.983 15.9272 93.2269 16.0902C92.4707 16.2531 91.7614 16.5854 91.1522 17.0621C90.5431 17.5388 90.0499 18.1474 89.7099 18.8422C89.3699 19.5369 89.1919 20.2997 89.1892 21.0732Z" fill="#EDEEEF"/>
<path d="M89.1892 25.1694C89.1895 26.7079 89.7056 28.2018 90.655 29.4123C91.6044 30.6228 92.9324 31.48 94.4264 31.8468L100.943 33.4504" stroke="black" stroke-width="0.426085" stroke-miterlimit="10"/>
<path d="M95.8223 24.3552C95.9952 24.3552 96.1353 24.2151 96.1353 24.0422C96.1353 23.8694 95.9952 23.7292 95.8223 23.7292C95.6495 23.7292 95.5094 23.8694 95.5094 24.0422C95.5094 24.2151 95.6495 24.3552 95.8223 24.3552Z" fill="black"/>
<path d="M90.9949 24.3552C91.1677 24.3552 91.3079 24.2151 91.3079 24.0422C91.3079 23.8694 91.1677 23.7292 90.9949 23.7292C90.8221 23.7292 90.6819 23.8694 90.6819 24.0422C90.6819 24.2151 90.8221 24.3552 90.9949 24.3552Z" fill="black"/>
<path d="M92.4103 25.9174V21.0735" stroke="black" stroke-width="0.426085" stroke-miterlimit="10"/>
<path d="M100.159 23.555V25.2361C100.375 25.2364 100.589 25.1942 100.789 25.1119C100.988 25.0295 101.17 24.9086 101.323 24.756C101.475 24.6035 101.597 24.4223 101.679 24.2229C101.762 24.0234 101.805 23.8096 101.805 23.5937C101.807 23.5439 101.807 23.494 101.805 23.4442C101.705 22.425 100.159 22.5302 100.159 23.555Z" fill="#EDEEEF"/>
<path d="M100.16 25.2359C100.375 25.2362 100.589 25.194 100.789 25.1116C100.988 25.0293 101.17 24.9083 101.323 24.7558C101.475 24.6033 101.597 24.4221 101.679 24.2226C101.762 24.0232 101.805 23.8094 101.805 23.5935" stroke="black" stroke-width="0.426085" stroke-miterlimit="10"/>
<path d="M93.7369 26.4822C93.941 26.6856 94.2174 26.7999 94.5055 26.7999C94.7936 26.7999 95.07 26.6856 95.274 26.4822" stroke="#8433C2" stroke-width="0.319564" stroke-miterlimit="10"/>
<path d="M92.4103 25.9202L93.471 26.1805" stroke="black" stroke-width="0.426085" stroke-miterlimit="10" stroke-linecap="round"/>
<path d="M114.185 50.4393V76.1047L77.8341 85.0393V56.4575C77.8337 51.5324 79.4848 46.7493 82.5234 42.8732C85.562 38.9972 89.8126 36.2519 94.5954 35.0766C96.925 34.5037 99.3544 34.4681 101.7 34.9726C104.045 35.4771 106.245 36.5084 108.133 37.9884C110.021 39.4685 111.548 41.3585 112.598 43.5156C113.647 45.6727 114.193 48.0403 114.193 50.4393H114.185Z" fill="#8433C2"/>
<path d="M93.7369 31.6312C93.7369 31.6312 94.889 36.6164 91.5628 38.6188C91.3 38.7816 91.083 39.0086 90.9323 39.2785C90.7816 39.5484 90.7022 39.8523 90.7015 40.1614C90.6682 42.6817 90.1254 48.5033 85.7163 47.7168C82.1158 47.0742 83.1378 40.9092 84.3315 36.5859C85.0816 33.8837 85.3884 31.0777 85.2399 28.2773C84.9214 22.3864 85.9461 12.308 96.872 13.4574C98.4999 13.6099 100.069 14.1431 101.453 15.0139C104.283 16.8335 107.443 20.8881 100.935 28.8145" stroke="black" stroke-width="0.426085" stroke-miterlimit="10"/>
<path d="M89.1892 22.5445C89.1892 22.5445 96.6088 23.9847 97.7526 19.4426C97.7526 19.4426 98.3259 22.6581 100.201 23.32" stroke="black" stroke-width="0.426085" stroke-miterlimit="10"/>
<path d="M97.4065 184.436L108.734 75.5591" stroke="black" stroke-width="0.426085" stroke-miterlimit="10"/>
<path d="M83.2099 42.031C83.2099 42.031 54.5228 69.325 60.0619 85.0394C65.601 100.754 97.2016 77.7139 96.1354 70.8455L95.058 67.522C95.058 67.522 99.2982 61.5425 97.4066 62.6503C95.515 63.7582 78.6013 70.6267 78.6013 70.6267L84.434 63.315" stroke="black" stroke-width="0.426085" stroke-miterlimit="10"/>
<path d="M77.6152 87.9028V99.1279C84.7551 94.547 92.2939 77.5918 92.2939 77.5918C88.7322 81.3002 83.1682 85.3604 77.6152 87.9028Z" fill="black"/>
<path d="M100.018 35.1732C100.018 35.1732 115.231 34.2869 124.244 38.7182L118.926 22.7323C118.926 22.7323 113.902 19.071 117.447 18.4811C117.447 18.4811 115.971 14.4929 117.004 14.6397C118.037 14.7865 137.094 26.8257 138.571 42.0306C140.047 57.2354 114.198 56.8865 114.198 56.8865" stroke="black" stroke-width="0.426085" stroke-miterlimit="10"/>
<path d="M185.06 10.6487C178.095 10.6487 171.287 12.714 165.496 16.5835C159.705 20.4529 155.191 25.9527 152.526 32.3874C149.86 38.8221 149.163 45.9026 150.522 52.7337C151.881 59.5647 155.235 65.8394 160.159 70.7642C165.084 75.6891 171.359 79.043 178.19 80.4018C185.021 81.7606 192.102 81.0632 198.536 78.3979C204.971 75.7326 210.471 71.219 214.34 65.4279C218.21 59.6369 220.275 52.8284 220.275 45.8636H185.06V10.6487Z" fill="#EDEEEF"/>
<path d="M149.843 45.8638C149.843 55.2033 153.553 64.1604 160.157 70.7644C166.761 77.3685 175.718 81.0787 185.057 81.0787C194.397 81.0787 203.354 77.3685 209.958 70.7644C216.562 64.1604 220.272 55.2033 220.272 45.8638" stroke="black" stroke-width="0.426085" stroke-miterlimit="10"/>
<path d="M220.275 45.8638H185.06L213.401 66.7656C217.877 60.717 220.287 53.3884 220.275 45.8638Z" fill="black"/>
<path d="M185.06 0V45.8638H230.924C230.924 33.7 226.092 22.0343 217.491 13.4332C208.89 4.83207 197.224 0 185.06 0Z" fill="#8433C2"/>
<path d="M185.06 45.8638H230.924" stroke="black" stroke-width="0.426085" stroke-miterlimit="10"/>
<path d="M208.729 116.183H192.352V99.8065H208.729V116.183Z" fill="#52C248"/>
<path d="M213.218 101.039L200.539 88.3596L187.86 101.039H213.218Z" fill="#52C248"/>
<path d="M208.729 156.654H192.352V140.278H208.729V156.654Z" fill="#EDEEEF"/>
<path d="M213.218 141.51L200.539 128.831L187.86 141.51H213.218Z" fill="#EDEEEF"/>
<path d="M28.0401 23.7183C24.9555 23.7131 21.9952 24.9333 19.8102 27.1106C17.6252 29.2878 16.3945 32.2437 16.3886 35.3283L39.6528 35.3698C39.6554 33.8422 39.357 32.3291 38.7748 30.9169C38.1926 29.5046 37.3379 28.2209 36.2596 27.139C35.1812 26.057 33.9003 25.1981 32.49 24.6111C31.0797 24.0242 29.5677 23.7208 28.0401 23.7183Z" fill="#EDEEEF"/>
<path d="M52.2654 28.7617C51.3942 28.7596 50.5311 28.9291 49.7255 29.2606C48.9199 29.5921 48.1875 30.0792 47.5702 30.6939C46.9529 31.3086 46.4628 32.039 46.1279 32.8432C45.793 33.6475 45.6199 34.5098 45.6184 35.381L58.8791 35.4031C58.882 33.6456 58.187 31.9588 56.9469 30.7135C55.7067 29.4682 54.0229 28.7661 52.2654 28.7617Z" fill="#EDEEEF"/>
<path d="M39.6694 23.2088C36.4439 23.2029 33.348 24.4784 31.0628 26.7548C28.7775 29.0312 27.49 32.1221 27.4834 35.3477L51.8084 35.392C51.8135 32.1669 50.5377 29.0718 48.2614 26.7871C45.985 24.5025 42.8945 23.2154 39.6694 23.2088Z" fill="#EDEEEF"/>
<path d="M14.2534 35.3254L62.0587 35.4085" stroke="black" stroke-width="0.426085" stroke-miterlimit="10"/>
<path d="M44.2865 53.7515C44.9866 53.7504 45.6801 53.8872 46.3273 54.1541C46.9746 54.421 47.5629 54.8128 48.0588 55.3071C48.5546 55.8014 48.9482 56.3885 49.2172 57.035C49.4861 57.6814 49.6251 58.3744 49.6262 59.0746L38.9634 59.0939C38.9612 57.6797 39.5207 56.3225 40.5189 55.3207C41.5171 54.3188 42.8722 53.7544 44.2865 53.7515Z" fill="#EDEEEF"/>
<path d="M33.1806 56.064C33.9886 56.064 34.7635 56.3849 35.3348 56.9563C35.9061 57.5276 36.2271 58.3025 36.2271 59.1105H30.1479C30.1479 58.3049 30.467 57.5321 31.0353 56.9611C31.6037 56.3902 32.375 56.0676 33.1806 56.064Z" fill="#EDEEEF"/>
<path d="M38.9551 53.5105C39.6871 53.5091 40.4122 53.6518 41.089 53.9307C41.7658 54.2096 42.3811 54.619 42.8996 55.1358C43.4181 55.6525 43.8297 56.2663 44.1109 56.9421C44.3921 57.6179 44.5374 58.3425 44.5385 59.0745L33.3883 59.0939C33.3872 58.3618 33.5303 57.6366 33.8095 56.9598C34.0887 56.283 34.4984 55.6678 35.0153 55.1493C35.5323 54.6308 36.1463 54.2193 36.8222 53.9381C37.4982 53.6569 38.223 53.5116 38.9551 53.5105Z" fill="#EDEEEF"/>
<path d="M50.6066 59.0718L28.6912 59.1106" stroke="black" stroke-width="0.426085" stroke-miterlimit="10"/>
</svg>
