<svg width="308" height="252" viewBox="0 0 308 252" fill="none" xmlns="http://www.w3.org/2000/svg">
<path d="M183.987 237.523H165.579V229.737H146.773V220.531L132.766 208.143H111.559V172.388H83.9471V128.134L49.1304 158.934V217.699H30.7252V243.732H23.1189V236.464H9.5137V251H193.19V245.667L183.987 237.523Z" fill="#F4F4F4"/>
<path d="M0.712097 251H201.995" stroke="black" stroke-width="0.735617" stroke-miterlimit="10"/>
<path d="M86.0731 181.344H88.5889V183.569H86.0731V181.344Z" fill="white"/>
<path d="M92.1934 181.344H94.7092V183.569H92.1934V181.344Z" fill="white"/>
<path d="M98.3138 181.344H100.83V183.569H98.3138V181.344Z" fill="white"/>
<path d="M86.0731 187.343H88.5889V189.568H86.0731V187.343Z" fill="white"/>
<path d="M92.1934 187.343H94.7092V189.568H92.1934V187.343Z" fill="white"/>
<path d="M98.3138 187.343H100.83V189.568H98.3138V187.343Z" fill="white"/>
<path d="M86.0731 193.342H88.5889V195.567H86.0731V193.342Z" fill="white"/>
<path d="M92.1934 193.342H94.7092V195.567H92.1934V193.342Z" fill="white"/>
<path d="M98.3138 193.342H100.83V195.567H98.3138V193.342Z" fill="white"/>
<path d="M86.0731 199.341H88.5889V201.567H86.0731V199.341Z" fill="white"/>
<path d="M92.1934 199.341H94.7092V201.567H92.1934V199.341Z" fill="white"/>
<path d="M98.3138 199.341H100.83V201.567H98.3138V199.341Z" fill="white"/>
<path d="M86.0731 205.336H88.5889V207.562H86.0731V205.336Z" fill="white"/>
<path d="M92.1934 205.336H94.7092V207.562H92.1934V205.336Z" fill="white"/>
<path d="M98.3138 205.336H100.83V207.562H98.3138V205.336Z" fill="white"/>
<path d="M86.0731 211.336H88.5889V213.561H86.0731V211.336Z" fill="white"/>
<path d="M92.1934 211.336H94.7092V213.561H92.1934V211.336Z" fill="white"/>
<path d="M98.3138 211.336H100.83V213.561H98.3138V211.336Z" fill="white"/>
<path d="M86.0731 217.334H88.5889V219.559H86.0731V217.334Z" fill="white"/>
<path d="M92.1934 217.334H94.7092V219.559H92.1934V217.334Z" fill="white"/>
<path d="M98.3138 217.334H100.83V219.559H98.3138V217.334Z" fill="white"/>
<path d="M86.0731 223.333H88.5889V225.559H86.0731V223.333Z" fill="white"/>
<path d="M92.1934 223.333H94.7092V225.559H92.1934V223.333Z" fill="white"/>
<path d="M98.3138 223.333H100.83V225.559H98.3138V223.333Z" fill="white"/>
<path d="M86.0731 229.332H88.5889V231.558H86.0731V229.332Z" fill="white"/>
<path d="M92.1934 229.332H94.7092V231.558H92.1934V229.332Z" fill="white"/>
<path d="M98.3138 229.332H100.83V231.558H98.3138V229.332Z" fill="white"/>
<path d="M152.253 101.07C152.253 101.07 203.695 124.069 233.266 167.765H242.535L224.439 188.506L167.061 150.11C167.061 150.11 131.751 144.788 121.158 136.869C110.565 128.95 127.444 99.1428 127.444 99.1428" fill="#EDEEEF"/>
<path d="M145.014 100.345L110.562 97.9841L104.298 100.537L101.352 251H133.355L129.971 244.938L145.014 100.345Z" fill="#EDEEEF"/>
<path d="M119.058 27.9868V33.4266C119.058 35.4698 119.744 37.4538 121.005 39.0614C122.266 40.669 124.029 41.8074 126.013 42.2945L134.668 44.4241V23.1611L127.463 21.4103C126.465 21.1667 125.424 21.1526 124.42 21.369C123.416 21.5855 122.474 22.0268 121.665 22.6598C120.856 23.2929 120.201 24.1011 119.75 25.0238C119.298 25.9465 119.062 26.9595 119.058 27.9868Z" fill="#EDEEEF"/>
<path d="M119.058 33.4263C119.058 35.4694 119.744 37.4534 121.005 39.061C122.266 40.6686 124.029 41.807 126.013 42.2941L134.668 44.4238" stroke="black" stroke-width="0.735617" stroke-miterlimit="10"/>
<path d="M127.867 32.3449C128.097 32.3449 128.283 32.1588 128.283 31.9293C128.283 31.6998 128.097 31.5137 127.867 31.5137C127.638 31.5137 127.452 31.6998 127.452 31.9293C127.452 32.1588 127.638 32.3449 127.867 32.3449Z" fill="black"/>
<path d="M121.456 32.3449C121.686 32.3449 121.872 32.1588 121.872 31.9293C121.872 31.6998 121.686 31.5137 121.456 31.5137C121.227 31.5137 121.041 31.6998 121.041 31.9293C121.041 32.1588 121.227 32.3449 121.456 32.3449Z" fill="black"/>
<path d="M123.336 34.4195V27.9866" stroke="black" stroke-width="0.735617" stroke-miterlimit="10"/>
<path d="M133.627 31.2821V33.5147C133.914 33.5151 134.198 33.4591 134.463 33.3497C134.728 33.2403 134.969 33.0797 135.172 32.8771C135.375 32.6745 135.536 32.4339 135.646 32.1691C135.755 31.9042 135.812 31.6203 135.812 31.3335C135.816 31.2674 135.816 31.2011 135.812 31.1349C135.679 29.7814 133.627 29.9212 133.627 31.2821Z" fill="#EDEEEF"/>
<path d="M133.627 33.5146C133.914 33.5151 134.198 33.459 134.463 33.3496C134.728 33.2402 134.969 33.0797 135.172 32.8771C135.375 32.6745 135.536 32.4339 135.646 32.169C135.755 31.9042 135.812 31.6202 135.812 31.3335" stroke="black" stroke-width="0.735617" stroke-miterlimit="10"/>
<path d="M125.098 35.1699C125.369 35.4401 125.736 35.5918 126.118 35.5918C126.501 35.5918 126.868 35.4401 127.139 35.1699" stroke="#8433C2" stroke-width="0.551713" stroke-miterlimit="10"/>
<path d="M123.336 34.4231L124.745 34.7688" stroke="black" stroke-width="0.735617" stroke-miterlimit="10" stroke-linecap="round"/>
<path d="M152.253 66.9852V101.07L103.978 112.936V74.9777C103.978 68.4369 106.17 62.0848 110.206 56.9372C114.241 51.7896 119.886 48.1438 126.238 46.5829C129.332 45.8221 132.558 45.7749 135.673 46.4449C138.787 47.1148 141.709 48.4844 144.216 50.45C146.724 52.4155 148.751 54.9256 150.145 57.7903C151.54 60.655 152.264 63.7993 152.264 66.9852H152.253Z" fill="#8433C2"/>
<path d="M125.098 42.0076C125.098 42.0076 126.628 48.6282 122.21 51.2875C121.861 51.5037 121.573 51.8052 121.373 52.1636C121.173 52.5221 121.067 52.9256 121.067 53.3361C121.022 56.6832 120.301 64.4145 114.446 63.37C109.664 62.5166 111.022 54.3292 112.607 48.5877C113.603 44.9991 114.011 41.2726 113.813 37.5535C113.39 29.7302 114.751 16.3456 129.261 17.872C131.423 18.0746 133.507 18.7827 135.345 19.9391C139.104 22.3556 143.301 27.7403 134.657 38.267" stroke="black" stroke-width="0.735617" stroke-miterlimit="10"/>
<path d="M119.058 29.9398C119.058 29.9398 128.912 31.8524 130.431 25.8203C130.431 25.8203 131.192 30.0906 133.682 30.9696" stroke="black" stroke-width="0.735617" stroke-miterlimit="10"/>
<path d="M129.971 244.938L145.015 100.345" stroke="black" stroke-width="0.735617" stroke-miterlimit="10"/>
<path d="M111.117 55.8188C111.117 55.8188 73.0197 92.0664 80.3759 112.936C87.732 133.805 129.699 103.207 128.283 94.0857L126.852 89.6719C126.852 89.6719 132.483 81.731 129.971 83.2022C127.459 84.6734 104.997 93.7951 104.997 93.7951L112.743 84.0849" stroke="black" stroke-width="0.735617" stroke-miterlimit="10"/>
<path d="M103.687 116.739V131.646C113.17 125.562 123.181 103.045 123.181 103.045C118.451 107.97 111.062 113.362 103.687 116.739Z" fill="black"/>
<path d="M133.44 46.7116C133.44 46.7116 153.643 45.5346 165.612 51.4195L158.55 30.1896C158.55 30.1896 151.878 25.3272 156.586 24.5438C156.586 24.5438 154.625 19.2473 155.997 19.4423C157.369 19.6372 182.678 35.6258 184.639 55.8185C186.599 76.0112 152.271 75.5478 152.271 75.5478" stroke="black" stroke-width="0.735617" stroke-miterlimit="10"/>
<path d="M246.379 14.1421C237.129 14.1421 228.087 16.8849 220.397 22.0237C212.706 27.1625 206.712 34.4665 203.172 43.012C199.632 51.5576 198.706 60.9608 200.511 70.0327C202.315 79.1046 206.769 87.4376 213.31 93.9781C219.85 100.519 228.183 104.973 237.255 106.777C246.327 108.582 255.73 107.656 264.276 104.116C272.821 100.576 280.125 94.582 285.264 86.8912C290.403 79.2005 293.146 70.1586 293.146 60.909H246.379V14.1421Z" fill="#EDEEEF"/>
<path d="M199.608 60.9089C199.608 73.3123 204.535 85.2076 213.306 93.9781C222.076 102.749 233.972 107.676 246.375 107.676C258.778 107.676 270.674 102.749 279.444 93.9781C288.215 85.2076 293.142 73.3123 293.142 60.9089" stroke="black" stroke-width="0.735617" stroke-miterlimit="10"/>
<path d="M293.146 60.9089H246.379L284.017 88.6674C289.961 80.6347 293.162 70.9019 293.146 60.9089Z" fill="black"/>
<path d="M246.379 0V60.9091H307.288C307.288 44.755 300.871 29.2625 289.448 17.8399C278.025 6.41719 262.533 0 246.379 0Z" fill="#8433C2"/>
<path d="M246.379 60.9089H307.288" stroke="black" stroke-width="0.735617" stroke-miterlimit="10"/>
<path d="M277.812 154.296H256.063V132.547H277.812V154.296Z" fill="#8433C2"/>
<path d="M283.774 134.184L266.936 117.345L250.097 134.184H283.774Z" fill="#8433C2"/>
<path d="M277.812 208.043H256.063V186.295H277.812V208.043Z" fill="#EDEEEF"/>
<path d="M283.774 187.932L266.936 171.093L250.097 187.932H283.774Z" fill="#EDEEEF"/>
<path d="M37.8497 31.499C33.7533 31.4922 29.8219 33.1127 26.9201 36.0041C24.0183 38.8956 22.3838 42.8212 22.376 46.9176L53.2719 46.9728C53.2753 44.9441 52.8791 42.9346 52.1058 41.0591C51.3326 39.1836 50.1976 37.4787 48.7655 36.0419C47.3334 34.605 45.6323 33.4643 43.7594 32.6848C41.8865 31.9053 39.8783 31.5024 37.8497 31.499Z" fill="#EDEEEF"/>
<path d="M70.0219 38.1968C68.865 38.1939 67.7188 38.419 66.6489 38.8593C65.579 39.2996 64.6063 39.9464 63.7865 40.7628C62.9667 41.5792 62.3159 42.5491 61.8711 43.6172C61.4264 44.6852 61.1964 45.8305 61.1945 46.9874L78.8052 47.0168C78.8091 44.6828 77.8862 42.4427 76.2392 40.7888C74.5922 39.1349 72.356 38.2027 70.0219 38.1968Z" fill="#EDEEEF"/>
<path d="M53.2939 30.8225C49.0102 30.8147 44.8988 32.5087 41.8639 35.5319C38.829 38.555 37.1191 42.6599 37.1104 46.9436L69.415 47.0024C69.4218 42.7194 67.7274 38.6089 64.7044 35.5748C61.6813 32.5407 57.577 30.8313 53.2939 30.8225Z" fill="#EDEEEF"/>
<path d="M19.5402 46.9138L83.0276 47.0242" stroke="black" stroke-width="0.735617" stroke-miterlimit="10"/>
<path d="M59.4254 71.3843C60.3552 71.3828 61.2762 71.5645 62.1358 71.919C62.9954 72.2735 63.7767 72.7938 64.4352 73.4503C65.0937 74.1067 65.6164 74.8864 65.9736 75.7449C66.3308 76.6034 66.5153 77.5238 66.5168 78.4536L52.3561 78.4793C52.3532 76.6012 53.0963 74.7987 54.4219 73.4682C55.7475 72.1378 57.5473 71.3882 59.4254 71.3843Z" fill="#EDEEEF"/>
<path d="M44.6764 74.4556C45.7494 74.4556 46.7785 74.8818 47.5372 75.6406C48.296 76.3993 48.7223 77.4284 48.7223 78.5015H40.6489C40.6489 77.4316 41.0726 76.4053 41.8274 75.6471C42.5821 74.8888 43.6065 74.4604 44.6764 74.4556Z" fill="#EDEEEF"/>
<path d="M52.3451 71.0642C53.3172 71.0623 54.2802 71.2519 55.1791 71.6223C56.0779 71.9926 56.8949 72.5364 57.5835 73.2226C58.2721 73.9088 58.8188 74.724 59.1922 75.6215C59.5657 76.519 59.7587 77.4814 59.7601 78.4535L44.9522 78.4792C44.9507 77.5069 45.1408 76.5439 45.5115 75.645C45.8823 74.7462 46.4264 73.9291 47.1129 73.2406C47.7994 72.5521 48.6148 72.0055 49.5126 71.632C50.4103 71.2586 51.3728 71.0657 52.3451 71.0642Z" fill="#EDEEEF"/>
<path d="M67.8188 78.4497L38.7141 78.5012" stroke="black" stroke-width="0.735617" stroke-miterlimit="10"/>
</svg>
