<svg width="201" height="229" viewBox="0 0 201 229" fill="none" xmlns="http://www.w3.org/2000/svg">
<path d="M23.2249 207.485L30.3858 213.7L49.4773 189.287L58.0684 196.478L103.412 136.855L143.504 207.485L154.483 195.354L174.53 228.267H6.52139L23.2249 207.485Z" fill="#F4F4F4"/>
<path d="M180.551 228.267H0.5" stroke="black" stroke-width="0.606079" stroke-miterlimit="10"/>
<path d="M46.3529 104.739C46.3529 104.739 -25.5674 196.051 102.785 192.778L107.876 197.142V166.502L63.8928 156.78L69.0597 100.415" fill="#8433C2"/>
<path d="M65.4323 139.989C52.1531 140.686 41.5164 158.395 41.5164 180.145C41.5164 180.623 41.5164 181.096 41.5346 181.569C51.3258 187.866 66.6444 192.112 89.7179 192.781C90.5555 188.624 90.9737 184.394 90.9664 180.154C90.9982 174.07 90.125 168.016 88.3754 162.189L63.8989 156.78L65.4323 139.989Z" fill="black"/>
<path d="M52.8228 106.327C52.8228 106.327 47.9287 186.205 61.7504 224.025L58.8654 228.267H83.448C83.448 228.267 86.1359 126.667 86.1359 104.739L52.8228 106.327Z" fill="#8433C2"/>
<path d="M71.5021 44.5253V54.9074L58.6411 58.0681V40.5494L71.5021 37.3887V44.5253Z" fill="#EDEEEF"/>
<path d="M64.2383 48.116C64.4274 48.116 64.5807 47.9627 64.5807 47.7736C64.5807 47.5845 64.4274 47.4312 64.2383 47.4312C64.0492 47.4312 63.8959 47.5845 63.8959 47.7736C63.8959 47.9627 64.0492 48.116 64.2383 48.116Z" fill="black"/>
<path d="M69.5172 48.116C69.7064 48.116 69.8597 47.9627 69.8597 47.7736C69.8597 47.5845 69.7064 47.4312 69.5172 47.4312C69.3281 47.4312 69.1748 47.5845 69.1748 47.7736C69.1748 47.9627 69.3281 48.116 69.5172 48.116Z" fill="black"/>
<path d="M67.9688 49.8253V44.5251H70.6234" stroke="black" stroke-width="0.606079" stroke-miterlimit="10"/>
<path d="M63.5898 44.5251H66.2444" stroke="black" stroke-width="0.606079" stroke-miterlimit="10"/>
<path d="M59.4897 47.2402V49.0797C59.2536 49.0801 59.0197 49.0339 58.8015 48.9437C58.5833 48.8535 58.3851 48.7212 58.2181 48.5542C58.0512 48.3873 57.9188 48.189 57.8286 47.9708C57.7385 47.7526 57.6923 47.5188 57.6927 47.2827C57.6927 47.2281 57.6927 47.1736 57.6927 47.119C57.7987 46.0038 59.4897 46.119 59.4897 47.2402Z" fill="#EDEEEF"/>
<path d="M59.4897 49.08C59.2536 49.0804 59.0197 49.0342 58.8015 48.944C58.5833 48.8538 58.3851 48.7215 58.2181 48.5545C58.0512 48.3876 57.9188 48.1893 57.8286 47.9711C57.7385 47.7529 57.6923 47.5191 57.6927 47.283" stroke="black" stroke-width="0.606079" stroke-miterlimit="10"/>
<path d="M66.808 51.1315C66.3258 51.1315 65.8634 50.9399 65.5224 50.5989C65.1814 50.2579 64.9898 49.7955 64.9898 49.3132" stroke="#8433C2" stroke-width="0.454559" stroke-miterlimit="10"/>
<path d="M71.5021 54.9075L58.6411 58.0682" stroke="black" stroke-width="0.606079" stroke-miterlimit="10"/>
<path d="M67.9687 49.8284L66.808 50.1132" stroke="black" stroke-width="0.606079" stroke-miterlimit="10" stroke-linecap="round"/>
<path d="M46.3529 76.6566V104.739L86.1359 114.515V83.2416C86.1358 77.8527 84.329 72.6195 81.0043 68.3784C77.6796 64.1374 73.029 61.1335 67.796 59.847C65.247 59.2201 62.5888 59.1812 60.0225 59.7332C57.4563 60.2852 55.0492 61.4136 52.9834 63.0331C50.9175 64.6525 49.2471 66.7206 48.0984 69.0808C46.9496 71.441 46.3528 74.0316 46.3529 76.6566Z" fill="#EDEEEF"/>
<path d="M52.8228 106.327C52.8228 106.327 47.9287 186.205 61.7504 224.025" stroke="black" stroke-width="0.606079" stroke-miterlimit="10"/>
<path d="M58.2139 46.4039C58.2139 46.4039 56.4835 40.6795 59.2109 38.3158C61.9383 35.9521 73.9992 36.5582 73.9992 36.5582C73.9992 36.5582 74.8477 44.9221 62.4231 42.922C62.4231 42.922 62.2443 45.2372 60.1806 45.6494" stroke="black" stroke-width="0.606079" stroke-miterlimit="10"/>
<path d="M75.3447 63.1621C75.3447 63.1621 93.4847 74.8019 90.0906 106.327C86.6966 137.852 40.3103 97.9329 39.0163 95.0237C37.7224 92.1145 42.574 89.6902 48.553 93.0842C48.553 93.0842 46.1287 91.0478 47.259 90.772C48.3893 90.4963 50.6985 91.3054 51.9682 93.8933L80.0691 99.0632" stroke="black" stroke-width="0.606079" stroke-miterlimit="10"/>
<path d="M47.162 91.3478H19.1491L6.86688 62.95" stroke="black" stroke-width="0.606079" stroke-miterlimit="10"/>
<path d="M8.58514 66.0139L51.9804 42.498" stroke="#8433C2" stroke-width="0.454559" stroke-miterlimit="10"/>
<path d="M51.7077 64.144C51.7077 64.144 41.765 73.5383 38.8224 91.3479" stroke="black" stroke-width="0.606079" stroke-miterlimit="10"/>
<path d="M24.9674 91.3479C24.9674 91.3479 32.0858 111.509 40.3467 113.488" stroke="black" stroke-width="0.606079" stroke-miterlimit="10"/>
<path d="M36.1193 91.3479C36.1193 91.3479 32.6162 86.4569 30.2828 85.3265C27.9494 84.1962 20.928 86.7811 21.8159 87.9933C22.7038 89.2054 24.322 88.56 24.322 88.56C24.322 88.56 23.919 89.7721 24.6462 90.0933" stroke="black" stroke-width="0.606079" stroke-miterlimit="10"/>
<path d="M179.672 24.5609C179.672 24.467 179.672 24.3761 179.672 24.2821C179.669 22.0921 179.108 19.9389 178.043 18.0257C176.977 16.1126 175.441 14.5026 173.58 13.3478C171.719 12.193 169.595 11.5314 167.407 11.4254C165.22 11.3195 163.041 11.7728 161.078 12.7424C157.933 8.15785 153.451 4.65427 148.243 2.709C143.035 0.76372 137.354 0.471343 131.974 1.8717C126.594 3.27206 121.777 6.29705 118.178 10.5345C114.579 14.772 112.374 20.016 111.864 25.5519C106.986 27.1826 102.743 30.3044 99.7351 34.4766C96.7271 38.6489 95.1057 43.6606 95.0999 48.8041C95.0999 55.3142 97.686 61.5576 102.289 66.1609C106.893 70.7642 113.136 73.3503 119.646 73.3503H175.954C182.464 73.3503 188.707 70.7642 193.311 66.1609C197.914 61.5576 200.5 55.3142 200.5 48.8041C200.495 42.9418 198.393 37.2748 194.572 32.8282C190.752 28.3815 185.467 25.449 179.672 24.5609Z" fill="#EDEEEF"/>
<path d="M161.078 12.7424C158.596 9.1208 155.268 6.15887 151.383 4.11322C147.498 2.06758 143.174 0.999907 138.783 1.00269" stroke="black" stroke-width="0.606079" stroke-miterlimit="10"/>
<path d="M179.675 24.2793C179.675 22.5872 179.342 20.9116 178.694 19.3483C178.047 17.785 177.098 16.3645 175.901 15.168C174.705 13.9715 173.284 13.0224 171.721 12.3749C170.158 11.7273 168.482 11.394 166.79 11.394" stroke="black" stroke-width="0.606079" stroke-miterlimit="10"/>
<path d="M119.637 73.3504H175.954C182.464 73.3504 188.707 70.7643 193.311 66.161C197.914 61.5577 200.5 55.3143 200.5 48.8042" stroke="black" stroke-width="0.606079" stroke-miterlimit="10"/>
<path d="M160.838 101.539H134.756V75.4565H160.838V101.539Z" fill="#52C248"/>
<path d="M167.99 77.4232L147.795 57.2317L127.604 77.4232H167.99Z" fill="#52C248"/>
<path d="M160.838 152.825H134.756V126.743H160.838V152.825Z" fill="#EDEEEF"/>
<path d="M167.99 128.71L147.795 108.518L127.604 128.71H167.99Z" fill="#EDEEEF"/>
<path d="M161.016 204.003L134.935 204.199L134.739 178.117L160.821 177.921L161.016 204.003Z" fill="#EDEEEF"/>
<path d="M167.972 179.844L147.629 159.804L127.589 180.147L167.972 179.844Z" fill="#EDEEEF"/>
</svg>
