<svg width="195" height="193" viewBox="0 0 195 193" fill="none" xmlns="http://www.w3.org/2000/svg">
<path d="M3.97567 6.05444H100.431V109.646H3.97567V6.05444Z" fill="#EDEEEF"/>
<path d="M100.433 6.05444V109.646H3.97567" stroke="black" stroke-width="0.56795" stroke-miterlimit="10"/>
<path d="M30.5103 2.7688H73.896V10.4106H30.5103V2.7688Z" fill="#8433C2"/>
<path d="M52.206 5.88964C53.8324 5.88964 55.1508 4.5712 55.1508 2.94482C55.1508 1.31844 53.8324 0 52.206 0C50.5796 0 49.2612 1.31844 49.2612 2.94482C49.2612 4.5712 50.5796 5.88964 52.206 5.88964Z" fill="#8433C2"/>
<path d="M30.5103 2.7688H73.896V10.4106H30.5103V2.7688Z" fill="#8433C2"/>
<path d="M73.8988 2.7688V10.4106H30.5131" stroke="black" stroke-width="0.56795" stroke-miterlimit="10"/>
<path d="M52.206 5.88964C53.8324 5.88964 55.1508 4.5712 55.1508 2.94482C55.1508 1.31844 53.8324 0 52.206 0C50.5796 0 49.2612 1.31844 49.2612 2.94482C49.2612 4.5712 50.5796 5.88964 52.206 5.88964Z" fill="#8433C2"/>
<path d="M52.206 109.646V191.822" stroke="black" stroke-width="0.56795" stroke-miterlimit="10"/>
<path d="M0 191.822H104.409" stroke="black" stroke-width="0.56795" stroke-miterlimit="10"/>
<path d="M185.013 187.662V181.335L179.171 186.688L177.226 169.897L161.894 180.85L159.946 173.549L154.593 178.902V170.141L148.025 177.928L142.183 160.406L134.882 178.427L124.177 165.032L116.146 183.283V174.523L111.523 183.039L108.359 171.601L99.5986 185.228L86.2148 168.437L82.0773 184.984L78.184 180.361L75.2619 191.822H187.69L188.662 187.418L185.013 187.662Z" fill="#F4F4F4"/>
<path d="M68.9264 191.822H195" stroke="black" stroke-width="0.56795" stroke-miterlimit="10"/>
<path d="M155.78 75.5089L128.067 73.6858L120.888 101.995L104.409 191.822H126.84L124.228 187.142L155.78 75.5089Z" fill="#EDEEEF"/>
<path d="M159.387 186.867L160.75 135.751L138.94 139.84L144.004 191.822H162.644L159.387 186.867Z" fill="#EDEEEF"/>
<path d="M152.702 137.262L138.94 139.84L139.548 146.088C151.001 144.543 158.887 141.468 158.887 141.468L152.702 137.262Z" fill="black"/>
<path d="M125.366 118.713C125.366 118.713 121.896 119.783 117.304 121.53L112.872 145.705C120.953 147.179 128.828 147.173 135.709 146.517L140.639 129.078L125.366 118.713Z" fill="black"/>
<path d="M125.366 76.0627L98.0679 132.662C98.0679 132.662 130.441 149.7 162.641 140.5V81.8899L125.366 76.0627Z" fill="#8433C2"/>
<path d="M135.521 19.6399V23.8399C135.522 25.4177 136.051 26.9499 137.024 28.1916C137.998 29.4333 139.359 30.3127 140.891 30.6894L147.57 32.3308V15.9142L142.016 14.5483C141.244 14.3583 140.439 14.3465 139.661 14.5137C138.884 14.6808 138.155 15.0226 137.529 15.5132C136.904 16.0038 136.398 16.6302 136.05 17.3452C135.702 18.0601 135.521 18.8449 135.521 19.6399Z" fill="#EDEEEF"/>
<path d="M135.521 23.8396C135.522 25.4174 136.051 26.9496 137.024 28.1913C137.998 29.4329 139.359 30.3124 140.891 30.6891L147.57 32.3305" stroke="black" stroke-width="0.56795" stroke-miterlimit="10"/>
<path d="M142.328 23.0048C142.506 23.0048 142.649 22.8612 142.649 22.6839C142.649 22.5067 142.506 22.363 142.328 22.363C142.151 22.363 142.007 22.5067 142.007 22.6839C142.007 22.8612 142.151 23.0048 142.328 23.0048Z" fill="black"/>
<path d="M137.379 23.0048C137.556 23.0048 137.7 22.8612 137.7 22.6839C137.7 22.5067 137.556 22.363 137.379 22.363C137.201 22.363 137.058 22.5067 137.058 22.6839C137.058 22.8612 137.201 23.0048 137.379 23.0048Z" fill="black"/>
<path d="M138.83 24.6064V19.6396H136.342" stroke="black" stroke-width="0.56795" stroke-miterlimit="10"/>
<path d="M142.936 19.6396H140.448" stroke="black" stroke-width="0.56795" stroke-miterlimit="10"/>
<path d="M146.778 22.1842V23.9108C147.225 23.91 147.653 23.732 147.969 23.4157C148.285 23.0995 148.462 22.6708 148.462 22.224C148.462 22.1729 148.462 22.1217 148.462 22.0706C148.36 21.0256 146.778 21.1363 146.778 22.1842Z" fill="#EDEEEF"/>
<path d="M146.778 23.9107C147.225 23.9099 147.653 23.7319 147.969 23.4156C148.285 23.0994 148.462 22.6708 148.462 22.2239" stroke="black" stroke-width="0.56795" stroke-miterlimit="10"/>
<path d="M140.19 25.1858C140.293 25.2899 140.416 25.3724 140.552 25.4288C140.687 25.4851 140.833 25.5142 140.979 25.5142C141.126 25.5142 141.271 25.4851 141.407 25.4288C141.542 25.3724 141.665 25.2899 141.769 25.1858" stroke="#8433C2" stroke-width="0.425963" stroke-miterlimit="10"/>
<path d="M138.83 24.6094L139.92 24.8792" stroke="black" stroke-width="0.56795" stroke-miterlimit="10" stroke-linecap="round"/>
<path d="M137.702 29.7746L137.509 29.8627C136.9 30.1404 136.23 30.258 135.562 30.2044C134.895 30.1508 134.252 29.9278 133.695 29.5565C133.137 29.1852 132.684 28.6778 132.378 28.0824C132.071 27.487 131.922 26.8233 131.943 26.154C132.162 19.8895 133.647 11.1998 140.179 11.8217C140.179 11.8217 146.841 10.294 149.51 16.4278C152.179 22.5617 148.905 25.515 147.559 26.1966" stroke="black" stroke-width="0.56795" stroke-miterlimit="10"/>
<path d="M135.379 21.3407C135.379 21.3407 140.409 20.4575 140.979 17.0811C140.979 17.0811 143.473 21.2526 146.943 21.6559" stroke="black" stroke-width="0.56795" stroke-miterlimit="10"/>
<path d="M125.367 49.7497V76.0628L162.644 85.2267V55.9205C162.644 50.8706 160.951 45.9666 157.835 41.9924C154.72 38.0182 150.362 35.2032 145.458 33.9976C143.069 33.4107 140.579 33.3747 138.174 33.8922C135.77 34.4097 133.515 35.4672 131.579 36.9847C129.643 38.5022 128.078 40.44 127.002 42.6514C125.926 44.8629 125.366 47.2902 125.367 49.7497Z" fill="#EDEEEF"/>
<path d="M98.068 132.662C98.068 132.662 130.441 149.7 162.641 140.5" stroke="black" stroke-width="0.56795" stroke-miterlimit="10"/>
<path d="M152.639 37.1582C152.639 37.1582 170.905 49.9371 170.973 68.9634C171.072 96.6055 128.144 71.6896 126.755 67.146L125.366 62.6024C125.366 62.6024 119.63 60.2425 120.993 59.3764C122.356 58.5103 162.644 67.0721 162.644 67.0721" stroke="black" stroke-width="0.56795" stroke-miterlimit="10"/>
<path d="M131.941 37.1582C131.941 37.1582 121.448 44.6409 117.131 64.1784C117.131 64.1784 110.089 54.4239 107.59 50.6669C105.091 46.9099 103.046 49.4117 103.046 49.4117C103.046 49.4117 100.138 45.1095 98.068 46.9241C95.9978 48.7387 101.53 79.9106 121.712 83.6364" stroke="black" stroke-width="0.56795" stroke-miterlimit="10"/>
<path d="M123.433 61.7502L81.1629 40.9434" stroke="black" stroke-width="0.56795" stroke-miterlimit="10"/>
<path d="M16.1611 22.8345H65.4137V72.0871H16.1611V22.8345Z" fill="#52C248"/>
<path d="M39.6799 35.1816H41.8977V59.737H39.6799V35.1816Z" fill="white"/>
<path d="M53.0664 46.353V48.5709H28.5111V46.353H53.0664Z" fill="white"/>
</svg>
