<svg width="219" height="195" viewBox="0 0 219 195" fill="none" xmlns="http://www.w3.org/2000/svg">
<path d="M118.918 189.286V182.818L112.949 188.291L110.957 171.124L95.2832 182.322L93.2945 174.858L87.8191 180.33V171.374L81.1041 179.334L75.1323 161.422L67.6682 179.845L56.7233 166.151L48.5131 184.81V175.854L43.7868 184.56L40.5527 172.866L31.5964 186.798L17.9138 169.632L13.6838 186.549L9.7036 181.822L6.71915 193.54H121.656L122.648 189.037L118.918 189.286Z" fill="#F4F4F4"/>
<path d="M0.239319 193.54H129.128" stroke="black" stroke-width="0.580633" stroke-miterlimit="10"/>
<path d="M137.664 105.173L97.1122 121.649V16.4726L137.664 0V105.173Z" fill="#EDEEEF"/>
<path d="M178.212 121.649L137.664 105.173V0L178.212 16.4726V121.649Z" fill="#E2E2E2"/>
<path d="M137.664 105.173L97.1122 121.649" stroke="black" stroke-width="0.580633" stroke-miterlimit="10"/>
<path d="M178.212 121.649L137.664 105.173" stroke="black" stroke-width="0.580633" stroke-miterlimit="10"/>
<path d="M218.761 105.173L178.212 121.649V16.4726L218.761 0V105.173Z" fill="#8433C2"/>
<path d="M93.939 189.437C93.939 189.437 89.4856 99.9124 85.1134 75.6536L56.2124 79.5496L71.2711 194.01H96.7957L93.939 189.437Z" fill="#EDEEEF"/>
<path d="M85.2034 135.894C82.0361 130.407 72.7401 129.682 63.3484 133.769L66.9135 160.856C68.8809 160.132 70.7827 159.24 72.5979 158.191C83.1509 152.097 88.7946 142.116 85.2034 135.894Z" fill="black"/>
<path d="M46.9949 85.0191C46.9949 85.0191 43.7491 118.899 63.5719 127.957L22.7795 150.95L31.489 172.198L34.6245 164.882C34.6245 164.882 85.8334 156.873 88.6234 136.666C91.4133 116.46 72.5108 78.7483 72.5108 78.7483" fill="#EDEEEF"/>
<path d="M34.6245 164.882C34.6245 164.882 85.8334 156.873 88.6234 136.666C91.4133 116.46 72.5108 78.7483 72.5108 78.7483" stroke="black" stroke-width="0.580633" stroke-miterlimit="10"/>
<path d="M60.1869 17.9676V27.9138L72.5079 30.9418V14.1586L60.1869 11.1306V17.9676Z" fill="#EDEEEF"/>
<path d="M67.1457 21.4081C67.3269 21.4081 67.4738 21.2612 67.4738 21.08C67.4738 20.8988 67.3269 20.752 67.1457 20.752C66.9645 20.752 66.8177 20.8988 66.8177 21.08C66.8177 21.2612 66.9645 21.4081 67.1457 21.4081Z" fill="black"/>
<path d="M62.0884 21.4081C62.2696 21.4081 62.4164 21.2612 62.4164 21.08C62.4164 20.8988 62.2696 20.752 62.0884 20.752C61.9072 20.752 61.7603 20.8988 61.7603 21.08C61.7603 21.2612 61.9072 21.4081 62.0884 21.4081Z" fill="black"/>
<path d="M63.5719 23.0454V17.9678H61.0287" stroke="black" stroke-width="0.580633" stroke-miterlimit="10"/>
<path d="M67.767 17.9678H65.2238" stroke="black" stroke-width="0.580633" stroke-miterlimit="10"/>
<path d="M71.6949 20.5688V22.3311C71.9211 22.3314 72.1452 22.2872 72.3542 22.2008C72.5633 22.1144 72.7532 21.9876 72.9131 21.8277C73.0731 21.6677 73.1999 21.4778 73.2863 21.2687C73.3726 21.0597 73.4169 20.8357 73.4165 20.6095C73.4194 20.5573 73.4194 20.5049 73.4165 20.4527C73.3149 19.3843 71.6949 19.4947 71.6949 20.5688Z" fill="#EDEEEF"/>
<path d="M71.6949 22.3312C71.9211 22.3316 72.1451 22.2873 72.3542 22.2009C72.5632 22.1145 72.7532 21.9878 72.9131 21.8278C73.073 21.6679 73.1998 21.4779 73.2862 21.2689C73.3726 21.0598 73.4169 20.8358 73.4165 20.6096" stroke="black" stroke-width="0.580633" stroke-miterlimit="10"/>
<path d="M64.6838 24.2966C65.1458 24.2966 65.5888 24.1131 65.9155 23.7864C66.2422 23.4597 66.4257 23.0167 66.4257 22.5547" stroke="#8433C2" stroke-width="0.435475" stroke-miterlimit="10"/>
<path d="M60.1867 27.9141L72.5078 30.9421" stroke="black" stroke-width="0.580633" stroke-miterlimit="10"/>
<path d="M63.5719 23.0483L64.6838 23.3212" stroke="black" stroke-width="0.580633" stroke-miterlimit="10" stroke-linecap="round"/>
<path d="M60.1868 17.9677L59.3013 9.2959L74.0494 10.8055L72.5572 19.7067" stroke="black" stroke-width="0.580633" stroke-miterlimit="10"/>
<path d="M61.0171 13.1106C61.0171 13.1106 64.7912 16.5538 69.8776 15.857C69.8776 15.857 70.2027 19.2247 71.6834 19.9998" stroke="black" stroke-width="0.580633" stroke-miterlimit="10"/>
<path d="M85.1134 48.7501V75.6537L46.9948 85.0193V55.0587C46.9949 49.896 48.7258 44.8825 51.911 40.8195C55.0961 36.7565 59.5514 33.8788 64.5648 32.6462C67.0071 32.0447 69.5544 32.0066 72.0136 32.535C74.4728 33.0633 76.7797 34.1441 78.7595 35.6957C80.7393 37.2473 82.3402 39.2289 83.441 41.4906C84.5418 43.7523 85.1137 46.2347 85.1134 48.7501Z" fill="#8433C2"/>
<path d="M54.3631 38.1536C54.3631 38.1536 38.2244 52.5533 38.4566 72.0626C38.6511 88.4016 77.0687 74.928 89.5524 70.1203C90.7635 69.6531 91.8636 68.9378 92.782 68.0204C93.7004 67.1029 94.4169 66.0036 94.8855 64.793L96.2732 61.2076L100.23 59.5993V57.4306L61.7632 62.3863L66.4954 51.2381" stroke="black" stroke-width="0.580633" stroke-miterlimit="10"/>
<path d="M48.3477 79.8544C51.3379 81.2856 55.3907 82.1769 59.8616 82.1769C68.4695 82.1769 75.5387 78.9166 76.4097 74.7361C67.2037 77.6218 56.1456 80.3537 48.3477 79.8544Z" fill="black"/>
<path d="M99.3941 56.3708C102.518 49.8648 107.659 39.756 110.136 38.1534C112.336 36.7251 114.96 36.0967 117.568 36.3738V38.1534L114.781 39.7792C114.781 39.7792 116.639 44.8888 112.923 47.0575C112.923 47.0575 112.081 94.6491 85.096 75.6536" stroke="black" stroke-width="0.580633" stroke-miterlimit="10"/>
<path d="M82.8548 40.3948L94.3223 58.1012" stroke="black" stroke-width="0.580633" stroke-miterlimit="10"/>
<path d="M137.664 132.579C147.337 132.579 155.178 124.737 155.178 115.064C155.178 105.391 147.337 97.5493 137.664 97.5493C127.99 97.5493 120.149 105.391 120.149 115.064C120.149 124.737 127.99 132.579 137.664 132.579Z" fill="#52C248"/>
<path d="M155.176 115.064C155.176 117.364 154.722 119.642 153.842 121.766C152.962 123.891 151.672 125.822 150.045 127.448C148.419 129.074 146.488 130.364 144.363 131.244C142.238 132.124 139.961 132.576 137.661 132.576" stroke="black" stroke-width="0.580633" stroke-miterlimit="10"/>
<path d="M124.306 115.064C124.306 111.522 125.713 108.125 128.218 105.621C130.722 103.116 134.119 101.709 137.661 101.709" stroke="white" stroke-width="0.435475" stroke-miterlimit="10"/>
<path d="M137.664 132.576V193.996" stroke="black" stroke-width="0.580633" stroke-miterlimit="10"/>
<path d="M118.033 193.995H157.295" stroke="black" stroke-width="0.580633" stroke-miterlimit="10"/>
</svg>
