<svg width="259" height="258" viewBox="0 0 259 258" fill="none" xmlns="http://www.w3.org/2000/svg">
<path d="M190.559 0.719604H252.167V111.944H190.559V0.719604Z" fill="#EDEEEF"/>
<path d="M221.359 -1.52588e-05V112.659" stroke="black" stroke-width="0.738" stroke-miterlimit="10"/>
<path d="M190.559 111.944V0.719574H252.164" stroke="black" stroke-width="0.738" stroke-miterlimit="10"/>
<path d="M258.108 37.5126H184.614" stroke="black" stroke-width="0.738" stroke-miterlimit="10"/>
<path d="M258.108 75.1469H184.614" stroke="black" stroke-width="0.738" stroke-miterlimit="10"/>
<path d="M35.5237 0.719604H97.1319V111.944H35.5237V0.719604Z" fill="#EDEEEF"/>
<path d="M66.3278 -1.52588e-05V112.659" stroke="black" stroke-width="0.738" stroke-miterlimit="10"/>
<path d="M35.5237 111.944V0.719574H97.1282" stroke="black" stroke-width="0.738" stroke-miterlimit="10"/>
<path d="M103.073 37.5126H29.5791" stroke="black" stroke-width="0.738" stroke-miterlimit="10"/>
<path d="M103.073 75.1469H29.5791" stroke="black" stroke-width="0.738" stroke-miterlimit="10"/>
<path d="M127.733 189.932V248.086L123.896 256.352H150.209L158.729 174.876L127.733 189.932Z" fill="#EDEEEF"/>
<path d="M133.582 105.209L174.43 102.84V147.128V256.352H146.814L150.209 250.271L133.582 105.209Z" fill="#EDEEEF"/>
<path d="M135.582 32.6159V38.0734C135.582 40.1231 136.27 42.1136 137.535 43.7264C138.8 45.3392 140.569 46.4813 142.56 46.97L151.242 49.1065V27.7746L144.021 26.0182C143.018 25.7721 141.972 25.7573 140.962 25.9748C139.952 26.1924 139.005 26.6365 138.192 27.2738C137.379 27.9111 136.722 28.7248 136.27 29.6535C135.817 30.5822 135.582 31.6014 135.582 32.6344V32.6159Z" fill="#EDEEEF"/>
<path d="M135.582 38.0734C135.582 40.1232 136.27 42.1136 137.535 43.7264C138.8 45.3392 140.569 46.4813 142.559 46.97L151.242 49.1065" stroke="black" stroke-width="0.738" stroke-miterlimit="10"/>
<path d="M144.427 36.9886C144.657 36.9886 144.844 36.8019 144.844 36.5716C144.844 36.3413 144.657 36.1547 144.427 36.1547C144.196 36.1547 144.01 36.3413 144.01 36.5716C144.01 36.8019 144.196 36.9886 144.427 36.9886Z" fill="black"/>
<path d="M137.999 36.9886C138.229 36.9886 138.416 36.8019 138.416 36.5716C138.416 36.3413 138.229 36.1547 137.999 36.1547C137.768 36.1547 137.582 36.3413 137.582 36.5716C137.582 36.8019 137.768 36.9886 137.999 36.9886Z" fill="black"/>
<path d="M139.884 39.0697V32.6159H136.652" stroke="black" stroke-width="0.738" stroke-miterlimit="10"/>
<path d="M145.216 32.6159H141.984" stroke="black" stroke-width="0.738" stroke-miterlimit="10"/>
<path d="M150.209 35.9221V38.162C150.496 38.1625 150.781 38.1062 151.047 37.9964C151.313 37.8866 151.554 37.7254 151.757 37.5222C151.961 37.3189 152.122 37.0774 152.231 36.8117C152.341 36.546 152.398 36.2613 152.397 35.9738C152.401 35.9074 152.401 35.8409 152.397 35.7745C152.268 34.4166 150.209 34.5568 150.209 35.9221Z" fill="#EDEEEF"/>
<path d="M150.209 38.162C150.496 38.1625 150.781 38.1062 151.047 37.9964C151.313 37.8866 151.554 37.7254 151.757 37.5222C151.961 37.3189 152.122 37.0775 152.232 36.8118C152.341 36.5461 152.398 36.2613 152.397 35.9738" stroke="black" stroke-width="0.738" stroke-miterlimit="10"/>
<path d="M141.652 39.8225C141.924 40.0936 142.292 40.2458 142.676 40.2458C143.06 40.2458 143.428 40.0936 143.7 39.8225" stroke="#8433C2" stroke-width="0.5535" stroke-miterlimit="10"/>
<path d="M139.884 39.0734L141.298 39.4203" stroke="black" stroke-width="0.738" stroke-miterlimit="10" stroke-linecap="round"/>
<path d="M135.895 30.5679C135.895 30.5679 136.135 26.9813 139.383 27.2027C142.63 27.4241 147.279 27.1288 147.648 30.0808C148.017 33.0328 149.154 35.3945 150.209 35.3945" stroke="black" stroke-width="0.738" stroke-miterlimit="10"/>
<path d="M135.582 34.8262C135.582 34.8262 124.084 13.9925 144.438 12.5165C164.792 11.0405 174.356 38.0033 151.316 42.1361" stroke="black" stroke-width="0.738" stroke-miterlimit="10"/>
<path d="M151.788 39.7412C151.788 40.0536 151.696 40.359 151.522 40.6187C151.349 40.8784 151.102 41.0808 150.813 41.2003C150.525 41.3199 150.207 41.3512 149.901 41.2902C149.594 41.2293 149.313 41.0789 149.092 40.858C148.871 40.6371 148.721 40.3557 148.66 40.0494C148.599 39.743 148.63 39.4254 148.75 39.1369C148.869 38.8483 149.072 38.6016 149.331 38.4281C149.591 38.2546 149.897 38.1619 150.209 38.1619" stroke="#8433C2" stroke-width="0.5535" stroke-miterlimit="10"/>
<path d="M135.582 40.9516C135.3 41.1911 134.941 41.322 134.571 41.3206C134.152 41.3206 133.75 41.1542 133.454 40.858C133.158 40.5618 132.991 40.1601 132.991 39.7413C132.991 39.3224 133.158 38.9207 133.454 38.6245C133.75 38.3284 134.152 38.162 134.571 38.162" stroke="#8433C2" stroke-width="0.5535" stroke-miterlimit="10"/>
<path d="M174.43 71.741V105.936L125.991 117.84V79.7594C125.991 73.1974 128.191 66.8247 132.239 61.6604C136.288 56.4961 141.951 52.8386 148.323 51.2726C151.427 50.51 154.663 50.4631 157.788 51.1355C160.912 51.808 163.842 53.1821 166.357 55.1539C168.873 57.1258 170.906 59.6438 172.305 62.5174C173.703 65.3911 174.43 68.5451 174.43 71.741Z" fill="#EDEEEF"/>
<path d="M174.43 105.936L125.991 117.84V192.736L199.607 181.142L174.43 105.936Z" fill="#8433C2"/>
<path d="M146.814 256.352L150.209 250.271L140.855 168.663" stroke="black" stroke-width="0.738" stroke-miterlimit="10"/>
<path d="M167.482 56.1028C167.482 56.1028 190.611 76.0841 175.459 104.029C160.308 131.973 111.497 92.0249 110.907 88.8774C110.316 85.7298 115.434 84.9401 119.763 87.3017C119.763 87.3017 119.172 84.0804 121.534 85.0029C123.895 85.9254 125.076 88.6929 125.076 88.6929L158.338 90.0729L154.006 71.7742" stroke="black" stroke-width="0.738" stroke-miterlimit="10"/>
<path d="M136.146 89.1393L121.534 50.6526L88.0803 59.7485L108.744 105.936L127.231 102.187" stroke="black" stroke-width="0.738" stroke-miterlimit="10"/>
<path d="M132.563 105.401C132.563 105.401 151.224 129.604 178.814 119.032L174.341 105.881C165.356 119.25 147.165 113.641 132.563 105.401Z" fill="black"/>
<path d="M135.895 57.778L127.209 65.5934" stroke="black" stroke-width="0.738" stroke-miterlimit="10"/>
<path d="M96.0028 77.4605C96.0028 77.4605 90.5379 97.9769 103.527 106.685C116.516 115.394 125.991 108.899 125.991 108.899" stroke="black" stroke-width="0.738" stroke-miterlimit="10"/>
<path d="M232.95 192.769V149.633C232.946 144.649 231.484 139.775 228.743 135.611C224.703 129.471 218.438 125.139 211.267 123.526L210.839 123.431C210.839 123.431 209.677 140.84 228.551 143.161" stroke="black" stroke-width="0.738" stroke-miterlimit="10"/>
<path d="M232.95 198.574V155.449C232.953 150.465 234.414 145.591 237.153 141.427C241.193 135.286 247.458 130.953 254.629 129.338L255.057 129.242C255.057 129.242 256.219 146.648 237.345 148.969" stroke="black" stroke-width="0.738" stroke-miterlimit="10"/>
<path d="M228.743 135.611C224.703 129.472 218.438 125.139 211.267 123.526L210.839 123.431C210.839 123.431 213.422 141.512 232.278 143.833L232.95 192.773V149.633C232.946 144.649 231.484 139.775 228.743 135.611Z" fill="#EDEEEF"/>
<path d="M255.057 129.231L254.628 129.327C247.459 130.94 241.194 135.271 237.153 141.408C234.414 145.572 232.953 150.446 232.95 155.43V198.574L234.02 148.124C252.879 145.803 255.057 129.231 255.057 129.231Z" fill="#EDEEEF"/>
<path d="M232.95 189.769V164.722C232.949 161.823 232.099 158.988 230.507 156.567C228.158 153.004 224.519 150.491 220.356 149.556L220.105 149.5C220.105 149.5 219.433 159.611 230.385 160.939" stroke="black" stroke-width="0.738" stroke-miterlimit="10"/>
<path d="M218.441 186.987H247.459V257.016H218.441V186.987Z" fill="#8433C2"/>
<path d="M37.4573 257.02H183.393" stroke="black" stroke-width="0.738" stroke-miterlimit="10"/>
<path d="M56.5014 191.061C79.3914 191.061 97.9475 172.505 97.9475 149.615C97.9475 126.725 79.3914 108.169 56.5014 108.169C33.6113 108.169 15.0553 126.725 15.0553 149.615C15.0553 172.505 33.6113 191.061 56.5014 191.061Z" fill="#8433C2"/>
<path d="M15.0626 149.633C15.0626 138.641 19.4292 128.099 27.2019 120.326C34.9745 112.554 45.5165 108.187 56.5087 108.187C67.5009 108.187 78.0429 112.554 85.8155 120.326C93.5882 128.099 97.9548 138.641 97.9548 149.633" stroke="black" stroke-width="0.738" stroke-miterlimit="10"/>
<path d="M38.8409 176.072H74.1579V206.05H38.8409V176.072Z" fill="#8433C2"/>
<path d="M38.8409 193.666H74.1579V206.046H38.8409V193.666Z" fill="black"/>
<path d="M56.5013 92.1578V102.062" stroke="black" stroke-width="0.738" stroke-miterlimit="10"/>
<path d="M41.6306 94.1171L44.1915 103.682" stroke="black" stroke-width="0.738" stroke-miterlimit="10"/>
<path d="M27.771 99.8551L32.723 108.434" stroke="black" stroke-width="0.738" stroke-miterlimit="10"/>
<path d="M15.8707 108.988L22.8743 115.991" stroke="black" stroke-width="0.738" stroke-miterlimit="10"/>
<path d="M6.74162 120.888L15.3172 125.84" stroke="black" stroke-width="0.738" stroke-miterlimit="10"/>
<path d="M1.00002 134.744L10.5682 137.309" stroke="black" stroke-width="0.738" stroke-miterlimit="10"/>
<path d="M102.434 137.309L112.003 134.744" stroke="black" stroke-width="0.738" stroke-miterlimit="10"/>
<path d="M97.6817 125.84L106.261 120.888" stroke="black" stroke-width="0.738" stroke-miterlimit="10"/>
<path d="M90.1246 115.991L97.1282 108.988" stroke="black" stroke-width="0.738" stroke-miterlimit="10"/>
<path d="M80.276 108.434L85.2279 99.8551" stroke="black" stroke-width="0.738" stroke-miterlimit="10"/>
<path d="M68.8075 103.682L71.372 94.1171" stroke="black" stroke-width="0.738" stroke-miterlimit="10"/>
</svg>
