<svg width="260" height="259" viewBox="0 0 260 259" fill="none" xmlns="http://www.w3.org/2000/svg">
<path d="M52.0163 226.675L59.4265 233.107L79.1828 207.844L88.0732 215.286L134.996 153.586L176.484 226.675L187.846 214.122L208.59 248.182H34.7311L52.0163 226.675Z" fill="#F4F4F4"/>
<path d="M214.821 248.182H28.5" stroke="black" stroke-width="0.627185" stroke-miterlimit="10"/>
<path d="M75.9497 120.352C75.9497 120.352 1.52476 214.843 134.347 211.457L139.615 215.972V184.265L94.1004 174.205L99.4472 115.877" fill="#8433C2"/>
<path d="M95.6935 156.829C81.9518 157.55 70.9447 175.876 70.9447 198.383C70.9447 198.878 70.9447 199.368 70.9635 199.857C81.0957 206.373 96.9478 210.767 120.825 211.46C121.692 207.158 122.124 202.78 122.117 198.392C122.15 192.097 121.246 185.832 119.436 179.803L94.1067 174.205L95.6935 156.829Z" fill="black"/>
<path d="M82.6449 121.995C82.6449 121.995 77.5804 204.655 91.8833 243.791L88.8979 248.182H114.337C114.337 248.182 117.118 143.043 117.118 120.352L82.6449 121.995Z" fill="#8433C2"/>
<path d="M101.975 58.041V68.7847L88.6659 72.0554V53.9267L101.975 50.6559V58.041Z" fill="#EDEEEF"/>
<path d="M94.4579 61.7571C94.6536 61.7571 94.8123 61.5984 94.8123 61.4027C94.8123 61.207 94.6536 61.0483 94.4579 61.0483C94.2622 61.0483 94.1035 61.207 94.1035 61.4027C94.1035 61.5984 94.2622 61.7571 94.4579 61.7571Z" fill="black"/>
<path d="M99.9207 61.7571C100.116 61.7571 100.275 61.5984 100.275 61.4027C100.275 61.207 100.116 61.0483 99.9207 61.0483C99.725 61.0483 99.5663 61.207 99.5663 61.4027C99.5663 61.5984 99.725 61.7571 99.9207 61.7571Z" fill="black"/>
<path d="M98.3182 63.5256V58.0409H101.065" stroke="black" stroke-width="0.627185" stroke-miterlimit="10"/>
<path d="M93.7868 58.0409H96.5339" stroke="black" stroke-width="0.627185" stroke-miterlimit="10"/>
<path d="M89.5439 60.8506V62.7541C89.2996 62.7545 89.0576 62.7067 88.8318 62.6134C88.606 62.5201 88.4008 62.3831 88.2281 62.2104C88.0553 62.0376 87.9183 61.8324 87.825 61.6066C87.7317 61.3808 87.6839 61.1388 87.6843 60.8945C87.6843 60.8381 87.6843 60.7816 87.6843 60.7252C87.7941 59.5712 89.5439 59.6903 89.5439 60.8506Z" fill="#EDEEEF"/>
<path d="M89.5439 62.7543C89.2996 62.7547 89.0576 62.7069 88.8318 62.6135C88.606 62.5202 88.4008 62.3833 88.2281 62.2105C88.0553 62.0378 87.9183 61.8326 87.825 61.6068C87.7317 61.381 87.6839 61.139 87.6843 60.8947" stroke="black" stroke-width="0.627185" stroke-miterlimit="10"/>
<path d="M97.1172 64.8773C96.6181 64.8773 96.1396 64.679 95.7867 64.3262C95.4338 63.9733 95.2356 63.4947 95.2356 62.9957" stroke="#8433C2" stroke-width="0.470389" stroke-miterlimit="10"/>
<path d="M101.975 68.7847L88.6659 72.0554" stroke="black" stroke-width="0.627185" stroke-miterlimit="10"/>
<path d="M98.3183 63.5288L97.1172 63.8236" stroke="black" stroke-width="0.627185" stroke-miterlimit="10" stroke-linecap="round"/>
<path d="M75.9497 91.2912V120.352L117.118 130.468V98.1056C117.118 92.5291 115.248 87.1136 111.808 82.7248C108.367 78.3361 103.555 75.2276 98.1395 73.8963C95.5017 73.2476 92.751 73.2074 90.0954 73.7786C87.4398 74.3498 84.9489 75.5175 82.8111 77.1933C80.6733 78.8691 78.9447 81.0092 77.756 83.4517C76.5672 85.8941 75.9496 88.5749 75.9497 91.2912Z" fill="#EDEEEF"/>
<path d="M82.6448 121.995C82.6448 121.995 77.5803 204.655 91.8833 243.791" stroke="black" stroke-width="0.627185" stroke-miterlimit="10"/>
<path d="M88.2236 59.9853C88.2236 59.9853 86.433 54.0615 89.2553 51.6155C92.0777 49.1695 104.559 49.7967 104.559 49.7967C104.559 49.7967 105.437 58.4518 92.5794 56.3821C92.5794 56.3821 92.3944 58.778 90.2588 59.2045" stroke="black" stroke-width="0.627185" stroke-miterlimit="10"/>
<path d="M105.951 77.3269C105.951 77.3269 124.723 89.372 121.21 121.995C117.698 154.618 69.6966 113.309 68.3576 110.298C67.0185 107.288 72.0391 104.779 78.2263 108.291C78.2263 108.291 75.7176 106.184 76.8873 105.898C78.057 105.613 80.4465 106.45 81.7605 109.128L110.84 114.478" stroke="black" stroke-width="0.627185" stroke-miterlimit="10"/>
<path d="M76.7869 106.494H47.7984L35.0885 77.1074" stroke="black" stroke-width="0.627185" stroke-miterlimit="10"/>
<path d="M36.8666 80.2778L81.773 55.943" stroke="#8433C2" stroke-width="0.470389" stroke-miterlimit="10"/>
<path d="M81.4908 78.3429C81.4908 78.3429 71.2019 88.0643 68.1569 106.494" stroke="black" stroke-width="0.627185" stroke-miterlimit="10"/>
<path d="M53.8194 106.494C53.8194 106.494 61.1857 127.357 69.7342 129.405" stroke="black" stroke-width="0.627185" stroke-miterlimit="10"/>
<path d="M65.3596 106.494C65.3596 106.494 61.7345 101.433 59.3198 100.263C56.9052 99.0933 49.6392 101.768 50.558 103.023C51.4769 104.277 53.1515 103.609 53.1515 103.609C53.1515 103.609 52.7344 104.863 53.487 105.196" stroke="black" stroke-width="0.627185" stroke-miterlimit="10"/>
<path d="M213.912 37.3814C213.912 37.2842 213.912 37.1901 213.912 37.0929C213.909 34.8266 213.328 32.5984 212.225 30.6186C211.122 28.6389 209.533 26.9728 207.607 25.7778C205.682 24.5827 203.483 23.8981 201.22 23.7885C198.956 23.6789 196.702 24.1479 194.67 25.1513C191.415 20.4071 186.778 16.7815 181.388 14.7685C175.999 12.7555 170.12 12.4529 164.553 13.9021C158.985 15.3512 154 18.4815 150.276 22.8666C146.552 27.2516 144.27 32.6782 143.742 38.4069C138.694 40.0943 134.304 43.3249 131.191 47.6424C128.078 51.9599 126.4 57.1462 126.394 62.4688C126.394 69.2056 129.07 75.6664 133.834 80.43C138.598 85.1936 145.058 87.8698 151.795 87.8698H210.064C216.801 87.8698 223.261 85.1936 228.025 80.43C232.789 75.6664 235.465 69.2056 235.465 62.4688C235.46 56.4024 233.284 50.538 229.331 45.9365C225.378 41.3351 219.908 38.3004 213.912 37.3814Z" fill="#EDEEEF"/>
<path d="M194.67 25.1514C192.101 21.4036 188.658 18.3385 184.638 16.2217C180.618 14.1048 176.142 12.9999 171.599 13.0028" stroke="black" stroke-width="0.627185" stroke-miterlimit="10"/>
<path d="M213.915 37.0898C213.915 35.3388 213.57 33.6049 212.9 31.9871C212.23 30.3694 211.247 28.8995 210.009 27.6613C208.771 26.4231 207.301 25.4409 205.683 24.7708C204.066 24.1007 202.332 23.7559 200.581 23.7559" stroke="black" stroke-width="0.627185" stroke-miterlimit="10"/>
<path d="M151.786 87.8699H210.064C216.801 87.8699 223.261 85.1937 228.025 80.4301C232.789 75.6665 235.465 69.2056 235.465 62.4689" stroke="black" stroke-width="0.627185" stroke-miterlimit="10"/>
<path d="M194.422 117.04H167.431V90.0493H194.422V117.04Z" fill="black"/>
<path d="M201.823 92.0846L180.925 71.1899L160.03 92.0846H201.823Z" fill="black"/>
<path d="M194.422 170.113H167.431V143.122H194.422V170.113Z" fill="#EDEEEF"/>
<path d="M201.822 145.157L180.925 124.262L160.03 145.157H201.822Z" fill="#EDEEEF"/>
<path d="M194.606 223.073L167.616 223.275L167.414 196.285L194.404 196.082L194.606 223.073Z" fill="#EDEEEF"/>
<path d="M201.804 198.073L180.752 177.335L160.014 198.386L201.804 198.073Z" fill="#EDEEEF"/>
</svg>
