<svg width="290" height="274" viewBox="0 0 290 274" fill="none" xmlns="http://www.w3.org/2000/svg">
<path d="M69.5249 60.0173L1 84.244L69.5249 108.471L138.05 84.244L69.5249 60.0173Z" fill="black"/>
<path d="M1 84.244L69.5249 108.471L138.05 84.244" stroke="black" stroke-width="0.765837" stroke-miterlimit="10"/>
<path d="M69.5249 30.0107L1 54.2333L69.5249 78.4599L138.05 54.2333L69.5249 30.0107Z" fill="#EDEEEF"/>
<path d="M1 54.2333L69.5249 78.4599L138.05 54.2333" stroke="black" stroke-width="0.765837" stroke-miterlimit="10"/>
<path d="M69.5249 0L1 24.2266L69.5249 48.4492L138.05 24.2266L69.5249 0Z" fill="#8433C2"/>
<path d="M1 24.2267L69.5249 48.4492L138.05 24.2267" stroke="black" stroke-width="0.765837" stroke-miterlimit="10"/>
<path d="M33.1499 245.113L42.8711 253.551L68.7885 220.409L80.4513 230.172L142.007 149.231L196.434 245.113L211.339 228.645L238.552 273.326H10.4742L33.1499 245.113Z" fill="#F4F4F4"/>
<path d="M246.726 273.326H2.29993" stroke="black" stroke-width="0.765837" stroke-miterlimit="10"/>
<path d="M182.805 105.632C182.805 105.632 138.548 181.476 123.738 256.509L118.303 259.718L144.402 268.357C144.402 268.357 202.222 181.142 205.698 170.08C209.175 159.018 203.23 105.624 203.23 105.624" fill="#8433C2"/>
<path d="M194.266 139.95C194.266 139.95 187.161 176.358 189.107 199.095C196.557 187.112 202.609 176.934 204.863 172.047L194.266 139.95Z" fill="black"/>
<path d="M195.607 23.8894V37.9835L213.066 42.2743V18.4919L195.607 14.2012V23.8894Z" fill="#EDEEEF"/>
<path d="M205.468 28.7642C205.725 28.7642 205.933 28.5561 205.933 28.2993C205.933 28.0426 205.725 27.8345 205.468 27.8345C205.211 27.8345 205.003 28.0426 205.003 28.2993C205.003 28.5561 205.211 28.7642 205.468 28.7642Z" fill="black"/>
<path d="M198.302 28.7642C198.558 28.7642 198.767 28.5561 198.767 28.2993C198.767 28.0426 198.558 27.8345 198.302 27.8345C198.045 27.8345 197.837 28.0426 197.837 28.2993C197.837 28.5561 198.045 28.7642 198.302 28.7642Z" fill="black"/>
<path d="M200.404 31.0845V23.8893H196.8" stroke="black" stroke-width="0.765837" stroke-miterlimit="10"/>
<path d="M206.348 23.8893H202.745" stroke="black" stroke-width="0.765837" stroke-miterlimit="10"/>
<path d="M211.914 27.5753V30.0724C212.235 30.073 212.552 30.0102 212.849 29.8878C213.145 29.7654 213.414 29.5857 213.641 29.3591C213.867 29.1325 214.047 28.8633 214.169 28.5671C214.292 28.2709 214.354 27.9534 214.354 27.6329C214.358 27.5589 214.358 27.4847 214.354 27.4107C214.21 25.8968 211.914 26.0531 211.914 27.5753Z" fill="#EDEEEF"/>
<path d="M211.915 30.0725C212.235 30.073 212.553 30.0103 212.849 29.8879C213.145 29.7655 213.414 29.5858 213.641 29.3592C213.867 29.1325 214.047 28.8634 214.17 28.5671C214.292 28.2709 214.355 27.9535 214.354 27.6329" stroke="black" stroke-width="0.765837" stroke-miterlimit="10"/>
<path d="M209.804 41.472L213.066 42.2743" stroke="black" stroke-width="0.765837" stroke-miterlimit="10"/>
<path d="M200.404 31.0886L201.98 31.4753" stroke="black" stroke-width="0.765837" stroke-miterlimit="10" stroke-linecap="round"/>
<path d="M195.607 27.8304C195.607 27.8304 192.102 38.1151 196.8 41.4721C201.498 44.829 215.461 42.8626 211.688 29.0852" stroke="black" stroke-width="0.765837" stroke-miterlimit="10"/>
<path d="M197.701 31.2736C197.637 31.3772 197.601 31.4955 197.596 31.6171C197.591 31.7387 197.618 31.8595 197.673 31.9679C197.728 32.0763 197.811 32.1685 197.912 32.2357C198.014 32.3029 198.131 32.3428 198.252 32.3515C199.26 32.5736 200.787 30.5866 202.107 31.6686C202.107 31.6686 202.403 30.1423 205.694 31.0556C208.985 31.9689 207.85 29.7968 207.85 29.7968" stroke="black" stroke-width="0.765837" stroke-miterlimit="10"/>
<path d="M201.696 33.0427C201.991 33.1807 202.311 33.2589 202.637 33.2725C202.963 33.2861 203.288 33.2351 203.594 33.1222C203.9 33.0094 204.181 32.837 204.42 32.615C204.659 32.3931 204.852 32.126 204.987 31.8291" stroke="#8433C2" stroke-width="0.574377" stroke-miterlimit="10"/>
<path d="M194.352 18.9238C194.352 18.9238 195.533 24.0168 206.348 20.9808C206.348 20.9808 207.002 23.7494 208.862 23.8605C210.721 23.9716 210.647 25.8475 210.647 25.8475" stroke="black" stroke-width="0.765837" stroke-miterlimit="10"/>
<path d="M195.607 23.8893C195.607 23.8893 184.319 14.1518 197.578 13.654C210.837 13.1562 218.015 17.2742 213.136 26.3535" stroke="black" stroke-width="0.765837" stroke-miterlimit="10"/>
<path d="M182.805 67.5087V105.632L236.808 118.903V76.4482C236.808 69.1324 234.356 62.0277 229.842 56.2702C225.329 50.5127 219.015 46.4349 211.91 44.6891C208.45 43.8388 204.842 43.7866 201.359 44.5363C197.876 45.286 194.609 46.8179 191.805 49.0163C189.001 51.2147 186.733 54.0219 185.174 57.2256C183.615 60.4294 182.805 63.9457 182.805 67.5087Z" fill="#EDEEEF"/>
<path d="M236.808 118.903L194.352 108.471C194.352 108.471 191.473 211.68 208.257 267.731L205.468 273.326H233.298C233.298 273.326 238.84 141.484 236.808 118.903Z" fill="#8433C2"/>
<path d="M194.352 108.471C194.352 108.471 191.473 211.68 208.257 267.731" stroke="black" stroke-width="0.765837" stroke-miterlimit="10"/>
<path d="M219.875 47.7991C219.875 47.7991 252.374 66.978 251.371 98.9017C250.367 130.825 227.346 143.652 227.346 143.652" stroke="black" stroke-width="0.765837" stroke-miterlimit="10"/>
<path d="M218.789 126.049C218.789 126.049 223.561 143.492 231.624 147.112" stroke="black" stroke-width="0.765837" stroke-miterlimit="10"/>
<path d="M214.354 80.0312L231.624 101.094L219.221 127.493" stroke="black" stroke-width="0.765837" stroke-miterlimit="10"/>
<path d="M220.327 125.165L231.636 101.095L218.394 84.9393C218.394 84.9393 226.449 109.096 220.327 125.165Z" fill="black"/>
<path d="M188.77 51.8595L165.613 70.1869C165.613 70.1869 138.938 36.198 133.043 34.3961C127.148 32.5942 119.973 36.3708 119.973 36.3708V38.6046L126.798 39.8388C126.798 39.8388 125.807 47.7991 130.147 51.5016C130.147 51.5016 143.612 100.716 163.827 100.868C177.65 100.975 182.805 97.141 182.805 97.141" stroke="black" stroke-width="0.765837" stroke-miterlimit="10"/>
<path d="M144.55 273.326H290" stroke="black" stroke-width="0.765837" stroke-miterlimit="10"/>
<path d="M272.8 272.183C272.8 272.183 275.305 267.748 268.941 266.785C265.162 266.2 261.295 266.667 257.764 268.135C257.764 268.135 262.199 262.737 255.258 260.421C248.318 258.105 241.185 263.506 241.185 263.506C241.185 263.506 248.125 250.589 242.728 249.626C237.33 248.663 234.438 254.254 234.438 254.254C234.438 254.254 235.014 238.251 223.832 237.865C212.651 237.478 213.811 258.302 213.811 258.302C213.811 258.302 208.99 249.046 200.893 248.664C192.797 248.281 196.845 264.165 196.845 264.165C196.845 264.165 195.303 260.421 189.905 260.051C184.508 259.68 184.886 264.189 184.886 264.189C184.886 264.189 177.954 254.443 170.237 255.024C162.519 255.604 165.802 265.242 165.802 265.242C157.895 264.662 156.151 273.326 156.151 273.326H278.391L272.8 272.183Z" fill="black"/>
</svg>
