<svg width="270" height="269" viewBox="0 0 270 269" fill="none" xmlns="http://www.w3.org/2000/svg">
<g clip-path="url(#clip0_154_16184)">
<path d="M166.431 144.593C195.583 144.593 219.215 120.961 219.215 91.81C219.215 62.6587 195.583 39.0269 166.431 39.0269C137.28 39.0269 113.648 62.6587 113.648 91.81C113.648 120.961 137.28 144.593 166.431 144.593Z" fill="#EDEEEF"/>
<path d="M166.431 144.593C195.583 144.593 219.215 120.961 219.215 91.81C219.215 62.6587 195.583 39.0269 166.431 39.0269C137.28 39.0269 113.648 62.6587 113.648 91.81C113.648 120.961 137.28 144.593 166.431 144.593Z" stroke="black" stroke-width="0.689209" stroke-miterlimit="10"/>
<path d="M147.244 25.7043H185.619V157.915H147.244V25.7043Z" fill="#EDEEEF"/>
<path d="M99.59 75.3728L118.778 42.139L233.276 108.244L214.088 141.478L99.59 75.3728Z" fill="#EDEEEF"/>
<path d="M118.774 141.475L99.5865 108.241L214.085 42.1356L233.272 75.3694L118.774 141.475Z" fill="#EDEEEF"/>
<path d="M166.431 105.005C173.719 105.005 179.626 99.0972 179.626 91.8098C179.626 84.5225 173.719 78.6149 166.431 78.6149C159.144 78.6149 153.236 84.5225 153.236 91.8098C153.236 99.0972 159.144 105.005 166.431 105.005Z" fill="#8433C2"/>
<path d="M153.236 91.8098C153.239 88.3121 154.631 84.9585 157.105 82.4863C159.579 80.014 162.934 78.6252 166.431 78.6252" stroke="black" stroke-width="0.689209" stroke-miterlimit="10"/>
<path d="M124.176 239.556C119.627 192 91.3869 121.642 91.3869 121.642L66.6995 106.411L69.4287 144.445L73.1057 180.756L104.33 251L132.864 242.04L124.176 239.556Z" fill="#EDEEEF"/>
<path d="M84.0296 112.335C84.0296 112.335 89.595 203.169 73.8776 246.176L77.1582 251H49.1935C49.1935 251 46.1369 135.464 46.1369 110.529L84.0296 112.335Z" fill="#EDEEEF"/>
<path d="M74.105 42.056V53.8622L59.4799 57.4564V37.5348L74.105 33.9406V42.056Z" fill="#EDEEEF"/>
<path d="M65.8448 46.1394C66.0599 46.1394 66.2342 45.965 66.2342 45.75C66.2342 45.5349 66.0599 45.3606 65.8448 45.3606C65.6298 45.3606 65.4554 45.5349 65.4554 45.75C65.4554 45.965 65.6298 46.1394 65.8448 46.1394Z" fill="black"/>
<path d="M71.8478 46.1394C72.0629 46.1394 72.2372 45.965 72.2372 45.75C72.2372 45.5349 72.0629 45.3606 71.8478 45.3606C71.6328 45.3606 71.4584 45.5349 71.4584 45.75C71.4584 45.965 71.6328 46.1394 71.8478 46.1394Z" fill="black"/>
<path d="M70.0868 48.0828V42.0557H73.1056" stroke="black" stroke-width="0.689209" stroke-miterlimit="10"/>
<path d="M65.1073 42.0557H68.1261" stroke="black" stroke-width="0.689209" stroke-miterlimit="10"/>
<path d="M60.4449 45.1436V47.2353C60.1764 47.2358 59.9105 47.1832 59.6623 47.0807C59.4142 46.9781 59.1888 46.8276 58.9989 46.6378C58.8091 46.4479 58.6586 46.2225 58.556 45.9744C58.4535 45.7262 58.4009 45.4603 58.4014 45.1918C58.398 45.1298 58.398 45.0677 58.4014 45.0057C58.522 43.7376 60.4449 43.8685 60.4449 45.1436Z" fill="#EDEEEF"/>
<path d="M60.4448 47.2352C60.1763 47.2357 59.9104 47.1832 59.6623 47.0806C59.4141 46.9781 59.1887 46.8276 58.9988 46.6377C58.809 46.4479 58.6585 46.2224 58.5559 45.9743C58.4534 45.7262 58.4009 45.4602 58.4013 45.1917" stroke="black" stroke-width="0.689209" stroke-miterlimit="10"/>
<path d="M68.767 49.5681C68.2187 49.5681 67.6928 49.3503 67.305 48.9626C66.9172 48.5748 66.6994 48.0489 66.6994 47.5005" stroke="#8433C2" stroke-width="0.516907" stroke-miterlimit="10"/>
<path d="M74.1049 53.862L59.4799 57.4563" stroke="black" stroke-width="0.689209" stroke-miterlimit="10"/>
<path d="M70.0869 48.0863L68.767 48.4102" stroke="black" stroke-width="0.689209" stroke-miterlimit="10" stroke-linecap="round"/>
<path d="M74.6012 36.928C74.6012 36.928 70.9588 39.6401 63.6979 38.813C63.6979 38.813 63.6979 43.5996 61.1272 45.0642" stroke="black" stroke-width="0.689209" stroke-miterlimit="10"/>
<path d="M74.6012 43.0897C74.6012 43.0897 80.5318 35.3705 71.9546 33.2099C63.3774 31.0492 59.4248 35.2775 59.4248 35.2775C59.4248 35.2775 51.3128 36.6111 59.9176 51.4532" stroke="black" stroke-width="0.689209" stroke-miterlimit="10"/>
<path d="M46.1472 78.5942V110.529L91.3869 121.646V86.0825C91.3868 79.9545 89.3322 74.0034 85.5514 69.1807C81.7707 64.358 76.4822 60.942 70.5314 59.479C67.6328 58.7662 64.6101 58.722 61.6918 59.3497C58.7736 59.9774 56.0363 61.2606 53.6872 63.1021C51.338 64.9437 49.4384 67.2954 48.1321 69.9794C46.8258 72.6634 46.1471 75.6093 46.1472 78.5942Z" fill="#8433C2"/>
<path d="M84.0296 112.334C84.0296 112.334 89.5949 203.169 73.8775 246.175" stroke="black" stroke-width="0.689209" stroke-miterlimit="10"/>
<path d="M50.8958 65.768C50.8958 65.768 26.2497 98.4675 36.3811 117.755C46.5125 137.043 95.3774 108.013 95.9287 102.868C96.4801 97.7232 84.9841 100.477 84.9841 100.477C84.9841 100.477 86.3625 91.1034 80.5042 100.294L58.4151 102.682L65.5794 85.407" stroke="black" stroke-width="0.689209" stroke-miterlimit="10"/>
<path d="M60.8032 96.8893L58.391 102.682L74.932 100.89C71.1103 98.8743 66.2307 97.451 60.8032 96.8893Z" fill="black"/>
<path d="M46.2851 124.089C46.323 126.556 46.3678 129.217 46.416 132.039C58.0878 131.946 73.2607 125.633 80.1115 118.875L80.3665 118.617C80.3871 118.592 80.4113 118.572 80.4354 118.548C80.5491 118.431 80.6594 118.31 80.78 118.203L80.842 118.138C80.9523 118.016 81.0591 117.895 81.1625 117.776L81.2142 117.717C81.321 117.593 81.4244 117.473 81.5243 117.348L81.5657 117.297C81.6691 117.173 81.7656 117.045 81.8586 116.921L81.8931 116.876C81.9896 116.749 82.0826 116.621 82.1722 116.49L82.1963 116.456C82.2859 116.325 82.3721 116.194 82.4548 116.063L82.472 116.039C82.5582 115.905 82.6374 115.77 82.7167 115.639V115.622L82.9372 115.215C83.0096 115.078 83.0751 114.943 83.1371 114.805C83.4588 114.116 83.6582 113.375 83.7264 112.617C72.8507 118.944 57.023 125.536 46.2851 124.089Z" fill="black"/>
<path d="M78.2298 100.539L78.5917 99.4221C79.0243 98.0954 79.8118 96.9124 80.8687 96.0012C81.9257 95.0901 83.2118 94.4855 84.5878 94.2531L99.7504 91.6995C100.944 91.5013 102.169 91.7008 103.237 92.2675C104.306 92.8342 105.159 93.7365 105.664 94.8354C105.688 94.888 105.729 94.9314 105.78 94.9593C105.83 94.9872 105.889 94.9981 105.946 94.9905L137.633 90.2625L138.032 88.9048C138.114 88.6312 138.29 88.3955 138.529 88.2402C138.769 88.0848 139.056 88.0199 139.339 88.0571L145.752 88.8979C146.023 88.9331 146.272 89.0659 146.452 89.2714C146.632 89.477 146.731 89.7411 146.73 90.0144V90.7863C146.727 91.01 146.658 91.2278 146.531 91.4119C146.404 91.596 146.225 91.7381 146.017 91.8202L140.614 93.9498C140.255 94.0914 139.861 94.1143 139.489 94.015C139.117 93.9158 138.786 93.6996 138.546 93.3984L137.902 92.5955L106.198 98.0885C106.158 98.0957 106.119 98.1118 106.086 98.1356C106.052 98.1595 106.025 98.1905 106.005 98.2264L105.888 98.4503C104.869 100.365 103.431 102.024 101.682 103.305C99.9325 104.586 97.9164 105.456 95.784 105.849L92.8686 106.387" stroke="black" stroke-width="0.689209" stroke-miterlimit="10"/>
<path d="M76.5999 61.7569C76.5999 61.7569 89.5398 67.2706 108.562 94.2428" stroke="black" stroke-width="0.689209" stroke-miterlimit="10"/>
<path d="M91.387 113.344C91.387 113.344 113.387 121.063 119.452 115.364C125.517 109.664 127.357 94.2429 127.357 94.2429" stroke="black" stroke-width="0.689209" stroke-miterlimit="10"/>
<path d="M127.357 91.81C127.357 91.81 128.687 78.56 128.549 74.7004C128.549 74.7004 130.827 75.941 132.86 75.2518C132.86 75.2518 134.201 77.4572 135.165 77.3194C136.13 77.1815 135.717 72.6328 131.995 67.9461C128.273 63.2595 111.694 63.2905 106.839 91.81" stroke="black" stroke-width="0.689209" stroke-miterlimit="10"/>
<path d="M53.1806 219.644C51.9745 216.274 48.4492 220.723 48.4492 220.723C48.4492 220.723 52.6982 211.698 48.4492 209.651C46.354 208.641 45.2513 209.83 44.6585 211.291C46.833 198.169 47.3017 172.857 38.528 171.975C28.9446 171.01 32.2252 195.329 32.2252 195.329C32.2252 195.329 29.5752 188.347 26.205 191.476C22.8347 194.605 29.334 215.068 29.334 215.068C28.6138 212.904 24.7611 211.215 23.3172 215.068C21.8733 218.921 27.4076 227.105 27.4076 227.105L46.4367 230.251C46.4367 230.251 54.3833 223.015 53.1806 219.644Z" fill="black"/>
<path d="M51.7642 250.459H24.5301L18.5064 226.123H57.7879L51.7642 250.459Z" fill="#8433C2"/>
<path d="M-5.83299 250.459H84.9841" stroke="black" stroke-width="0.689209" stroke-miterlimit="10"/>
<path d="M18.5064 226.123H57.7844" stroke="black" stroke-width="0.689209" stroke-miterlimit="10"/>
<path d="M271.967 250.459H172.052L210.358 165.19H271.967V250.459Z" fill="black"/>
<path d="M130.727 238.277H195.888V250.459H130.727V238.277Z" fill="#EDEEEF"/>
<path d="M141.606 226.099H206.767V238.28H141.606V226.099Z" fill="#EDEEEF"/>
<path d="M152.485 213.917H217.647V226.099H152.485V213.917Z" fill="#EDEEEF"/>
<path d="M163.364 201.735H228.526V213.917H163.364V201.735Z" fill="#EDEEEF"/>
<path d="M174.247 189.553H239.408V201.735H174.247V189.553Z" fill="#EDEEEF"/>
<path d="M185.126 177.372H250.287V189.554H185.126V177.372Z" fill="#EDEEEF"/>
<path d="M196.005 165.19H261.167V177.372H196.005V165.19Z" fill="#EDEEEF"/>
<path d="M130.727 238.277H195.885V250.459H130.727" stroke="black" stroke-width="0.689209" stroke-miterlimit="10"/>
<path d="M141.606 226.099H206.764V238.277H141.606" stroke="black" stroke-width="0.689209" stroke-miterlimit="10"/>
<path d="M152.485 213.917H217.646V226.099H152.485" stroke="black" stroke-width="0.689209" stroke-miterlimit="10"/>
<path d="M163.364 201.735H228.526V213.917H163.364" stroke="black" stroke-width="0.689209" stroke-miterlimit="10"/>
<path d="M174.247 189.553H239.405V201.735H174.247" stroke="black" stroke-width="0.689209" stroke-miterlimit="10"/>
<path d="M185.126 177.372H250.287V189.554" stroke="black" stroke-width="0.689209" stroke-miterlimit="10"/>
<path d="M196.005 165.19H261.167V177.372H196.005" stroke="black" stroke-width="0.689209" stroke-miterlimit="10"/>
<path d="M126.86 250.459H275.833" stroke="black" stroke-width="0.689209" stroke-miterlimit="10"/>
</g>
<defs>
<clipPath id="clip0_154_16184">
<rect width="269" height="269" fill="white" transform="translate(0.5)"/>
</clipPath>
</defs>
</svg>
