<svg width="256" height="256" viewBox="0 0 256 256" fill="none" xmlns="http://www.w3.org/2000/svg">
<g clip-path="url(#clip0_154_16182)">
<path d="M123.665 94.7485L99.375 96.3057L127.389 146.04L106.37 204.063L133.333 221.233L133.073 212.648C133.073 212.648 151.368 192.813 165.282 148.112C179.195 103.411 123.665 94.7485 123.665 94.7485Z" fill="#EDEEEF"/>
<path d="M144.165 140.119L127.587 137.159L123.404 138.961L127.389 146.04L123.058 157.994C123.058 157.994 140.779 165.196 150.725 184.752C151.544 183.11 152.374 181.389 153.215 179.589C150.536 165.016 144.165 140.119 144.165 140.119Z" fill="black"/>
<path d="M221.508 86.5038H144.213L149.515 40.1327H226.81L221.508 86.5038Z" fill="#EDEEEF"/>
<path d="M218.438 82.5488H141.146L146.445 36.1777H223.74L218.438 82.5488Z" stroke="black" stroke-width="0.592072" stroke-miterlimit="10"/>
<path d="M185.08 100.127L187.09 82.5488H174.728L172.718 100.127H185.08Z" fill="black"/>
<path d="M186.596 202.879C186.596 202.879 181.176 97.9575 109.236 98.295L75.0882 106.688C75.0882 106.688 66.5978 153.245 137.644 150.581L163.399 217.189L191.371 207.42L186.596 202.879Z" fill="#EDEEEF"/>
<path d="M186.596 202.879C186.596 202.879 181.176 97.9575 109.236 98.295" stroke="black" stroke-width="0.592072" stroke-miterlimit="10"/>
<path d="M75.0882 106.688C75.0882 106.688 66.5978 153.245 137.644 150.581L163.399 217.189" stroke="black" stroke-width="0.592072" stroke-miterlimit="10"/>
<path d="M107.229 21.222V33.8983L91.5241 37.7556V16.3641L107.229 12.5067V21.222Z" fill="#EDEEEF"/>
<path d="M98.3566 25.6062C98.5888 25.6062 98.777 25.418 98.777 25.1859C98.777 24.9537 98.5888 24.7655 98.3566 24.7655C98.1245 24.7655 97.9362 24.9537 97.9362 25.1859C97.9362 25.418 98.1245 25.6062 98.3566 25.6062Z" fill="black"/>
<path d="M104.807 25.6062C105.039 25.6062 105.228 25.418 105.228 25.1859C105.228 24.9537 105.039 24.7655 104.807 24.7655C104.575 24.7655 104.387 24.9537 104.387 25.1859C104.387 25.418 104.575 25.6062 104.807 25.6062Z" fill="black"/>
<path d="M102.916 27.6903V21.2219H106.157" stroke="black" stroke-width="0.592072" stroke-miterlimit="10"/>
<path d="M97.5662 21.2219H100.808" stroke="black" stroke-width="0.592072" stroke-miterlimit="10"/>
<path d="M92.5602 24.5376V26.7845C91.9776 26.7845 91.4189 26.5531 91.007 26.1411C90.595 25.7292 90.3636 25.1705 90.3636 24.5879C90.3636 24.5198 90.3636 24.4547 90.3636 24.3896C90.4968 23.0248 92.5602 23.1669 92.5602 24.5376Z" fill="#EDEEEF"/>
<path d="M92.5602 26.7845C91.9776 26.7845 91.4189 26.553 91.007 26.1411C90.595 25.7292 90.3636 25.1705 90.3636 24.5879" stroke="black" stroke-width="0.592072" stroke-miterlimit="10"/>
<path d="M101.497 29.2861C101.206 29.2865 100.917 29.2293 100.647 29.1179C100.377 29.0065 100.132 28.843 99.9256 28.6368C99.7191 28.4306 99.5553 28.1857 99.4436 27.9161C99.3318 27.6466 99.2743 27.3576 99.2743 27.0658" stroke="#8433C2" stroke-width="0.592072" stroke-miterlimit="10"/>
<path d="M107.229 33.8982L91.524 37.7555" stroke="black" stroke-width="0.592072" stroke-miterlimit="10"/>
<path d="M102.916 27.6963L101.497 28.0456" stroke="black" stroke-width="0.592072" stroke-miterlimit="10" stroke-linecap="round"/>
<path d="M123.665 60.4556V94.7484L75.0882 106.688V68.4989C75.0882 61.9172 77.2951 55.5257 81.3561 50.3462C85.4171 45.1668 91.0976 41.4987 97.4892 39.9284C100.602 39.1641 103.847 39.1175 106.98 39.792C110.113 40.4666 113.052 41.8447 115.574 43.8221C118.096 45.7996 120.136 48.3246 121.538 51.2062C122.941 54.0878 123.67 57.2507 123.671 60.4556H123.665Z" fill="#8433C2"/>
<path d="M92.726 24.1452C93.9937 22.5883 94.8967 20.7674 95.3688 18.8159C95.3688 18.8159 105.176 22.0478 109.197 16.6344C111.02 14.1786 110.172 11.7851 109.318 10.3702C109.255 10.2598 109.164 10.1677 109.054 10.1029C108.945 10.038 108.82 10.0027 108.693 10.0001C108.565 9.99763 108.44 10.0281 108.327 10.0886C108.215 10.149 108.121 10.2374 108.053 10.3452C107.654 11.0402 106.719 11.6137 104.522 10.7909C100.826 9.40405 93.128 9.85595 91.9001 14.5307C91.9001 14.5307 86.4462 16.0485 91.1335 24.2106" stroke="black" stroke-width="0.623303" stroke-miterlimit="10"/>
<path d="M120.65 104.882H232" stroke="black" stroke-width="0.623303" stroke-miterlimit="10"/>
<path d="M86.5834 46.9082C86.5834 46.9082 65.5033 64.2204 60.2052 92.2005C54.9071 120.181 96.9177 113.455 116.926 105.221" stroke="black" stroke-width="0.623303" stroke-miterlimit="10"/>
<path d="M82.4883 90.5393C82.4883 90.5393 130.015 82.1247 133.287 102.949" stroke="black" stroke-width="0.623303" stroke-miterlimit="10"/>
<path d="M118.465 46.9082C118.465 46.9082 133.381 62.3007 137.314 90.5394C137.314 90.5394 152.442 91.0599 153.046 102.949" stroke="black" stroke-width="0.623303" stroke-miterlimit="10"/>
<path d="M77.7823 56.0302C77.7823 56.0302 71.0039 41.956 65.3942 54.1104C59.7844 66.2649 35.2731 146.359 61.1401 159.76C87.0072 173.161 124.832 165.8 124.832 165.8" stroke="black" stroke-width="0.623303" stroke-miterlimit="10"/>
<path d="M96.2477 167.816V258.018H65.3942" stroke="black" stroke-width="0.623303" stroke-miterlimit="10"/>
</g>
<defs>
<clipPath id="clip0_154_16182">
<rect width="256" height="256" fill="white"/>
</clipPath>
</defs>
</svg>
