<svg width="314" height="188" viewBox="0 0 314 188" fill="none" xmlns="http://www.w3.org/2000/svg">
<g clip-path="url(#clip0_241_790)">
<path d="M99 108C99 104.557 96.5 103 94 103C91.5 103 89 104.557 89 108C89 111.443 91.5 113 94 113C96.5 113 99 111.443 99 108Z" fill="white"/>
<path d="M45.3866 108.866C43.3697 109.063 43 109.732 43 110.835C43 112.409 44.479 113 45.8908 113C48.4454 113 51 111.583 51 108.906V108C50.1261 108.354 49.2521 108.551 48.3445 108.591L45.3866 108.866Z" fill="white"/>
<path d="M146.194 116.522V106.483C146.194 104.34 145.108 103.325 142.748 103.325C140.688 103.325 138.253 104.152 138.253 107.912V116.522H131.923V98.7H138.103V100.693C139.976 99.076 142.374 98.2112 144.846 98.2488C146.119 98.2488 150.24 98.5496 151.888 101.783C151.963 100.73 152 99.64 152 98.512C152 87.42 147.58 75.8392 138.478 65.3112C125.967 50.8352 100.16 42.8264 76 0C51.8403 42.864 26.0325 50.8728 13.5219 65.3112C4.41991 75.8392 0 87.42 0 98.512C0 142.504 41.5771 150.776 61.0172 147.655C72.067 145.888 73.79 156.642 73.79 160.778V188H78.1725V160.778C78.1725 156.642 79.8955 145.85 90.9453 147.655C107.351 150.287 139.564 144.76 149.153 116.522H146.194ZM58.2454 116.522H52.3647L52.2898 116.297C52.1774 115.883 52.0651 115.47 51.9901 115.056C49.518 117.011 45.4352 117.162 44.1991 117.162C38.9926 117.162 36.2208 115.131 36.2208 111.258C36.2208 106.671 40.4534 105.844 43.6747 105.656L49.6678 105.242C51.4283 105.092 51.653 104.829 51.653 103.814C51.653 102.949 51.1661 102.159 47.5702 102.159C45.1355 102.159 44.1617 102.347 43.45 104.49L43.3751 104.716H37.2321L37.2696 104.302C37.9813 98.8504 43.0005 98.136 47.795 98.136C54.8369 98.136 57.9832 100.054 57.9832 104.302V112.8C57.9458 113.928 58.1705 115.056 58.5826 116.109L58.8073 116.598L58.2454 116.522ZM70.1193 117.162C63.4894 117.162 60.1932 115.094 59.8561 110.882V110.506H66.6358L66.6732 110.807C66.8605 111.86 67.4598 112.95 70.4564 112.95C71.8048 112.95 74.0897 112.762 74.0897 111.446C74.0897 110.807 73.9773 110.469 71.243 110.055L66.2238 109.341C63.1898 108.927 60.3805 108.025 60.3805 104.152C60.3805 101.37 62.0286 98.0608 69.932 98.0608C76.6742 98.0608 79.7457 99.8656 80.2326 104.152L80.2701 104.528H73.5278L73.4904 104.227C73.1533 102.422 71.0182 102.234 70.0818 102.234C67.8344 102.234 66.7856 102.686 66.7856 103.701C66.7856 104.152 66.7856 104.678 69.2578 104.942L73.0784 105.355C78.5845 105.957 80.8319 107.574 80.8319 110.958C80.8694 116.522 74.7265 117.162 70.1193 117.162ZM95.5525 117.162C92.8181 117.162 90.6082 116.41 89.2223 115.094V122.802H82.8921V98.6624H89.035V100.58C90.6456 98.9632 92.8931 98.0984 95.1779 98.2488C101.546 98.2488 105.516 101.821 105.516 107.611C105.516 113.138 101.321 117.162 95.5525 117.162ZM129.938 109.115V109.454H113.419C113.607 110.958 115.255 112.95 118.588 112.95C120.761 112.95 122.222 112.236 122.971 110.882L123.083 110.694H129.826L129.638 111.183C128.028 115.131 124.319 117.162 118.588 117.162C111.022 117.162 106.864 113.778 106.864 107.611C106.864 101.445 110.985 98.0608 118.588 98.0608C126.192 98.0608 129.975 101.708 129.975 108.589L129.938 109.115Z" fill="white"/>
<path d="M118.483 103C115.155 103 114.204 105.214 114 106H123C122.83 105.143 121.777 103 118.483 103Z" fill="white"/>
<path d="M159 92H164.637V95.9685H159V92ZM159 98.085H164.637V115.357H159V98.085ZM182.519 105.569C182.519 103.187 181.287 102.054 178.748 102.054C176.21 102.054 173.895 103.376 173.895 107.043V115.395H168.258V98.1228H173.709V100.617H173.783C174.829 99.1811 177.516 97.6693 180.802 97.6693C183.713 97.6693 188.156 98.8031 188.156 103.868V115.357H182.519V105.569ZM196.854 109.991C197.115 111.465 198.123 112.447 200.961 112.447C203.499 112.447 204.955 111.843 204.955 110.595C204.955 109.613 204.47 109.235 201.819 108.857L196.779 108.139C193.233 107.647 191.217 106.551 191.217 103.263C191.217 98.6142 195.846 97.4803 200.438 97.4803C208.24 97.4803 210.069 100.088 210.443 103.301H204.32C204.022 101.524 202.192 101.033 200.587 101.033C199.131 101.033 196.966 101.184 196.966 102.847C196.966 103.679 197.377 104.208 199.766 104.472L203.611 104.888C209.248 105.493 211.077 107.194 211.077 110.18C211.077 115.282 205.478 116 200.625 116C194.241 116 190.993 114.11 190.732 110.028L196.854 109.991ZM215.669 92.8315H221.306V98.1606H225.861V101.94H221.306V109.953C221.306 111.313 221.717 111.729 223.21 111.729C224.181 111.729 225.077 111.654 225.973 111.616V115.395C224.927 115.509 222.799 115.698 221.567 115.698C216.229 115.698 215.706 113.694 215.706 110.595V101.865H212.085V98.085H215.632V92.8315H215.669ZM229.706 92H235.343V95.9685H229.706V92ZM229.706 98.085H235.343V115.357H229.706V98.085ZM242.025 92.8315H247.662V98.1606H252.217V101.94H247.662V109.953C247.662 111.313 248.073 111.729 249.566 111.729C250.537 111.729 251.433 111.654 252.329 111.616V115.395C251.283 115.509 249.155 115.698 247.923 115.698C242.585 115.698 242.062 113.694 242.062 110.595V101.865H238.516V98.085H242.062L242.025 92.8315ZM269.24 113.014H269.202C268.157 114.45 265.469 115.962 262.184 115.962C259.272 115.962 254.83 114.828 254.83 109.764V98.085H260.467V108.025C260.467 110.406 261.699 111.578 264.312 111.578C267.336 111.578 269.09 109.915 269.09 106.702V98.1228H274.727V115.357H269.277V113.014H269.24ZM280.476 92.8315H286.113V98.1606H290.668V101.94H286.113V109.953C286.113 111.313 286.524 111.729 288.017 111.729C289.025 111.729 289.884 111.654 290.78 111.616V115.395C289.735 115.509 287.607 115.698 286.375 115.698C281.036 115.698 280.514 113.694 280.514 110.595V101.865H276.967V98.085H280.514L280.476 92.8315ZM313.701 110.18C312.059 114.261 308.176 115.962 302.987 115.962C296.193 115.962 291.676 113.203 291.676 106.702C291.676 100.239 296.23 97.4425 302.987 97.4425C310.416 97.4425 314 101.184 314 107.685V108.214H297.5V108.29C297.5 109.953 299.142 112.447 302.987 112.447C305.264 112.447 306.87 111.654 307.654 110.18H313.701ZM308.214 104.888V104.813C308.214 103.868 307.019 100.995 302.913 100.995C298.47 100.995 297.537 104.397 297.537 104.813V104.888H308.214Z" fill="white"/>
</g>
<defs>
<clipPath id="clip0_241_790">
<rect width="314" height="188" fill="white"/>
</clipPath>
</defs>
</svg>
