<svg width="321" height="99" viewBox="0 0 321 99" fill="none" xmlns="http://www.w3.org/2000/svg">
<g clip-path="url(#clip0_241_795)">
<path d="M32.3072 0.000287052C21.7731 0.000287052 16.1545 0.704864 13.6956 0.704864C9.59873 0.704864 5.97028 0.586945 2.3403 0.586945C0.351158 0.586945 0 0.705053 0 1.52586C0 2.9324 0.467633 3.05149 5.73662 3.05149C9.01264 3.05149 10.8877 4.10727 10.8877 13.3738V67.3334C10.8877 69.0928 10.652 69.3277 5.38509 69.3277C2.80947 69.3277 2.10645 69.5609 2.10645 70.7354C2.10645 71.9079 2.92604 72.0251 4.09804 72.0251C7.84287 72.0251 10.4185 71.5563 15.3344 71.5563C20.4847 71.5563 25.4018 72.7282 30.3186 72.7282C46.5905 72.7282 57.4775 66.5128 57.4775 53.3744C57.4775 43.1692 50.5689 39.18 45.0675 36.3632C42.7262 35.1906 40.5018 34.6043 40.5018 34.3704C40.5018 34.0195 43.0774 32.7282 45.3028 31.2028C49.0495 28.6228 54.0827 24.5153 54.0827 16.1874C54.0827 7.85851 47.5273 0.000287052 32.3072 0.000287052ZM232.879 0.134443C232.268 0.134443 228.398 1.86902 220.457 2.37928C218.727 2.48116 217.911 2.37816 217.911 3.60263C217.911 4.72616 218.93 4.93071 220.763 4.93071C225.343 4.93071 225.955 4.93022 225.955 11.3572V67.5753C225.955 69.412 224.223 69.3101 220.049 69.3101C217.604 69.3101 217.503 69.924 217.503 70.6382C217.503 71.4542 217.706 71.6582 220.049 71.6582C221.474 71.6582 226.872 71.4548 230.332 71.4548C232.167 71.4548 234.407 71.6582 235.934 71.6582C239.598 71.6582 240.311 71.6579 240.311 70.6382C240.311 69.8203 240.514 69.2085 235.423 69.2085C233.591 69.2085 232.878 68.0862 232.878 59.6187C232.878 56.6584 233.387 48.5994 233.387 9.72491C233.387 6.66468 233.896 2.98974 233.896 1.76527C233.896 0.642682 233.387 0.134443 232.879 0.134443ZM148.348 0.236125C147.431 0.236125 141.423 2.47963 134.093 2.47963C132.973 2.47963 132.769 2.88814 132.769 3.9079C132.769 4.62391 133.177 4.93088 137.35 4.93088C140.099 4.93088 140.914 5.8493 140.914 13.0924C140.914 34.6215 140.608 64.822 140.608 67.7803C140.608 69.3104 139.692 69.3103 136.231 69.3103C133.787 69.3103 133.278 69.8204 133.278 70.6383C133.278 71.5562 133.889 71.6583 136.231 71.6583C137.656 71.6583 141.424 71.4549 144.887 71.4549C148.145 71.4549 152.827 71.6583 154.354 71.6583C156.593 71.6583 157.103 71.6581 157.103 70.6383C157.103 69.8204 156.696 69.3103 154.354 69.3103C148.042 69.3103 148.246 69.311 148.246 64.5169V58.089C148.246 57.1701 149.671 56.455 151.3 55.4343C153.03 54.3118 154.455 53.2926 154.863 53.2926C155.474 53.2926 159.752 59.7217 164.028 64.6187C168.304 69.5156 169.221 72.0665 171.054 72.0665C172.48 72.0665 175.534 71.9649 176.756 71.9649C177.672 71.9649 178.995 72.0665 180.217 72.0665C182.456 72.0665 183.169 71.8624 183.169 71.1483C183.169 70.3323 182.355 69.8202 179.912 69.8202C176.451 69.8202 173.192 64.8216 169.729 60.6388C162.603 52.0675 160.771 50.1298 160.771 49.211C160.771 48.4969 167.083 44.0088 172.175 39.0081C175.331 35.9479 178.791 31.5615 178.791 30.6417C178.791 30.3351 178.385 30.2335 177.571 30.2335C176.35 30.2335 170.442 30.5386 169.119 30.5386C167.897 30.5386 165.963 30.2335 164.946 30.2335C163.622 30.2335 163.113 30.4371 163.113 31.2549C163.113 32.1738 163.622 32.3766 165.149 32.3766C169.628 32.3766 169.933 32.5812 169.933 34.2132C169.933 36.3556 169.017 38.0904 165.047 41.8648C161.789 44.9269 151.198 54.3126 148.652 54.3126C148.347 54.3126 148.246 54.0062 148.246 53.5977C148.246 36.9674 148.855 25.5406 148.855 10.0319C148.855 6.76697 149.06 2.47943 149.06 1.15403C149.06 0.541792 148.856 0.236125 148.348 0.236125ZM28.7939 2.81566C39.4466 2.81566 44.3635 14.0776 44.3635 19.9433C44.3635 29.2098 40.5006 31.4388 37.106 34.0198C37.106 34.0198 32.1884 33.3152 25.0489 33.3152C22.2379 33.3152 20.7171 33.549 20.7171 31.6717V6.21826C20.7171 3.87215 21.069 2.81566 28.7939 2.81566ZM80.1295 29.2125C70.8644 29.2125 61.1907 37.7838 61.1907 52.1699C61.1907 69.2087 73.6133 73.2915 81.9615 73.2915C90.2089 73.2915 98.8636 66.8614 98.8636 66.352C98.8636 66.1473 98.5581 65.5354 98.0488 65.5354C97.4388 65.5354 93.7734 67.9851 87.0538 67.9851C79.3146 67.9851 68.4189 64.2096 68.4189 50.1291C68.4189 47.783 68.7256 47.2727 70.3561 47.1708C81.9615 46.4567 92.1435 44.2134 94.7906 43.5993C97.5414 42.987 98.9666 42.5795 98.9666 42.171C98.9666 41.355 97.3363 38.9057 95.6042 36.8662C91.9394 32.5805 85.4248 29.2125 80.1295 29.2125ZM198.851 29.2125C189.587 29.2125 179.912 37.7838 179.912 52.1699C179.912 69.2087 192.334 73.2915 200.683 73.2915C208.93 73.2915 217.585 66.8614 217.585 66.352C217.585 66.1473 217.279 65.5354 216.77 65.5354C216.16 65.5354 212.494 67.9851 205.774 67.9851C198.036 67.9851 187.142 64.2096 187.142 50.1291C187.142 47.783 187.448 47.2727 189.076 47.1708C200.683 46.4567 210.864 44.2134 213.513 43.5993C216.261 42.987 217.687 42.5795 217.687 42.171C217.687 41.355 216.059 38.9057 214.327 36.8662C210.661 32.5805 204.147 29.2125 198.851 29.2125ZM257.579 29.2125C248.313 29.2125 238.64 37.7838 238.64 52.1699C238.64 69.2087 251.061 73.2915 259.411 73.2915C267.658 73.2915 276.313 66.8614 276.313 66.352C276.313 66.1473 276.006 65.5354 275.498 65.5354C274.887 65.5354 271.223 67.9851 264.501 67.9851C256.764 67.9851 245.869 64.2096 245.869 50.1291C245.869 47.783 246.175 47.2727 247.804 47.1708C259.411 46.4567 269.593 44.2134 272.24 43.5993C274.989 42.987 276.415 42.5795 276.415 42.171C276.415 41.355 274.786 38.9057 273.055 36.8662C269.39 32.5805 262.872 29.2125 257.579 29.2125ZM115.561 29.9259C113.931 29.9259 111.996 30.4359 110.368 30.4359C108.331 30.4359 106.396 30.231 102.935 30.231C101.203 30.231 101.305 30.5386 101.305 31.764C101.305 32.8866 101.305 32.784 103.139 32.784C108.84 32.784 108.636 32.988 108.636 39.9255V67.8826C108.636 69.3108 108.331 69.4126 104.157 69.4126C101.712 69.4126 101.611 69.6159 101.611 70.6375C101.611 71.6582 101.814 71.6575 104.157 71.6575C105.582 71.6575 109.045 71.1475 112.506 71.1475C115.765 71.1475 122.586 71.6575 124.012 71.6575C126.659 71.6575 126.761 71.7602 126.761 70.6375C126.761 69.7178 126.659 69.4126 124.012 69.4126C116.478 69.4126 116.173 69.4117 116.173 64.4129V43.3932C116.173 39.1085 118.412 36.6599 124.316 36.6599C129.408 36.6599 130.631 40.843 132.056 40.843C132.667 40.843 134.295 36.354 134.295 35.3333C134.295 32.6816 129.612 30.4353 127.777 30.4353C122.992 30.4353 118.209 35.7416 116.682 35.7416C116.274 35.7416 116.173 35.0278 116.173 34.1099C116.173 33.8033 116.376 31.5587 116.376 31.0484C116.376 30.2305 115.969 29.9259 115.561 29.9259ZM318.863 30.0276C317.437 30.0276 314.688 30.4359 313.161 30.4359C310.411 30.4359 308.578 30.2325 305.83 30.2325C303.997 30.2325 303.692 30.2318 303.692 31.5591C303.692 32.5798 304.099 32.5805 307.256 32.5805C310.716 32.5805 310.715 33.192 310.715 36.2523C310.715 37.6805 307.051 48.2932 304.608 55.6381C302.979 60.4351 302.369 61.8627 301.656 61.8627C301.248 61.8627 300.026 60.1285 299.21 57.9861C293.102 42.2718 290.455 38.7002 290.455 35.7419C290.455 33.3958 291.066 32.7836 293.509 32.7836C295.646 32.7836 296.055 32.6815 296.055 31.7636C296.055 30.6391 295.646 30.2321 293.509 30.2321C290.251 30.2321 286.686 30.5372 283.836 30.5372C281.393 30.5372 280.681 30.3338 277.83 30.3338C275.997 30.3338 275.693 30.8448 275.693 31.7636C275.693 32.6815 275.794 32.7836 277.83 32.7836C279.662 32.7836 280.376 33.2946 282.921 39.4149C288.521 52.6794 296.665 71.5549 296.665 72.6775C296.665 75.7377 287.912 87.7766 284.245 92.3671C280.783 96.7556 275.997 97.3678 275.997 97.98C275.997 98.4904 277.015 99 278.747 99C280.986 99 281.698 98.1842 284.752 97.7766C286.994 97.4701 288.215 97.3677 289.336 95.1235C292.593 88.389 297.176 80.1239 303.59 64.5137C311.633 44.926 316.114 32.6813 318.354 32.6813C319.576 32.6813 321 32.1709 321 31.253C321 30.1295 320.491 30.0276 318.863 30.0276ZM79.1109 31.3556C83.7953 31.3556 89.8015 38.9046 89.8015 41.4554C89.8015 42.0676 89.7009 42.2716 88.5806 42.4754C80.9441 43.6998 75.4459 45.0283 70.1515 45.0283C68.9287 45.0283 68.9292 44.9254 68.9292 44.4151C68.9292 42.985 71.3737 31.3556 79.1109 31.3556ZM197.831 31.3556C202.516 31.3556 208.523 38.9046 208.523 41.4554C208.523 42.0676 208.421 42.2716 207.301 42.4754C199.664 43.6998 194.166 45.0283 188.873 45.0283C187.651 45.0283 187.651 44.9254 187.651 44.4151C187.651 42.985 190.094 31.3556 197.831 31.3556ZM256.558 31.3556C261.242 31.3556 267.25 38.9046 267.25 41.4554C267.25 42.0676 267.148 42.2716 266.028 42.4754C258.391 43.6998 252.894 45.0283 247.599 45.0283C246.377 45.0283 246.376 44.9254 246.376 44.4151C246.376 42.985 248.819 31.3556 256.558 31.3556ZM24.9399 35.5419C37.6985 35.5419 46.3602 43.7535 46.3602 54.3115C46.3602 64.5167 39.8059 70.6183 30.9098 70.6183C27.1631 70.6183 23.4186 69.7965 22.1299 68.3882C21.0774 67.2147 20.7252 60.6465 20.7252 59.5899V38.591C20.7252 36.0109 21.6619 35.5419 24.9399 35.5419ZM82.9875 83.4283C80.5823 83.4283 78.5762 84.8823 78.5762 87.2917C78.5762 91.8707 84.5968 91.0543 84.5968 93.6033C84.5968 94.6183 83.8214 95.4943 82.2521 95.4943C81.1987 95.4943 79.868 94.998 78.7544 94.2414L77.7615 95.994C78.8742 96.7694 80.3836 97.5078 82.2523 97.5078C84.8552 97.5078 87.0209 95.8329 87.0209 93.5236C87.0209 88.8832 81.0004 90.2788 81.0004 87.1914C81.0004 86.1764 81.6762 85.4403 82.9877 85.4403C84.1597 85.4403 85.073 85.8387 86.0869 86.3557L86.9415 84.6429C85.7902 83.9269 84.4175 83.4283 82.9875 83.4283ZM130.985 83.4283C126.892 83.4283 125.065 86.356 125.065 90.4577C125.065 94.3604 126.872 97.5078 130.985 97.5078C135.098 97.5078 136.907 94.3604 136.907 90.4577C136.907 86.356 135.078 83.4283 130.985 83.4283ZM162.892 83.4283C158.799 83.4283 156.791 86.3757 156.791 90.4783C156.791 94.6592 158.621 97.5078 162.813 97.5078C164.641 97.5078 166.35 96.7496 167.74 95.4752L166.528 93.9231C165.416 94.9391 164.144 95.4944 162.932 95.4944C160.408 95.4944 159.215 93.684 159.215 90.4578C159.215 87.2523 160.488 85.4403 162.892 85.4403C164.184 85.4403 165.138 85.8988 166.19 86.7743L167.423 85.1809C165.992 84.0055 164.581 83.4283 162.892 83.4283ZM214.625 83.4283C210.531 83.4283 208.705 86.356 208.705 90.4577C208.705 94.3604 210.512 97.5078 214.625 97.5078C218.738 97.5078 220.547 94.3604 220.547 90.4577C220.547 86.356 218.718 83.4283 214.625 83.4283ZM24.4843 83.6273L22.1984 83.8675V97.2882H24.5636V88.1288H24.6033L30.3457 97.2882H32.4521V83.6479H30.087V92.6097H30.0283L24.4843 83.6273ZM54.8194 83.6273V97.2881H63.086L63.2654 95.2761H57.1846V91.4142H62.2916V89.4022H57.1846V85.6392H62.927V83.6273H54.8194ZM139.949 83.6273V97.2881H142.313V91.4142H147.321V89.4022H142.313V85.6392H147.896V83.6273H139.949ZM176.505 83.6273L173.744 83.8469L168.954 97.2881H171.161L172.292 94.0011H177.777L178.91 97.2881H181.335L176.505 83.6273ZM199.232 83.6273V97.2881H201.595V91.4142H206.604V89.4022H201.595V85.6392H207.18V83.6273H199.232ZM236.463 83.6273L234.177 83.8675V97.2882H236.541V88.1288H236.583L242.323 97.2882H244.43V83.6479H242.066V92.6097H242.006L236.463 83.6273ZM259.249 83.6273L256.486 83.8469L251.697 97.2881H253.903L255.036 94.0011H260.519L261.652 97.2881H264.078L259.249 83.6273ZM8.84036 83.6478V92.5477C8.84036 95.6146 10.5288 97.5077 13.8679 97.5077C17.1853 97.5077 18.875 95.6152 18.875 92.5285V83.6478H16.5098V92.6878C16.5098 94.3811 15.796 95.4942 13.8681 95.4942C11.9204 95.4942 11.2044 94.3802 11.2044 92.6672V83.6478H8.84036ZM35.8204 83.6478V97.2881H38.1843V83.6478H35.8204ZM40.5081 83.6478L45.1974 97.2881H47.7994L52.5093 83.6478H50.1837L47.5817 91.2742C47.5817 91.2742 47.3236 92.0498 46.6477 94.3799H46.5285C45.8723 92.0498 45.615 91.2537 45.615 91.2537L43.0116 83.6478H40.5081ZM66.3943 83.6478V97.2881H68.7582V91.8314H69.8908C70.7456 91.8314 71.2424 92.6294 71.6397 93.4454L73.5268 97.288H76.1303L73.5268 92.3694C73.3686 92.0506 73.1296 91.6914 72.6928 91.4319V91.3937C74.4805 90.7163 75.2566 89.323 75.2566 87.691C75.2566 85.3213 73.7656 83.6478 70.7645 83.6478H66.3943ZM89.8367 83.6478V97.2881H92.2005V83.6478H89.8367ZM94.9217 83.6478V85.679H98.5195V97.2881H100.883V85.6582H104.321L104.5 83.6478H94.9217ZM106.048 83.6478L110.34 91.4525V97.2881H112.704V91.4525L116.997 83.6478H114.392L112.465 87.5318C112.465 87.5318 112.227 88.0282 111.552 89.5423H111.493C110.777 88.0282 110.518 87.5318 110.518 87.5318L108.71 83.6478H106.048ZM183.251 83.6478V97.2881H191.298L191.477 95.2761H185.616V83.6478H183.251ZM193.779 83.6478V97.2881H196.143V83.6478H193.779ZM222.586 83.6478V97.2881H224.951V91.8314H226.084C226.937 91.8314 227.435 92.6294 227.832 93.4454L229.72 97.288H232.323L229.72 92.3694C229.562 92.0506 229.323 91.6914 228.886 91.4319V91.3937C230.673 90.7163 231.449 89.323 231.449 87.691C231.449 85.3213 229.958 83.6478 226.957 83.6478H222.586ZM247.401 83.6478V97.2881H249.765V83.6478H247.401ZM130.982 85.4402C133.327 85.4402 134.459 87.4908 134.459 90.4577C134.459 93.4245 133.308 95.4942 130.982 95.4942C128.638 95.4942 127.485 93.4235 127.485 90.4369C127.485 87.4701 128.638 85.4402 130.982 85.4402ZM214.62 85.4402C216.965 85.4402 218.097 87.4908 218.097 90.4577C218.097 93.4245 216.945 95.4942 214.62 95.4942C212.275 95.4942 211.124 93.4235 211.124 90.4369C211.124 87.4701 212.275 85.4402 214.62 85.4402ZM68.7579 85.679H70.7055C72.3153 85.679 72.8325 86.4357 72.8325 87.7102C72.8325 89.0045 72.1762 89.8401 70.7452 89.8401H68.7579V85.679ZM224.951 85.679H226.898C228.508 85.679 229.025 86.4357 229.025 87.7102C229.025 89.0045 228.369 89.8401 226.938 89.8401H224.951V85.679ZM174.986 86.0372H175.025C175.959 88.8644 176.118 89.3021 176.118 89.3021L177.171 92.3091H172.859L173.912 89.3021C173.912 89.3021 174.072 88.8644 174.986 86.0372ZM257.73 86.0372H257.769C258.703 88.8644 258.864 89.3021 258.864 89.3021L259.915 92.3091H255.603L256.657 89.3021C256.657 89.3021 256.815 88.8644 257.73 86.0372Z" fill="white"/>
</g>
<defs>
<clipPath id="clip0_241_795">
<rect width="321" height="99" fill="white"/>
</clipPath>
</defs>
</svg>
