<svg width="287" height="110" viewBox="0 0 287 110" fill="none" xmlns="http://www.w3.org/2000/svg">
<g clip-path="url(#clip0_241_709)">
<path d="M25.7253 31.6656C25.7253 26.0127 22.3719 21.5575 16.6232 20.6473C19.4976 18.8748 21.7491 15.7609 21.7491 11.0183C21.7491 4.45522 17.2939 0 9.62902 0H0V43.9773H12.0722C20.0245 43.9773 25.7253 39.3305 25.7253 31.6656ZM2.92224 2.68272H8.5272C10.8267 2.68272 13.701 2.82643 15.8567 4.55103C17.2939 5.74867 18.8269 7.90442 18.8269 11.4015C18.8269 14.4196 17.7251 16.6711 15.9526 18.1083C14.0363 19.6892 12.168 19.9766 9.96436 19.9766H2.97015V2.68272H2.92224ZM2.92224 41.3425V22.5635H9.77274C14.6591 22.5635 16.8628 23.2821 18.0125 23.8091C21.318 25.3421 22.7073 28.0248 22.7073 32.0009C22.7073 34.013 22.2761 36.6478 19.8329 38.7556C16.8628 41.3904 13.2698 41.3904 10.2997 41.3904L2.92224 41.3425ZM45.5582 44.6959C52.2171 44.6959 55.7621 40.4323 57.343 37.4143L55.0914 36.0729C53.4147 39.6179 50.1092 42.2048 45.7498 42.2048C40.097 42.2048 35.0669 37.7496 35.0669 30.8512L58.0616 30.8033C58.0616 22.2282 52.6003 16.4316 45.3187 16.4316C38.7556 16.4316 32.2884 21.2222 32.2884 30.5638C32.3363 38.4682 37.2226 44.6959 45.5582 44.6959ZM45.3666 19.0185C50.6841 19.0185 54.6603 23.0426 55.331 28.3601L35.3064 28.3122C35.9771 23.1384 39.9054 19.0185 45.3666 19.0185ZM68.505 43.9773V29.5577C68.505 26.2044 68.6008 19.0185 73.9662 19.0185C75.1639 19.0185 75.6429 19.3539 75.9304 19.5455L77.2238 17.1502C76.3615 16.7191 75.3555 16.4795 74.3974 16.4795C71.523 16.4795 69.4152 18.252 68.505 20.5515V17.0544H65.8702V43.9773H68.505ZM83.1641 43.9773H85.7989V19.5934H90.4937V17.1023H85.7989V7.47328H83.1641V17.1023H80.194V19.5934H83.1641V43.9773ZM107.309 44.6959C113.967 44.6959 117.512 40.4323 119.093 37.4143L116.842 36.0729C115.165 39.6179 111.86 42.2048 107.5 42.2048C101.847 42.2048 96.8172 37.7496 96.8172 30.8512L119.812 30.8033C119.812 22.2282 114.351 16.4316 107.117 16.4316C100.554 16.4316 94.0866 21.2222 94.0866 30.5638C94.0387 38.4682 98.925 44.6959 107.309 44.6959ZM107.069 19.0185C112.387 19.0185 116.363 23.0426 117.033 28.408L97.0088 28.3601C97.7274 23.1384 101.608 19.0185 107.069 19.0185ZM127.573 0H130.207V43.9773H127.573V0ZM146.256 42.2048C143.286 42.2048 140.459 40.3365 139.549 36.7915L136.962 37.558C138.064 42.0132 141.753 44.648 146.256 44.648C150.376 44.648 155.022 42.2048 155.022 36.0729C155.022 34.5399 154.783 33.1028 153.681 31.7135C152.004 29.5098 149.465 28.8392 146.783 27.7373C144.148 26.6834 142.04 25.8211 142.04 23.1863C142.04 21.2222 143.573 18.8748 146.591 18.8748C148.603 18.8269 150.471 20.0245 151.286 21.8929L153.537 20.7431C152.292 17.8688 149.657 16.3837 146.495 16.3837C142.423 16.3837 139.309 19.2581 139.309 23.2821C139.309 24.5756 139.741 25.7732 140.507 26.7792C141.705 28.3601 143.669 29.2224 146.399 30.3242C150.471 32.0009 152.388 33.1028 152.388 36.1208C152.244 39.7616 149.657 42.2048 146.256 42.2048ZM164.316 28.408C164.316 23.0905 166.52 18.9706 171.167 18.9706C176.963 18.9706 177.059 24.9588 177.059 26.6834V43.9773H179.694V27.7852C179.694 26.1085 179.79 19.0185 186.88 19.0185C188.365 18.9227 189.802 19.4976 190.904 20.5515C192.341 22.0845 192.485 24.336 192.485 26.1085V43.9773H195.119V26.0606C195.119 23.857 194.976 20.9347 192.82 18.7311C191.622 17.5334 189.706 16.4795 186.736 16.4795C183.191 16.4795 180.269 18.1562 178.736 21.3659C178.209 20.0245 176.484 16.4795 171.215 16.4795C168.34 16.3358 165.61 17.8688 164.22 20.4557V17.1023H161.633V43.9773H164.22V28.408H164.316ZM216.102 44.6959C220.318 44.7917 224.246 42.6839 226.546 39.1389V43.9294H229.18V17.0544H226.546V21.7491C223.959 18.1083 220.318 16.4795 216.102 16.4795C208.246 16.4795 202.976 22.2282 202.976 30.5159C202.976 39.3784 209.012 44.6959 216.102 44.6959ZM216.198 19.0185C220.845 19.0185 226.641 22.3719 226.641 30.3721C226.641 36.552 222.953 42.2527 216.198 42.2527C209.395 42.2527 205.659 36.4562 205.659 30.3721C205.755 22.9947 210.88 19.0185 216.198 19.0185ZM241.3 29.9889C241.3 27.3541 241.54 24.863 242.738 22.7552C243.744 20.9826 245.612 18.9706 249.301 18.9706C252.51 18.9706 253.995 20.6473 254.57 21.6054C255.576 23.1384 255.624 25.1504 255.624 27.0188V43.9773H258.259V27.0188C258.259 24.6714 258.115 22.1324 256.918 20.2162C256.343 19.306 254.283 16.4316 249.492 16.4316C244.941 16.4316 242.498 19.0185 241.253 21.2222V17.0065H238.618V43.9773H241.253V29.9889H241.3ZM270.427 29.9889C270.427 27.3541 270.667 24.863 271.864 22.7552C272.87 20.9826 274.739 18.9706 278.427 18.9706C281.637 18.9706 283.122 20.6473 283.697 21.6054C284.703 23.1384 284.751 25.1504 284.751 27.0188V43.9773H287.386V27.0188C287.386 24.6714 287.242 22.1324 286.044 20.2162C285.469 19.306 283.409 16.4316 278.619 16.4316C274.068 16.4316 271.625 19.0185 270.379 21.2222V17.0065H267.744V43.9773H270.379V29.9889H270.427Z" fill="white"/>
<path d="M0 50.6841V110.279H287.434V50.6841H0ZM25.39 67.2594H15.1382V78.2298H25.1025V80.0502H15.1382V95.6674H13.174V65.4869H25.4379C25.39 65.4869 25.39 67.2594 25.39 67.2594ZM59.8341 80.6251C59.8341 89.296 53.0315 96.1465 44.169 96.1465C35.3543 96.1465 28.5038 89.3439 28.5038 80.6251C28.5038 72.0021 35.5459 64.9599 44.169 64.9599C52.792 64.9599 59.8341 71.9542 59.8341 80.6251ZM86.9007 84.3138C86.9007 87.6193 86.757 89.775 85.1761 92.0266C82.9246 95.3321 79.3317 96.0986 76.601 96.0986C73.8704 96.0986 70.3254 95.3321 68.0259 92.0266C66.493 89.775 66.3013 87.6193 66.3013 84.3138V65.439H68.2655V84.3138C68.2655 87.1882 68.4092 89.0086 69.5589 90.829C71.3314 93.7033 74.6369 94.3261 76.601 94.3261C78.5652 94.3261 81.8707 93.7033 83.6432 90.829C84.745 89.0086 84.9366 87.1402 84.9366 84.3138V65.439H86.9007V84.3138ZM122.351 96.386L97.0567 69.8942V95.6674H95.0447V65.1516L120.387 91.6913V65.4869H122.351V96.386ZM147.645 91.4517C143.861 95.2363 139.166 95.6674 136.531 95.6674H130.543V65.4869H136.483C139.166 65.4869 143.813 65.9181 147.597 69.7026C150.807 72.9123 151.957 77.3196 151.957 80.6251C151.957 83.9306 150.855 88.2421 147.645 91.4517ZM177.155 95.6674L173.131 85.751H160.292L156.268 95.6674H154.064L166.807 64.5767L179.359 95.6674H177.155ZM195.934 67.2594H188.125V95.6195H186.113V67.2594H178.305V65.439H195.982V67.2594H195.934ZM202.641 95.6195H200.677V65.439H202.641V95.6195ZM240.486 80.6251C240.486 89.296 233.683 96.1465 224.821 96.1465C215.958 96.1465 209.156 89.3439 209.156 80.6251C209.156 72.0021 216.198 64.9599 224.821 64.9599C233.444 64.9599 240.486 71.9542 240.486 80.6251ZM274.307 96.386L248.965 69.8942V95.6674H246.953V65.1516L272.295 91.6913V65.4869H274.26V96.386H274.307Z" fill="white"/>
<path d="M136.435 67.2595H132.507V93.7992H136.435C144.435 93.7992 149.897 88.3859 149.897 80.5294C149.944 72.8166 144.387 67.2595 136.435 67.2595Z" fill="white"/>
<path d="M161.011 83.9307H172.412L166.759 69.6069L161.011 83.9307Z" fill="white"/>
<path d="M224.821 66.8284C217.06 66.8284 211.264 72.8645 211.264 80.5773C211.264 88.2901 217.06 94.3262 224.821 94.3262C232.582 94.3262 238.378 88.2901 238.378 80.5773C238.426 72.8645 232.63 66.8284 224.821 66.8284Z" fill="white"/>
<path d="M44.1691 66.8284C36.4084 66.8284 30.6118 72.8645 30.6118 80.5773C30.6118 88.2901 36.4084 94.3262 44.1691 94.3262C51.9298 94.3262 57.7264 88.2901 57.7264 80.5773H57.7743C57.7743 72.8645 51.9777 66.8284 44.1691 66.8284Z" fill="white"/>
</g>
<defs>
<clipPath id="clip0_241_709">
<rect width="287" height="110" fill="white"/>
</clipPath>
</defs>
</svg>
