<svg width="462" height="110" viewBox="0 0 462 110" fill="none" xmlns="http://www.w3.org/2000/svg">
<g clip-path="url(#clip0_241_717)">
<path d="M439.055 0.664307H455.843V34.2384H439.055V0.664307ZM410.001 17.4513L409.033 17.7742C409.033 17.7742 414.843 22.6166 414.843 22.9394C415.166 23.2622 415.489 23.2622 415.166 24.2307C414.843 25.1992 414.521 26.1677 414.521 26.1677C414.521 26.1677 419.686 25.1992 420.332 24.8764C420.977 24.8764 421.3 24.8764 421.3 25.522C421.3 26.1677 420.977 31.6557 420.977 31.6557H422.591C422.591 31.6557 422.268 25.8448 422.268 25.522C422.268 24.8764 422.591 24.8764 423.237 24.8764C423.883 24.8764 429.048 26.1677 429.048 26.1677C429.048 26.1677 428.725 24.8764 428.402 24.2307C428.079 23.2622 428.402 23.2622 428.725 22.9394C429.048 22.6166 434.536 17.7742 434.536 17.7742L433.567 17.4513C432.922 17.1285 433.245 16.8057 433.245 16.4828C433.245 16.16 434.213 12.9317 434.213 12.9317C434.213 12.9317 431.63 13.5774 431.308 13.5774C430.985 13.5774 430.662 13.5774 430.662 13.2546C430.662 12.9317 430.016 11.6404 430.016 11.6404C430.016 11.6404 427.111 14.8687 426.788 15.1915C426.142 15.8372 425.497 15.1915 425.82 14.5459C425.82 13.9002 427.434 7.12085 427.434 7.12085C427.434 7.12085 425.82 8.08934 425.174 8.41216C424.528 8.73499 424.205 8.73499 424.205 8.08934C423.883 7.44368 421.946 3.89258 421.946 3.56975C421.946 3.56975 420.009 7.44368 419.686 8.08934C419.363 8.73499 419.04 8.73499 418.717 8.41216C418.072 8.08934 416.458 7.12085 416.458 7.12085C416.458 7.12085 418.072 13.9002 418.072 14.5459C418.072 15.1915 417.749 15.5144 417.103 15.1915L413.875 11.6404C413.875 11.6404 413.552 12.6089 413.229 12.9317C413.229 13.2546 412.906 13.5774 412.584 13.2546C411.938 13.2546 409.355 12.6089 409.355 12.6089C409.355 12.6089 410.324 15.8372 410.647 16.16C410.647 16.4828 410.647 17.1285 410.001 17.4513ZM388.372 0.664307H405.159V34.2384H388.372V0.664307Z" fill="white"/>
<path d="M459.394 101.387C458.103 104.292 455.52 105.261 453.906 105.261C451.969 105.261 446.158 104.938 446.158 89.765C446.158 89.765 446.158 59.0964 446.158 57.1595C446.158 47.1518 438.411 39.0811 418.395 39.0811C396.766 39.0811 396.443 49.7344 396.443 52.317C396.12 55.2225 397.734 58.4508 403.222 58.4508C408.065 58.4508 409.356 52.9627 410.002 51.0257C410.647 48.7659 410.97 42.3094 419.687 42.3094C427.112 42.3094 431.631 48.7659 431.954 58.1279C431.954 59.7421 431.954 60.7106 431.954 61.679C431.954 62.3247 431.954 62.6475 431.954 63.2932V63.616C431.308 66.8443 429.694 68.4584 426.789 69.7497C422.915 71.6867 411.616 73.3008 410.325 73.6236C405.805 74.5921 393.215 77.8204 393.538 91.0563C393.86 103.969 406.773 108.489 415.813 108.166C424.529 107.843 429.694 104.292 431.954 102.355C433.245 101.387 433.245 101.387 434.214 102.678C435.505 103.969 439.702 108.166 449.709 108.166C460.04 108.166 461.331 103.324 461.977 101.71C462.3 100.741 460.04 99.7727 459.394 101.387ZM419.041 104.938C410.002 104.938 407.742 97.5129 407.742 93.639C407.742 90.0878 409.679 82.6628 418.718 77.4976C418.718 77.4976 422.915 74.915 430.985 71.6867C431.308 71.6867 431.631 71.6867 431.631 71.6867C431.631 71.6867 431.954 72.0095 431.954 72.3323V72.6552V72.978V86.5367C431.954 97.19 426.789 104.938 419.041 104.938ZM389.341 104.615C388.049 104.292 379.979 105.261 379.979 80.7259C379.979 56.191 379.979 3.57011 379.979 3.57011C379.979 2.60163 379.979 0.0190093 377.073 0.0190093C374.168 0.0190093 354.798 0.987491 353.507 1.31032C352.216 1.31032 351.247 2.92446 353.507 2.92446C355.767 3.24728 366.097 3.89294 366.097 21.0028C366.097 29.3963 366.097 37.7898 366.097 43.9235C366.097 44.2464 366.097 44.5692 366.097 44.5692C366.097 45.2148 366.097 45.5377 365.774 45.8605C365.774 45.8605 365.774 45.8605 365.774 46.1833C365.452 46.5062 365.129 46.1833 364.16 45.5377C362.546 44.2464 355.121 39.7268 345.759 39.7268C330.586 39.7268 311.862 50.7029 311.862 73.3008C311.862 97.5129 328.972 109.135 346.728 109.135C355.444 109.135 361.578 105.261 363.837 103.969C366.42 102.355 366.097 102.678 366.42 104.938C366.743 106.552 366.42 109.78 370.94 109.458C375.782 108.812 387.404 107.521 389.664 107.198C391.923 106.229 391.278 104.938 389.341 104.615ZM349.31 105.584C335.106 105.584 327.681 88.7965 327.681 72.6552C327.681 54.8997 337.688 42.9551 348.342 43.6007C362.223 44.5692 365.774 55.5453 366.097 75.2378C366.097 76.5291 366.097 77.8204 366.097 79.4345C365.774 98.8042 357.704 105.584 349.31 105.584ZM311.539 101.387C310.248 104.292 307.665 105.261 306.051 105.261C304.114 105.261 298.303 104.938 298.303 89.765C298.303 89.765 298.303 59.0964 298.303 57.1595C298.303 47.1518 290.556 39.0811 270.54 39.0811C248.911 39.0811 248.588 49.7344 248.588 52.317C248.265 55.2225 249.879 58.4508 255.367 58.4508C260.21 58.4508 261.501 52.9627 262.147 51.0257C262.792 48.7659 263.115 42.3094 271.832 42.3094C279.257 42.3094 284.099 48.7659 284.099 58.4508V58.7736C284.099 59.0964 284.099 59.4192 284.099 59.4192V60.3877C284.099 60.7106 284.099 61.3562 284.099 61.679C283.776 66.5215 282.485 68.1356 278.611 70.0726C274.737 72.0095 263.438 73.6237 262.147 73.9465C257.627 74.915 245.037 78.1432 245.36 91.3792C245.683 104.292 258.596 108.812 267.635 108.489C276.351 108.166 281.516 104.615 283.776 102.678C285.068 101.71 285.068 101.71 286.036 103.001C287.327 104.292 291.524 108.489 301.532 108.489C311.862 108.489 313.154 103.647 313.799 102.032C314.445 100.741 312.508 99.7727 311.539 101.387ZM271.509 104.938C262.47 104.938 260.21 97.5129 260.21 93.639C260.21 90.0878 262.147 82.6628 271.186 77.4976C271.186 77.4976 275.383 74.915 283.453 71.6867C283.776 71.6867 284.099 71.6867 284.099 71.6867V72.0095C284.099 72.3323 284.099 72.6552 284.099 73.3008V72.978C284.099 72.978 284.099 72.978 284.099 73.3008V86.8596C284.099 97.1901 278.934 104.938 271.509 104.938ZM240.517 104.615C237.935 103.969 233.415 101.064 233.415 86.8596V61.0334C233.415 54.8997 234.061 39.0811 209.849 39.0811C197.258 39.0811 190.156 45.5377 189.511 45.8605C188.542 46.829 187.896 47.1518 187.574 45.5377C187.251 44.2464 186.605 42.3094 186.282 41.0181C185.96 40.0496 185.314 39.0811 183.054 39.4039C180.794 39.7268 166.59 41.9866 164.007 42.6322C161.747 43.2779 162.393 44.2464 164.007 44.5692C165.621 44.892 173.369 45.5377 173.369 58.7736C173.369 72.0095 173.369 86.5367 173.369 86.5367C173.369 102.678 170.141 103.969 167.236 104.938C163.362 105.906 165.299 107.198 166.913 107.198C166.913 107.198 195.644 107.198 196.29 107.198C198.227 107.198 199.195 105.261 195.322 104.615C191.448 103.969 187.896 101.71 187.896 89.1194C187.896 87.8281 187.896 73.9465 187.896 71.3639C187.896 64.5845 186.282 43.9235 205.006 43.6007C218.242 43.2779 219.534 54.254 219.534 61.3562V88.7965C219.534 100.095 216.305 103.647 212.431 104.292C208.88 104.938 209.526 106.552 211.463 106.552C212.109 106.552 241.486 106.552 241.486 106.552C243.1 107.198 244.714 105.584 240.517 104.615ZM162.07 101.387C160.779 104.292 158.196 105.261 156.582 105.261C154.645 105.261 148.834 104.938 148.834 89.765C148.834 89.765 148.834 59.0964 148.834 57.1595C148.834 47.1518 141.087 39.0811 121.071 39.0811C99.4418 39.0811 99.1189 49.7344 99.1189 52.317C98.7961 55.2225 100.41 58.4508 105.898 58.4508C110.741 58.4508 112.032 52.9627 112.678 51.0257C113.323 48.7659 113.646 42.3094 122.363 42.3094C129.788 42.3094 134.307 48.7659 134.63 58.1279C134.63 59.7421 134.63 60.7106 134.63 61.679C134.63 62.3247 134.63 62.9703 134.307 63.2932V63.616C133.661 66.8443 132.047 68.4584 129.142 69.7497C125.268 71.6867 113.969 73.3008 112.678 73.6236C108.158 74.5921 95.5678 77.8204 95.8907 91.0563C96.2135 103.969 109.127 108.489 118.166 108.166C126.882 107.843 132.047 104.292 134.307 102.355C135.598 101.387 135.598 101.387 136.567 102.678C137.858 103.969 142.055 108.166 152.063 108.166C162.393 108.166 163.684 103.324 164.33 101.71C164.976 100.741 162.716 99.7727 162.07 101.387ZM121.717 104.938C112.678 104.938 110.418 97.5129 110.418 93.639C110.418 89.765 112.355 82.6628 121.394 77.4976C121.394 77.4976 125.591 74.915 133.661 71.6867C133.984 71.6867 134.307 71.6867 134.307 71.6867C134.307 71.6867 134.63 72.0095 134.63 72.3323C134.63 72.3323 134.63 72.6552 134.63 72.978V73.3008V86.8596C134.63 97.1901 129.465 104.938 121.717 104.938ZM90.7254 76.8519C87.4972 87.1824 81.3634 103.969 59.0883 104.615C35.8448 104.938 21.9632 89.1194 21.3175 59.7421C20.3491 28.4278 33.9078 4.53859 54.8916 3.89294C78.458 3.57011 86.8515 31.6561 87.1743 35.8528C87.4972 39.0811 91.6939 38.7583 91.6939 35.53C91.6939 33.9159 89.7569 6.15273 89.1113 2.92446C88.4656 -0.303818 85.883 0.987492 85.2374 2.2788C84.9145 3.24728 85.5602 1.31032 84.2689 4.21577C82.9776 7.12121 79.4265 5.50707 78.1352 5.18425C74.2612 3.57011 66.8362 -0.303818 54.8916 0.0190093C27.4513 0.664664 -0.634731 21.0028 0.0109239 56.5138C0.656579 91.0563 28.4197 110.426 54.2459 110.103C77.8123 109.78 91.0483 94.9303 94.9222 77.8204C96.2135 73.6237 92.0167 72.6552 90.7254 76.8519Z" fill="white"/>
</g>
<defs>
<clipPath id="clip0_241_717">
<rect width="462" height="110" fill="white"/>
</clipPath>
</defs>
</svg>
