<svg width="436" height="110" viewBox="0 0 436 110" fill="none" xmlns="http://www.w3.org/2000/svg">
<g clip-path="url(#clip0_240_693)">
<path fill-rule="evenodd" clip-rule="evenodd" d="M412 13.1001C407.6 13.1001 401.8 13.5001 399.7 13.5001C398.5 13.5001 393.8 13.3001 392.4 13.3001V14.4001C394.8 14.9001 396.2 15.7001 396.2 18.0001V50.4001C396.2 52.7001 394.8 53.7001 392.3 54.1001V55.3001C393.7 55.3001 398 55.1001 399.3 55.1001C401.3 55.1001 406.8 55.5001 411.2 55.5001C426.6 55.5001 436 46.4001 436 34.0001C436 21.4001 427 13.1001 412 13.1001ZM229.8 13.2001C227.5 13.2001 221.7 13.5001 219.6 13.5001C218.3 13.5001 213.9 13.3001 212.5 13.3001V14.4001C215.2 14.8001 216.2 16.1001 216.2 18.1001V50.3001C216.2 52.6001 214.8 53.7001 212.5 54.1001V55.3001C213.9 55.3001 218.4 55.1001 219.5 55.1001C220.8 55.1001 225.4 55.3001 226.8 55.3001V54.1001C224.3 53.6001 222.9 52.4001 222.9 50.3001V36.0001C223.6 36.1001 224.2 36.2001 224.9 36.3001C228.1 36.8001 229.9 38.3001 231.3 40.1001C233.6 43.0001 237.8 48.9001 240 51.7001C242.7 54.9001 245.3 56.1001 248.8 56.1001C250.4 56.1001 252.5 55.9001 253.8 55.6001V54.7001C251.1 54.6001 248.5 51.8001 246.6 49.4001C244.6 47.0001 239.6 40.0001 237.8 37.9001C236.3 36.2001 234.9 35.4001 234.9 35.4001C241.3 33.8001 245.5 30.1001 245.5 24.5001C245.5 17.4001 239.8 13.2001 229.8 13.2001ZM362.2 13.2001C359.9 13.2001 354.1 13.5001 352 13.5001C350.7 13.5001 346.3 13.3001 344.9 13.3001V14.4001C347.6 14.8001 348.6 16.1001 348.6 18.1001V50.3001C348.6 52.6001 347.2 53.7001 344.9 54.1001V55.3001C346.3 55.3001 350.8 55.1001 351.9 55.1001C353.2 55.1001 357.8 55.3001 359.2 55.3001V54.1001C356.7 53.6001 355.3 52.4001 355.3 50.3001V36.0001C356 36.1001 356.6 36.2001 357.3 36.3001C360.5 36.8001 362.3 38.3001 363.7 40.1001C366 43.0001 370 48.9001 372.3 51.7001C374.9 54.9001 377.7 56.1001 381.1 56.1001C382.7 56.1001 384.8 55.9001 386.1 55.6001V54.7001C383.4 54.6001 380.9 51.8001 378.9 49.4001C376.9 47.0001 372 40.0001 370.2 37.9001C368.7 36.2001 367.3 35.4001 367.3 35.4001C373.7 33.8001 377.9 30.1001 377.9 24.5001C377.8 17.4001 372.2 13.2001 362.2 13.2001ZM182.1 13.2001C182.1 13.2001 181.4 15.9001 180.8 17.3001L167.4 49.6001C166.4 51.9001 165 53.6001 162.3 54.2001V55.3001L168.4 55.2001C169.3 55.2001 172.9 55.3001 174.3 55.3001V54.2001C171.9 53.6001 171.3 52.6001 171.3 51.5001C171.3 50.7001 171.7 49.6001 172 48.8001L174.8 41.9001H190.5L193.5 48.8001C193.9 49.8001 194.3 50.8001 194.3 51.7001C194.3 52.7001 193.7 53.8001 191.6 54.3001V55.4001C193.2 55.4001 197.7 55.3001 198.8 55.3001C199.9 55.3001 204.6 55.4001 206.2 55.4001V54.3001C203.4 53.6001 202.3 52.0001 201.3 49.7001L187 17.3001C186.4 16.0001 185.8 13.2001 185.8 13.2001H182.1ZM315.1 13.2001C315.1 13.2001 314.4 15.9001 313.9 17.3001L300.5 49.6001C299.5 51.9001 298.1 53.6001 295.5 54.2001V55.3001L301.7 55.2001C302.6 55.2001 306.1 55.3001 307.5 55.3001V54.2001C305.2 53.6001 304.6 52.6001 304.6 51.5001C304.6 50.7001 304.9 49.6001 305.3 48.8001L308.1 41.9001H323.8L326.8 48.8001C327.2 49.8001 327.6 50.8001 327.6 51.7001C327.6 52.7001 327 53.8001 324.9 54.3001V55.4001C326.4 55.4001 331 55.3001 332.1 55.3001C333.2 55.3001 338 55.4001 339.5 55.4001V54.3001C336.7 53.6001 335.6 52.0001 334.6 49.7001L320.4 17.3001C319.8 16.0001 319.1 13.2001 319.1 13.2001H315.1ZM111 13.4001V14.5001C113.1 15.0001 114.4 15.9001 114.4 18.1001V50.7001C114.4 52.9001 113 53.8001 111 54.3001V55.4001L117.5 55.3001C118.8 55.3001 123.5 55.4001 124.5 55.4001V54.3001C122.4 53.8001 121.1 53.0001 121.1 50.7001V35.3001H145.4V50.7001C145.4 52.9001 144 53.8001 142.1 54.3001V55.4001C143.1 55.4001 147.7 55.3001 149 55.3001L155.7 55.4001V54.3001C153.6 53.8001 152.2 52.9001 152.2 50.7001V18.1001C152.2 15.9001 153.7 15.0001 155.7 14.5001V13.4001L149 13.6001C147.7 13.6001 143.1 13.4001 142.1 13.4001V14.5001C144.2 15.0001 145.4 15.9001 145.4 18.1001V31.7001H121.1V18.1001C121.1 15.9001 122.6 15.0001 124.5 14.5001V13.4001C123.5 13.4001 118.8 13.6001 117.5 13.6001C116.5 13.5001 112 13.4001 111 13.4001ZM252.6 13.5001V14.7001C255 15.2001 256.4 16.7001 257.3 18.8001L273.8 55.7001H277L292.1 20.1001C293.5 16.8001 295.1 15.4001 297.6 14.7001V13.5001C296.1 13.5001 292.2 13.7001 291.2 13.7001C290.2 13.7001 286.9 13.5001 285.5 13.5001V14.7001C287.2 15.0001 288.4 15.9001 288.4 17.2001C288.4 18.4001 287.8 19.9001 287 21.9001L276.8 46.5001L266 21.9001C264.8 19.3001 264.2 18.0001 264.2 17.0001C264.2 15.6001 265.8 14.9001 267.1 14.6001V13.4001C265.6 13.4001 261.1 13.6001 260.1 13.6001C259 13.7001 254.1 13.5001 252.6 13.5001ZM227.8 15.9001C234.7 15.9001 238.5 19.4001 238.5 25.1001C238.5 29.1001 236 33.6001 228.2 33.6001C226.3 33.6001 224.3 33.5001 223 33.4001V16.4001C224.6 16.1001 226.2 15.9001 227.8 15.9001ZM360.2 15.9001C367.1 15.9001 370.9 19.4001 370.9 25.1001C370.9 29.1001 368.4 33.6001 360.6 33.6001C358.7 33.6001 356.7 33.5001 355.4 33.4001V16.4001C356.9 16.1001 358.6 15.9001 360.2 15.9001ZM410 15.9001C421.7 15.9001 428.6 23.6001 428.6 34.5001C428.6 45.0001 422.1 52.6001 409.5 52.6001C407.3 52.6001 404.5 52.4001 403 52.2001V16.4001C404.6 16.1001 407.6 15.9001 410 15.9001ZM182.4 23.0001L189.1 38.6001H176.2L182.4 23.0001ZM315.4 23.0001L322 38.6001H309.1L315.4 23.0001Z" fill="white"/>
<path fill-rule="evenodd" clip-rule="evenodd" d="M91.4998 1.99991C91.4998 14.1999 91.6998 26.1999 91.4998 38.4999C91.2998 46.8999 89.4998 55.1999 86.3998 62.9999C79.0998 81.2999 65.0998 96.5999 49.2998 107.5C47.9998 108.4 46.5998 109.3 45.2998 110.1C35.9998 104.1 27.6998 96.3999 20.4998 87.9999C8.69981 73.9999 0.199805 56.7999 -0.200195 37.6999V37.4999V-0.100098H91.4998V1.99991ZM1.39981 37.0999C1.59981 59.3999 14.1998 80.6999 30.1998 95.8999C34.8998 100.4 39.7998 104.5 45.1998 108.1H45.2998C53.8998 102.8 61.6998 95.7999 68.4998 88.2999C80.9998 74.2999 89.7998 56.4999 89.8998 36.9999C89.8998 25.2999 89.8998 13.5999 89.8998 1.79991V1.29991H1.39981V35.6999V37.0999Z" fill="white"/>
<path fill-rule="evenodd" clip-rule="evenodd" d="M67.8999 43.1C67.8999 43.1 67.0999 45.6 63.6999 43L51.8999 42.7C51.8999 42.7 50.3999 43.2 50.0999 41.6C50.0999 41.6 50.3999 38.4 50.1999 38.1C50.1999 38.1 50.2999 37.2 48.6999 37.2C48.6999 37.2 46.2999 37.4999 46.2999 35.3999C46.2999 35.3999 45.8999 33.2 49.1999 33.2C49.1999 33.2 50.2999 33.6999 50.2999 32.3999C50.2999 32.3999 50.1999 23.3 50.1999 22.6C50.1999 22.6 50.4999 21.8 48.8999 21.6C48.8999 21.6 46.5999 22.1 46.2999 20.6C46.2999 20.6 46.1999 18.3 47.6999 18.1C47.6999 18.1 49.5999 18.2 49.8999 17.8C49.8999 17.8 50.2999 18.0999 50.2999 16.3999L50.3999 13.5C50.3999 13.5 50.5999 12.7 51.7999 12.8C51.7999 12.8 53.9999 12.9 54.2999 12.7C54.2999 12.7 54.7999 12.1 54.8999 11.8C54.8999 11.8 55.9999 11.7 56.1999 12C56.1999 12 57.8999 13.1 64.2999 12.7C64.2999 12.7 65.2999 12.7 65.4999 13C65.4999 13 66.6999 13.8999 67.3999 12.8999C67.3999 12.8999 68.4999 12.7 71.5999 12.8C71.5999 12.8 74.9999 13.7 77.3999 11.7L78.1999 11.8C78.1999 11.8 79.1999 13.3999 79.8999 12.8999C79.8999 12.8999 81.9999 12.7 82.3999 13.1C82.3999 13.1 83.0999 14.0999 82.6999 16.8999C82.6999 16.8999 82.2999 18.1 84.2999 18.1C84.2999 18.1 86.5999 17.7 86.2999 19.8C86.2999 19.8 86.8999 22.2999 83.0999 21.8999C83.0999 21.8999 82.5999 22.6 82.6999 23.1C82.6999 23.1 82.5999 31.1 82.5999 32C82.5999 32 82.4999 33.3 84.1999 33.2C84.1999 33.2 86.3999 33.1 86.4999 35.1C86.4999 35.1 86.7999 37.8 83.5999 37.3C83.5999 37.3 82.5999 37.4 82.4999 38.1L82.3999 41.6C82.3999 41.6 82.4999 43.3999 80.4999 42.8999C80.1999 42.8999 69.5999 43.1 68.6999 42.8C68.4999 42.9 67.9999 42.8 67.8999 43.1Z" fill="white"/>
<path fill-rule="evenodd" clip-rule="evenodd" d="M45.3002 54.8001C45.3002 54.8001 45.8002 54.6001 45.9002 54.2001C45.9002 54.2001 47.4002 54.1001 47.6002 53.8001L52.2002 54.2001C52.2002 54.2001 56.8002 54.5001 58.7002 53.1001C58.7002 53.1001 59.4002 53.1001 59.9002 53.3001C59.9002 53.3001 60.9002 53.5001 61.2002 53.9001L63.9002 53.8001C63.9002 53.8001 65.4002 54.3001 65.3002 55.3001V56.6001C65.3002 56.6001 65.0002 59.1001 65.7002 59.3001H67.7002C67.7002 59.3001 69.4002 60.1001 69.2002 61.0001C69.2002 61.0001 69.3002 62.4001 67.8002 62.7001C67.8002 62.7001 66.3002 63.1001 65.8002 63.1001C65.8002 63.1001 65.3002 63.7001 65.2002 64.5001L65.0002 73.7001C65.0002 73.7001 64.9002 74.7001 66.3002 74.5001C66.3002 74.5001 68.5002 74.3001 69.1002 75.5001C69.1002 75.5001 69.7002 77.5001 68.5002 77.9001L67.7002 78.3001L65.9002 78.6001C65.9002 78.6001 65.1002 78.7001 65.1002 80.0001V82.4001C65.1002 82.4001 65.2002 84.1001 63.8002 84.1001L61.8002 84.2001C61.8002 84.2001 61.3002 84.6001 60.3002 84.3001C60.3002 84.3001 48.4002 84.5001 48.0002 84.4001L46.6002 84.7001C46.6002 84.7001 45.1002 86.1001 43.8002 85.0001L42.8002 84.2001C42.8002 84.2001 42.1002 84.3001 41.8002 84.3001C41.5002 84.2001 28.6002 84.4001 28.6002 84.4001C28.6002 84.4001 25.9002 84.7001 25.7002 83.8001C25.7002 83.8001 25.4002 80.2001 25.5002 79.8001C25.5002 79.8001 25.5002 78.8001 24.9002 78.7001C24.9002 78.7001 22.2002 78.6001 22.1002 78.3001C22.1002 78.3001 20.6002 77.3001 21.0002 76.2001C21.0002 76.2001 21.5002 74.8001 23.0002 74.7001C23.0002 74.7001 25.2002 75.1001 25.2002 74.4001C25.2002 74.4001 25.3002 74.0001 25.3002 73.3001C25.3002 73.3001 25.4002 65.0001 25.4002 64.4001C25.4002 64.4001 25.6002 63.3001 24.7002 63.3001C24.7002 63.3001 23.7002 63.6001 23.1002 63.2001C23.1002 63.2001 21.4002 63.3001 21.1002 61.9001C21.1002 61.9001 20.8002 61.1001 21.2002 60.4001C21.2002 60.4001 22.0002 58.9001 24.2002 59.4001C24.2002 59.4001 25.5002 59.8001 25.6002 58.8001L25.5002 55.4001C25.5002 55.4001 25.2002 54.5001 27.0002 54.0001C27.0002 54.0001 29.2002 54.6001 29.9002 53.5001C29.9002 53.5001 30.7002 52.0001 31.3002 53.0001C31.3002 53.0001 32.6002 54.3001 36.3002 54.1001C36.3002 54.1001 42.6002 53.6001 42.7002 53.9001C42.7002 53.9001 44.2002 54.1001 44.7002 54.6001L45.3002 54.8001ZM26.2002 43.1001C26.2002 43.1001 25.4002 45.6001 22.0002 43.0001L10.2002 42.7001C10.2002 42.7001 8.70019 43.2001 8.40019 41.6001C8.40019 41.6001 8.70019 38.4001 8.50019 38.1001C8.50019 38.1001 8.60019 37.2001 7.00019 37.2001C7.00019 37.2001 4.60019 37.5001 4.60019 35.4001C4.60019 35.4001 4.20019 33.1001 7.50019 33.2001C7.50019 33.2001 8.50019 33.7001 8.60019 32.4001C8.60019 32.4001 8.50019 23.3001 8.50019 22.6001C8.50019 22.6001 8.80019 21.8001 7.20019 21.6001C7.20019 21.6001 4.90019 22.1001 4.60019 20.5001C4.60019 20.5001 4.50019 18.2001 6.00019 18.0001C6.00019 18.0001 7.90019 18.1001 8.20019 17.7001C8.20019 17.7001 8.60019 18.0001 8.50019 16.3001L8.60019 13.4001C8.60019 13.4001 8.80019 12.6001 10.0002 12.7001C10.0002 12.7001 12.2002 12.8001 12.5002 12.6001C12.5002 12.6001 13.0002 12.0001 13.1002 11.7001C13.1002 11.7001 14.2002 11.6001 14.4002 11.9001C14.4002 11.9001 16.1002 13.0001 22.5002 12.6001C22.5002 12.6001 23.5002 12.6001 23.7002 12.9001C23.7002 12.9001 24.9002 13.8001 25.6002 12.8001C25.6002 12.8001 26.7002 12.6001 29.8002 12.7001C29.8002 12.7001 33.2002 13.6001 35.6002 11.7001L36.4002 11.8001C36.4002 11.8001 37.4002 13.4001 38.1002 12.9001C38.1002 12.9001 40.2002 12.7001 40.6002 13.1001C40.6002 13.1001 41.3002 14.2001 40.9002 16.9001C40.9002 16.9001 40.5002 18.1001 42.5002 18.1001C42.5002 18.1001 44.8002 17.7001 44.5002 19.8001C44.5002 19.8001 45.1002 22.3001 41.3002 21.9001C41.3002 21.9001 40.8002 22.6001 40.9002 23.1001C40.9002 23.1001 40.8002 31.1001 40.8002 32.0001C40.8002 32.0001 40.7002 33.3001 42.4002 33.2001C42.4002 33.2001 44.6002 33.1001 44.7002 35.1001C44.7002 35.1001 45.0002 37.8001 41.8002 37.3001C41.8002 37.3001 40.8002 37.4001 40.7002 38.1001L40.6002 41.6001C40.6002 41.6001 40.7002 43.4001 38.7002 42.9001C38.4002 42.9001 27.8002 43.1001 26.9002 42.8001C26.8002 42.9001 26.4002 42.8001 26.2002 43.1001Z" fill="white"/>
<path fill-rule="evenodd" clip-rule="evenodd" d="M67.8999 43.1C67.8999 43.1 67.0999 45.6 63.6999 43L51.8999 42.7C51.8999 42.7 50.3999 43.2 50.0999 41.6C50.0999 41.6 50.3999 38.4 50.1999 38.1C50.1999 38.1 50.2999 37.2 48.6999 37.2C48.6999 37.2 46.2999 37.4999 46.2999 35.3999C46.2999 35.3999 45.8999 33.2 49.1999 33.2C49.1999 33.2 50.2999 33.6999 50.2999 32.3999C50.2999 32.3999 50.1999 23.3 50.1999 22.6C50.1999 22.6 50.4999 21.8 48.8999 21.6C48.8999 21.6 46.5999 22.1 46.2999 20.6C46.2999 20.6 46.1999 18.3 47.6999 18.1C47.6999 18.1 49.5999 18.2 49.8999 17.8C49.8999 17.8 50.2999 18.0999 50.2999 16.3999L50.3999 13.5C50.3999 13.5 50.5999 12.7 51.7999 12.8C51.7999 12.8 53.9999 12.9 54.2999 12.7C54.2999 12.7 54.7999 12.1 54.8999 11.8C54.8999 11.8 55.9999 11.7 56.1999 12C56.1999 12 57.8999 13.1 64.2999 12.7C64.2999 12.7 65.2999 12.7 65.4999 13C65.4999 13 66.6999 13.8999 67.3999 12.8999C67.3999 12.8999 68.4999 12.7 71.5999 12.8C71.5999 12.8 74.9999 13.7 77.3999 11.7L78.1999 11.8C78.1999 11.8 79.1999 13.3999 79.8999 12.8999C79.8999 12.8999 81.9999 12.7 82.3999 13.1C82.3999 13.1 83.0999 14.0999 82.6999 16.8999C82.6999 16.8999 82.2999 18.1 84.2999 18.1C84.2999 18.1 86.5999 17.7 86.2999 19.8C86.2999 19.8 86.8999 22.2999 83.0999 21.8999C83.0999 21.8999 82.5999 22.6 82.6999 23.1C82.6999 23.1 82.5999 31.1 82.5999 32C82.5999 32 82.4999 33.3 84.1999 33.2C84.1999 33.2 86.3999 33.1 86.4999 35.1C86.4999 35.1 86.7999 37.8 83.5999 37.3C83.5999 37.3 82.5999 37.4 82.4999 38.1L82.3999 41.6C82.3999 41.6 82.4999 43.3999 80.4999 42.8999C80.1999 42.8999 69.5999 43.1 68.6999 42.8C68.4999 42.9 67.9999 42.8 67.8999 43.1Z" fill="#231F20"/>
<path fill-rule="evenodd" clip-rule="evenodd" d="M66.4002 39.7C66.4002 39.7 65.1002 39.7 65.1002 41.5C65.1002 41.5 65.2002 42.8 66.6002 42.8C66.6002 42.8 67.9002 42.6 67.7002 41.2C67.8002 41.2 67.1002 39.4 66.4002 39.7ZM82.3002 21C82.3002 21 81.6002 21.4 81.8002 22.3L81.6002 32.5C81.6002 32.5 81.5002 34.2 83.1002 34.2C83.1002 34.2 84.8002 34.1 85.2002 34.7C85.2002 34.7 86.4002 36.5 83.8002 36.3C83.8002 36.3 82.2002 36.2 81.8002 36.5C81.8002 36.5 81.5002 36.8 81.3002 40.1C81.3002 40.1 81.4002 42.1 80.0002 41.8C80.0002 41.8 70.3002 41.9 69.3002 41.7C69.3002 41.7 68.3002 42 68.2002 41.2C68.2002 41.2 68.2002 40.6 69.2002 40.6L79.0002 40.5C79.0002 40.5 79.9002 41 79.9002 39.3C79.9002 39.3 80.3002 31.7 80.3002 23.3C80.3002 20.8 80.4002 18.2 80.3002 15.7C80.3002 15.7 80.1002 14.6 79.8002 14.4C79.8002 14.4 79.8002 13.3 81.0002 13.7C81.0002 13.7 82.1002 13.8 81.8002 15.4L81.9002 17.8C81.9002 17.8 81.7002 18.9 83.6002 18.6C83.6002 18.6 85.5002 18.9 85.6002 19.6C85.6002 19.6 86.2002 21 83.9002 20.9H82.3002V21ZM52.5002 41.8C51.1002 41.7 51.2002 40.7 51.2002 40.7V38C51.3002 36.6 49.8002 36.3 49.8002 36.3C47.8002 36.7 47.3002 35.5 47.3002 35.5C47.2002 34 49.6002 34.2 49.6002 34.2C51.6002 34.2 51.0002 32.4 51.0002 32.4L51.1002 21.8C51.0002 20.8 48.4002 20.8 48.4002 20.8C46.8002 21.1 47.2002 19.5 47.2002 19.5C48.0002 18.7 49.7002 18.8 49.7002 18.8C51.2002 18.9 51.2002 17.3 51.2002 17.3L51.3002 14.4C52.9002 12.9 53.2002 14.1 53.2002 14.1C52.3002 15.5 52.5002 18.9 52.5002 18.9L52.4002 18.6C52.5002 18.9 52.3002 38.7 52.3002 38.7C52.4002 40.9 53.9002 40.4 53.9002 40.4L63.0002 40.5C63.8002 40.5 63.9002 41.1 63.9002 41.1C63.9002 41.8 63.3002 41.7 63.3002 41.7H52.5002V41.8ZM54.4002 38.7C54.4002 38.7 54.1002 39.7 55.2002 39.5H62.4002L64.4002 39.9C64.4002 39.9 66.4002 39.4 64.4002 38.3C64.4002 38.3 58.0002 38.4 57.4002 38.2L55.8002 37.8C55.8002 37.8 55.1002 37.6 54.4002 38.7ZM67.4002 39C67.4002 39 68.0002 38.3 68.5002 38.3C68.5002 38.3 75.5002 38.9 76.7002 38.1C76.7002 38.1 77.8002 37.9 78.0002 38.1C78.0002 38.1 79.0002 38.9 79.0002 39.4C79.0002 39.4 78.9002 40 77.7002 39.7C77.7002 39.7 69.8002 39.8 69.4002 39.8C69.4002 39.8 67.2002 40.3 67.4002 39ZM53.4002 38.6C53.3002 38.6 53.1002 38.6 53.0002 37.8L53.1002 16.8C53.1002 16.8 53.2002 14.2 54.6002 14.3C54.6002 14.3 54.7002 15.7 54.7002 16.1C54.7002 16.4 54.5002 36.4 54.5002 36.4C54.5002 36.4 54.8002 37.8 53.4002 38.6ZM79.8002 18L79.5002 37.2C79.4002 37.9 79.3002 38.3 79.3002 38.3C78.4002 38.5 77.8002 36.5 77.8002 36.5L77.9002 14.4C79.1002 12.7 79.8002 16.1 79.8002 16.1V18ZM66.8002 14.7C66.8002 14.7 66.6002 25.3 66.7002 25.6L66.6002 34.5L66.3002 37.6C66.3002 37.6 66.7002 38.2 67.1002 37.8C67.1002 37.8 69.3002 37.2 70.7002 37.5C70.7002 37.5 75.2002 37.9 76.1002 37.2C76.1002 37.2 76.8002 37.6 77.0002 36.4C77.0002 36.4 77.3002 16.8 77.1002 16.4C77.1002 16.4 77.4002 13.6 77.2002 13.3C77.2002 13.3 77.1002 12.7 75.9002 13.2C75.9002 13.2 76.0002 13.8 69.4002 13.5C69.4002 13.7 66.9002 13.6 66.8002 14.7ZM55.7002 13.6L55.5002 36.1C55.5002 36.1 55.4002 37.1 57.2002 37.4C57.2002 37.4 59.2002 37.6 59.7002 37.4C59.7002 37.4 61.0002 37.3 64.5002 37.5C64.5002 37.5 65.3002 38.3 65.4002 37.3C65.4002 37.3 66.0002 19.1 65.7002 15.3C65.7002 15.3 65.6002 13.7 64.4002 13.6C64.4002 13.6 59.1002 14 58.6002 13.6L56.5002 13C56.5002 13 55.6002 13 55.7002 13.6Z" fill="white"/>
<path fill-rule="evenodd" clip-rule="evenodd" d="M61.8 20.5999C64.6 21.4999 64.1999 23.4999 64.1999 23.4999C64.3999 25.4999 62.1999 26.3999 62.1999 26.3999L62.0999 27.4999L64.0999 30.6999C64.3999 30.9999 64.4 31.2999 64.4 31.2999C64.1 32.0999 63 31.2999 63 31.2999L60.5 27.3999C60.3 27.0999 59.9 27.5999 59.9 27.5999L59.8 29.7999L60.4 30.7999C60.8 31.3999 60.0999 31.7999 60.0999 31.7999L57.9 31.5999C57.5 31.3999 57.9 30.6999 57.9 30.6999C58.5 30.3999 58.5 29.3999 58.5 29.3999L58.4 25.2999L58.5 22.3999C58.5 21.9999 57.9 21.3999 57.9 21.3999C57.4 21.2999 57.5999 20.6999 57.5999 20.6999C57.6999 20.2999 58.9 20.5999 58.9 20.5999H61.8ZM69.3 21.0999C69.1 20.4999 70.5 20.4999 70.5 20.4999L71.1999 20.5999C71.6999 20.4999 72.1999 20.6999 72.1999 20.6999C72.6999 21.4999 71.8 21.8999 71.8 21.8999L71.5 22.7999C71.4 23.5999 71.5 30.1999 71.5 30.1999C71.6 30.4999 72.1999 31.1999 72.1999 31.1999C72.1999 31.7999 71.3999 31.6999 71.3999 31.6999L69.3999 31.7999C68.7999 31.6999 69 30.9999 69 30.9999C69.7 30.6999 69.8999 29.3999 69.8999 29.3999V22.4999L69.3 21.0999ZM59.9 22.0999C60 23.5999 60 25.6999 60 25.6999C61.3 26.7999 62.0999 25.2999 62.0999 25.2999C63.7999 23.5999 62.1 22.0999 61.8 21.6999C61.5 21.2999 60.0999 21.5999 60.0999 21.5999L59.9 22.0999ZM45.3 54.7999C45.3 54.7999 45.8 54.5999 45.9 54.1999C45.9 54.1999 47.3999 54.0999 47.5999 53.7999L52.1999 54.1999C52.1999 54.1999 56.7999 54.4999 58.6999 53.0999C58.6999 53.0999 59.4 53.0999 59.9 53.2999C59.9 53.2999 60.8999 53.4999 61.1999 53.8999L63.9 53.7999C63.9 53.7999 65.4 54.2999 65.3 55.2999V56.5999C65.3 56.5999 64.9999 59.0999 65.6999 59.2999H67.6999C67.6999 59.2999 69.3999 60.0999 69.1999 60.9999C69.1999 60.9999 69.3 62.3999 67.8 62.6999C67.8 62.6999 66.3 63.0999 65.8 63.0999C65.8 63.0999 65.2999 63.6999 65.1999 64.4999L65 73.6999C65 73.6999 64.9 74.6999 66.3 74.4999C66.3 74.4999 68.5 74.2999 69.1 75.4999C69.1 75.4999 69.7 77.4999 68.5 77.8999L67.6999 78.2999L65.9 78.5999C65.9 78.5999 65.0999 78.6999 65.0999 79.9999V82.3999C65.0999 82.3999 65.2 84.0999 63.8 84.0999L61.8 84.1999C61.8 84.1999 61.3 84.5999 60.3 84.2999C60.3 84.2999 48.3999 84.4999 47.9999 84.3999L46.5999 84.6999C46.5999 84.6999 45.1 86.0999 43.8 84.9999L42.8 84.1999C42.8 84.1999 42.1 84.2999 41.8 84.2999C41.5 84.1999 28.5999 84.3999 28.5999 84.3999C28.5999 84.3999 25.8999 84.6999 25.6999 83.7999C25.6999 83.7999 25.3999 80.1999 25.4999 79.7999C25.4999 79.7999 25.5 78.7999 24.9 78.6999C24.9 78.6999 22.1999 78.5999 22.0999 78.2999C22.0999 78.2999 20.5999 77.2999 20.9999 76.1999C20.9999 76.1999 21.4999 74.7999 22.9999 74.6999C22.9999 74.6999 25.1999 75.0999 25.1999 74.3999C25.1999 74.3999 25.3 73.9999 25.3 73.2999C25.3 73.2999 25.4 64.9999 25.4 64.3999C25.4 64.3999 25.5999 63.2999 24.6999 63.2999C24.6999 63.2999 23.6999 63.5999 23.0999 63.1999C23.0999 63.1999 21.3999 63.2999 21.0999 61.8999C21.0999 61.8999 20.7999 61.0999 21.1999 60.3999C21.1999 60.3999 21.9999 58.8999 24.1999 59.3999C24.1999 59.3999 25.4999 59.7999 25.5999 58.7999L25.4999 55.3999C25.4999 55.3999 25.1999 54.4999 26.9999 53.9999C26.9999 53.9999 29.2 54.5999 29.9 53.4999C29.9 53.4999 30.7 51.9999 31.3 52.9999C31.3 52.9999 32.6 54.2999 36.3 54.0999C36.3 54.0999 42.5999 53.5999 42.6999 53.8999C42.6999 53.8999 44.1999 54.0999 44.6999 54.5999L45.3 54.7999Z" fill="#231F20"/>
<path fill-rule="evenodd" clip-rule="evenodd" d="M44.9002 81.0001C44.9002 81.0001 46.1002 81.2001 46.1002 82.3001C46.1002 83.4001 46.2002 84.1001 45.5002 84.2001C44.8002 84.3001 44.0002 84.1001 43.8002 83.2001C43.6002 82.4001 43.9002 81.2001 44.9002 81.0001ZM28.6002 55.7001C28.6002 55.7001 27.8002 57.2001 27.8002 57.6001L27.7002 62.3001C27.7002 62.3001 27.6002 65.3001 27.7002 65.7001C27.8002 66.0001 27.6002 74.9001 27.6002 74.9001C27.6002 74.9001 27.5002 76.6001 27.6002 77.1001V80.9001C27.6002 80.9001 27.5002 82.6001 28.7002 82.2001C28.7002 82.2001 41.0002 81.9001 41.8002 82.1001C41.8002 82.1001 42.9002 82.3001 42.5002 82.9001C42.5002 82.9001 42.5002 83.4001 41.7002 83.3001C41.7002 83.3001 35.9002 83.9001 30.6002 83.6001C30.6002 83.6001 27.1002 83.8001 26.9002 83.4001C26.9002 83.4001 26.3002 83.3001 26.3002 81.3001C26.3002 81.3001 26.3002 79.4001 26.2002 79.1001C26.2002 79.1001 26.3002 78.1001 24.6002 77.9001C24.6002 77.9001 22.1002 78.3001 22.1002 76.9001C22.1002 76.9001 22.4002 75.8001 24.8002 76.0001C24.8002 76.0001 26.6002 76.3001 26.2002 74.9001L26.4002 64.5001C26.4002 64.5001 26.6002 62.7001 25.4002 62.6001C25.4002 62.6001 24.3002 62.5001 23.9002 62.7001C23.9002 62.7001 21.9002 62.7001 22.0002 61.5001C22.0002 61.5001 22.7002 60.2001 24.7002 60.5001C24.7002 60.5001 26.2002 60.8001 26.3002 59.0001C26.3002 59.0001 26.2002 55.4001 27.1002 55.3001C27.3002 55.2001 29.1002 55.2001 28.6002 55.7001ZM62.7002 55.2001C62.9002 55.1001 63.9002 54.9001 64.1002 55.3001C64.1002 55.3001 64.7002 57.0001 64.2002 58.0001C64.2002 58.0001 64.1002 60.0001 65.1002 60.0001C65.1002 60.0001 65.5002 60.4001 66.4002 60.2001C66.4002 60.2001 68.2002 60.4001 68.2002 61.0001C68.2002 61.0001 68.2002 62.3001 66.9002 62.1001L65.2002 62.2001C65.2002 62.2001 64.1002 62.4001 64.2002 63.7001C64.3002 65.0001 64.1002 74.6001 64.1002 74.6001C64.1002 74.6001 64.1002 75.7001 65.9002 75.7001C65.9002 75.7001 68.1002 75.6001 68.1002 76.3001C68.1002 76.3001 68.7002 77.7001 67.1002 77.8001C67.1002 77.8001 64.2002 77.7001 64.4002 78.6001C64.4002 78.6001 64.2002 80.6001 64.0002 80.9001C64.0002 80.9001 64.3002 82.5001 63.9002 82.8001C63.9002 82.8001 63.7002 83.7001 61.8002 83.6001C61.8002 83.6001 49.7002 83.5001 47.9002 83.7001C47.9002 83.7001 46.8002 83.6001 47.1002 82.6001C47.1002 82.6001 47.9002 82.2001 48.5002 82.3001C49.1002 82.4001 57.3002 82.2001 57.3002 82.2001C57.3002 82.2001 60.9002 82.5001 61.4002 82.0001L62.2002 81.7001C62.2002 81.7001 62.6002 81.3001 62.6002 80.7001C62.6002 80.1001 62.7002 78.2001 62.7002 78.2001L62.9002 77.5001C62.9002 77.5001 62.8002 76.8001 62.9002 58.1001C62.9002 58.1001 63.2002 56.6001 62.3002 55.7001C62.3002 55.7001 62.3002 55.1001 62.6002 55.2001H62.7002ZM57.2002 79.8001C57.3002 79.8001 58.9002 79.8001 59.4002 79.2001C59.4002 79.2001 59.9002 79.1001 60.2002 79.6001L61.2002 80.7001C61.2002 80.7001 61.3002 81.4001 60.1002 81.3001C59.9002 81.3001 48.7002 81.3001 48.3002 81.4001C48.3002 81.4001 46.1002 81.7001 46.3002 80.6001C46.3002 80.6001 47.6002 79.8001 48.1002 79.9001C48.1002 79.9001 54.5002 80.3001 56.4002 80.0001C57.3002 79.8001 57.5002 79.8001 57.5002 79.8001H57.2002ZM30.7002 78.9001C30.7002 78.9001 30.9002 79.1001 31.2002 79.3001C31.6002 79.6001 32.4002 79.9001 33.3002 79.9001L42.8002 80.0001H42.9002C42.9002 80.0001 44.0002 80.1001 43.9002 80.6001C43.9002 80.6001 43.8002 81.4001 42.5002 81.2001L31.0002 81.1001L29.8002 81.2001C29.8002 81.2001 29.0002 81.1001 30.3002 79.4001L30.7002 78.9001ZM30.0002 77.9001C30.0002 78.4001 29.9002 79.3001 29.0002 79.9001C29.0002 79.9001 28.4002 80.7001 28.4002 79.5001L28.7002 57.9001C28.7002 57.9001 28.8002 56.3001 29.8002 55.6001C29.8002 55.6001 30.3002 55.6001 30.2002 56.4001L30.0002 77.6001V77.9001ZM61.4002 79.9001C61.0002 79.7001 60.1002 78.1001 60.1002 78.1001L60.2002 77.6001L60.3002 56.1001C60.3002 55.0001 61.2002 55.7001 61.2002 55.7001L62.0002 57.2001C61.8002 58.3001 62.0002 59.0001 62.0002 59.0001L61.9002 79.2001C62.1002 80.6001 61.5002 80.0001 61.4002 79.9001ZM44.6002 68.4001C44.6002 68.4001 44.7002 70.1001 44.5002 71.7001C44.4002 72.6001 44.8002 76.7001 44.4002 78.8001C44.4002 78.8001 44.3002 79.5001 42.9002 78.9001C42.9002 78.9001 33.9002 79.1001 33.7002 78.8001C33.7002 78.8001 31.2002 78.9001 31.0002 77.6001C31.0002 77.6001 31.3002 68.0001 31.1002 67.6001C31.1002 67.6001 31.0002 62.3001 31.1002 61.9001C31.1002 61.9001 31.3002 57.1001 31.2002 56.5001C31.2002 56.5001 31.3002 55.4001 31.1002 54.8001C31.1002 54.8001 31.1002 54.1001 32.3002 54.5001C32.3002 54.5001 32.7002 55.3001 35.0002 54.9001C35.0002 54.9001 36.7002 55.2001 38.3002 55.0001C38.3002 55.0001 41.9002 54.7001 42.8002 55.0001C42.8002 55.0001 44.2002 54.7001 44.6002 56.3001L44.5002 60.6001L44.9002 62.0001L45.4002 61.7001L45.6002 60.6001L45.7002 56.0001C45.7002 56.0001 46.0002 55.2001 47.1002 55.0001C47.1002 55.0001 48.9002 54.8001 49.1002 54.9001C49.4002 55.0001 53.2002 55.2001 54.2002 55.0001C55.2002 54.8001 55.5002 55.7001 58.6002 54.1001C58.6002 54.1001 59.4002 54.2001 59.4002 54.7001C59.4002 54.7001 59.1002 60.7001 59.4002 61.8001C59.4002 61.8001 59.4002 72.7001 59.2002 73.5001L59.3002 77.0001C59.3002 77.0001 59.4002 78.5001 57.0002 78.7001C57.0002 78.7001 58.5002 78.9001 48.9002 78.6001C48.9002 78.6001 47.4002 78.5001 45.7002 79.3001C45.7002 79.3001 45.4002 79.2001 45.4002 78.3001C45.4002 78.3001 45.7002 75.0001 45.4002 71.8001L45.3002 68.2001L44.6002 68.4001Z" fill="white"/>
<path fill-rule="evenodd" clip-rule="evenodd" d="M38.3002 63.4001C38.3002 63.4001 38.5002 68.6001 38.3002 69.3001L38.2002 70.4001C38.2002 70.4001 38.5002 71.2001 38.9002 71.4001C38.9002 71.4001 39.3002 72.4001 38.4002 72.3001C38.4002 72.3001 36.7002 72.2001 36.2002 72.2001C36.2002 72.2001 35.2002 72.2001 36.2002 70.9001C36.2002 70.9001 36.5002 70.4001 36.5002 69.1001C36.5002 69.1001 36.5002 63.2001 36.6002 62.9001C36.6002 62.9001 36.7002 62.1001 36.2002 61.9001L35.4002 62.0001L34.4002 63.0001C34.4002 63.0001 34.2002 64.1001 33.7002 62.9001V62.3001L34.3002 60.6001L34.7002 60.5001C34.7002 60.5001 35.3002 60.9001 35.9002 61.1001H39.2002L40.4002 60.5001C40.4002 60.5001 40.9002 60.6001 40.8002 61.2001C40.8002 61.2001 41.0002 62.8001 40.1002 63.0001C40.1002 63.0001 39.5002 62.8001 39.3002 62.0001C39.2002 62.3001 38.3002 61.8001 38.3002 63.4001ZM53.7002 61.6001C53.7002 61.6001 51.0002 61.4001 51.0002 64.3001C51.0002 64.3001 50.7002 66.3001 53.7002 67.5001C53.7002 67.5001 55.9002 68.5001 55.7002 69.9001C55.7002 69.9001 55.4002 72.3001 53.1002 71.1001C53.1002 71.1001 52.0002 70.5001 52.1002 69.9001C52.1002 69.9001 51.7002 69.1001 51.3002 69.3001C51.3002 69.3001 50.8002 69.4001 51.0002 71.8001C51.0002 71.8001 51.0002 72.7001 52.0002 71.8001L52.6002 71.9001C52.6002 71.9001 54.5002 73.4001 56.1002 71.5001C56.1002 71.5001 57.9002 69.9001 56.6002 67.9001C56.6002 67.9001 55.7002 66.5001 54.1002 65.8001C54.1002 65.8001 52.6002 65.1001 52.2002 63.9001C52.2002 63.9001 52.7002 61.8001 54.6002 62.9001C54.6002 62.9001 55.3002 63.7001 55.7002 63.9001C55.7002 63.9001 56.3002 63.9001 56.1002 62.6001L56.0002 61.6001C56.0002 61.6001 55.9002 60.8001 54.9002 61.6001C54.9002 61.6001 54.0002 61.9001 53.7002 61.6001ZM45.2002 60.1001C45.7002 60.5001 45.8002 61.2001 45.8002 61.2001C47.2002 64.9001 48.4002 70.3001 48.4002 70.3001C48.7002 71.0001 49.4002 71.6001 49.4002 71.6001C50.6002 72.0001 49.4002 72.4001 49.4002 72.4001C48.9002 72.6001 47.3002 72.3001 47.3002 72.3001C46.5002 72.1001 46.8002 71.9001 46.8002 71.9001C47.2002 71.6001 46.9002 70.1001 46.9002 70.1001C46.8002 69.5001 46.2002 68.6001 46.2002 68.6001C45.9002 68.5001 45.4002 69.1001 45.4002 69.1001C45.4002 69.1001 44.6002 69.4001 44.6002 69.1001C44.5002 68.8001 44.0002 68.6001 44.0002 68.6001C43.2002 68.6001 42.8002 70.7001 42.8002 70.7001C43.3002 72.5001 42.8002 72.2001 42.8002 72.2001C42.4002 72.8001 41.0002 72.4001 41.0002 72.4001C40.4002 72.2001 40.8002 71.8001 40.8002 71.8001C41.6002 71.7001 41.8002 70.8001 41.8002 70.8001C42.2002 70.3001 44.4002 61.2001 44.4002 61.2001C44.6002 60.6001 44.7002 59.7001 45.2002 60.1001ZM44.1002 64.7001C44.0002 65.1001 43.5002 67.0001 43.5002 67.0001L43.9002 67.7001C43.9002 67.7001 45.0002 67.8001 45.4002 67.8001C45.8002 67.8001 45.9002 67.5001 45.9002 67.1001C45.9002 66.8001 45.1002 64.7001 45.1002 64.7001L44.7002 64.3001L44.1002 64.7001ZM26.2002 43.1001C26.2002 43.1001 25.4002 45.6001 22.0002 43.0001L10.2002 42.7001C10.2002 42.7001 8.70019 43.2001 8.40019 41.6001C8.40019 41.6001 8.70019 38.4001 8.50019 38.1001C8.50019 38.1001 8.60019 37.2001 7.00019 37.2001C7.00019 37.2001 4.60019 37.5001 4.60019 35.4001C4.60019 35.4001 4.20019 33.1001 7.50019 33.2001C7.50019 33.2001 8.50019 33.7001 8.60019 32.4001C8.60019 32.4001 8.50019 23.3001 8.50019 22.6001C8.50019 22.6001 8.80019 21.8001 7.20019 21.6001C7.20019 21.6001 4.90019 22.1001 4.60019 20.5001C4.60019 20.5001 4.50019 18.2001 6.00019 18.0001C6.00019 18.0001 7.90019 18.1001 8.20019 17.7001C8.20019 17.7001 8.60019 18.0001 8.50019 16.3001L8.60019 13.4001C8.60019 13.4001 8.80019 12.6001 10.0002 12.7001C10.0002 12.7001 12.2002 12.8001 12.5002 12.6001C12.5002 12.6001 13.0002 12.0001 13.1002 11.7001C13.1002 11.7001 14.2002 11.6001 14.4002 11.9001C14.4002 11.9001 16.1002 13.0001 22.5002 12.6001C22.5002 12.6001 23.5002 12.6001 23.7002 12.9001C23.7002 12.9001 24.9002 13.8001 25.6002 12.8001C25.6002 12.8001 26.7002 12.6001 29.8002 12.7001C29.8002 12.7001 33.2002 13.6001 35.6002 11.7001L36.4002 11.8001C36.4002 11.8001 37.4002 13.4001 38.1002 12.9001C38.1002 12.9001 40.2002 12.7001 40.6002 13.1001C40.6002 13.1001 41.3002 14.2001 40.9002 16.9001C40.9002 16.9001 40.5002 18.1001 42.5002 18.1001C42.5002 18.1001 44.8002 17.7001 44.5002 19.8001C44.5002 19.8001 45.1002 22.3001 41.3002 21.9001C41.3002 21.9001 40.8002 22.6001 40.9002 23.1001C40.9002 23.1001 40.8002 31.1001 40.8002 32.0001C40.8002 32.0001 40.7002 33.3001 42.4002 33.2001C42.4002 33.2001 44.6002 33.1001 44.7002 35.1001C44.7002 35.1001 45.0002 37.8001 41.8002 37.3001C41.8002 37.3001 40.8002 37.4001 40.7002 38.1001L40.6002 41.6001C40.6002 41.6001 40.7002 43.4001 38.7002 42.9001C38.4002 42.9001 27.8002 43.1001 26.9002 42.8001C26.8002 42.9001 26.4002 42.8001 26.2002 43.1001Z" fill="#231F20"/>
<path fill-rule="evenodd" clip-rule="evenodd" d="M12.9999 14.1999C12.9999 14.1999 13.0999 15.5999 13.0999 15.8999C13.0999 16.1999 12.8999 36.1999 12.8999 36.1999C12.8999 36.1999 13.0999 37.6999 11.7999 38.4999C11.7999 38.4999 11.4999 38.5999 11.3999 37.6999L11.4999 16.6999C11.4999 16.6999 11.5999 14.0999 12.9999 14.1999ZM36.1999 14.4999L36.0999 36.5999C36.0999 36.5999 36.6999 38.5999 37.5999 38.3999C37.5999 38.3999 37.6999 37.9999 37.7999 37.2999L38.0999 16.1999C38.0999 16.0999 37.3999 12.7999 36.1999 14.4999Z" fill="#231F20" stroke="#030404" stroke-width="0.0605494"/>
<path fill-rule="evenodd" clip-rule="evenodd" d="M24.5 39.9001C24.5 39.9001 23.2 39.9001 23.2 41.6001C23.2 41.6001 23.3 42.9001 24.7 42.9001C24.7 42.9001 26 42.7001 25.8 41.3001C25.9 41.4001 25.2 39.6001 24.5 39.9001ZM40.6 21.0001C40.6 21.0001 39.9 21.4001 40.1 22.3001L39.9 32.5001C39.9 32.5001 39.8 34.3001 41.4 34.2001C41.4 34.2001 43.2 34.1001 43.5 34.7001C43.5 34.7001 44.7 36.5001 42.1 36.3001C42.1 36.3001 40.5 36.2001 40.1 36.5001C40.1 36.5001 39.8 36.9001 39.6 40.1001C39.6 40.1001 39.7 42.1001 38.3 41.9001C38.3 41.9001 28.6 42.0001 27.7 41.8001C27.7 41.8001 26.7 42.1001 26.6 41.3001C26.6 41.3001 26.6 40.7001 27.6 40.7001L37.4 40.6001C37.4 40.6001 38.3 41.1001 38.3 39.4001C38.3 39.4001 38.7 31.8001 38.7 23.3001C38.7 20.8001 38.8 18.2001 38.7 15.7001C38.7 15.7001 38.5 14.7001 38.2 14.4001C38.2 14.4001 38.2 13.3001 39.4 13.7001C39.4 13.7001 40.4 13.8001 40.2 15.4001L40.3 17.9001C40.3 17.9001 40.1 18.9001 42 18.7001C42 18.7001 43.9 19.0001 44 19.7001C44 19.7001 44.6 21.1001 42.3 21.0001H40.6ZM10.8 41.8001C9.40001 41.7001 9.50001 40.7001 9.50001 40.7001V38.0001C9.60001 36.6001 8.10001 36.3001 8.10001 36.3001C6.10001 36.7001 5.60001 35.5001 5.60001 35.5001C5.50001 34.0001 7.90001 34.2001 7.90001 34.2001C9.90001 34.2001 9.30001 32.4001 9.30001 32.4001L9.40001 21.8001C9.30001 20.8001 6.70001 20.8001 6.70001 20.8001C5.10001 21.1001 5.50001 19.5001 5.50001 19.5001C6.30001 18.7001 8.00001 18.8001 8.00001 18.8001C9.50001 18.9001 9.50001 17.3001 9.50001 17.3001L9.60001 14.4001C11.2 12.9001 11.5 14.1001 11.5 14.1001C10.6 15.5001 10.8 18.9001 10.8 18.9001L10.7 18.6001C10.8 19.0001 10.6 38.7001 10.6 38.7001C10.7 40.9001 12.2 40.4001 12.2 40.4001L21.3 40.5001C22.1 40.5001 22.2 41.1001 22.2 41.1001C22.2 41.8001 21.6 41.7001 21.6 41.7001L10.8 41.8001ZM13.3 39.7001C12.3 39.9001 12.5 38.9001 12.5 38.9001C13.1 37.7001 13.8 38.0001 13.8 38.0001C14.1 38.1001 15.4 38.4001 15.4 38.4001C16 38.5001 22.4 38.5001 22.4 38.5001C24.4 39.6001 22.4 40.1001 22.4 40.1001L20.4 39.7001H13.3ZM25.5 39.2001C25.5 39.2001 26.1 38.5001 26.6 38.5001C26.6 38.5001 33.6 39.1001 34.8 38.3001C34.8 38.3001 35.9 38.1001 36.1 38.3001C36.1 38.3001 37.2 39.1001 37.2 39.6001C37.2 39.6001 37.1 40.2001 35.9 39.9001C35.9 39.9001 28 40.0001 27.6 40.0001C27.5 40.0001 25.3 40.5001 25.5 39.2001ZM13 14.2001C13 14.2001 13.1 15.6001 13.1 15.9001C13.1 16.2001 12.9 36.2001 12.9 36.2001C12.9 36.2001 13.1 37.7001 11.8 38.5001C11.8 38.5001 11.5 38.6001 11.4 37.7001L11.5 16.7001C11.5 16.7001 11.6 14.1001 13 14.2001ZM36.2 14.5001L36.1 36.6001C36.1 36.6001 36.7 38.6001 37.6 38.4001C37.6 38.4001 37.7 38.0001 37.8 37.3001L38.1 16.2001C38.1 16.1001 37.4 12.8001 36.2 14.5001ZM25.1 14.6001C25.1 14.6001 24.9 25.2001 25 25.5001L24.9 34.4001L24.6 37.5001C24.6 37.5001 25 38.1001 25.4 37.7001C25.4 37.7001 27.6 37.1001 29 37.4001C29 37.4001 33.5 37.8001 34.4 37.1001C34.4 37.1001 35.1 37.4001 35.3 36.3001C35.3 36.3001 35.6 16.7001 35.4 16.3001C35.4 16.3001 35.7 13.5001 35.5 13.2001C35.5 13.2001 35.4 12.6001 34.2 13.1001C34.2 13.1001 34.3 13.7001 27.7 13.5001C27.8 13.6001 25.2 13.5001 25.1 14.6001ZM14 13.6001L13.8 36.1001C13.8 36.1001 13.7 37.1001 15.5 37.4001C15.5 37.4001 17.5 37.6001 18 37.4001C18 37.4001 19.3 37.3001 22.8 37.5001C22.8 37.5001 23.6 38.3001 23.7 37.3001C23.7 37.3001 24.3 19.1001 24 15.3001C24 15.3001 23.9 13.7001 22.7 13.6001C22.7 13.6001 17.4 14.0001 16.9 13.6001L14.8 13.0001C14.8 13.0001 13.9 13.0001 14 13.6001Z" fill="white"/>
<path fill-rule="evenodd" clip-rule="evenodd" d="M27.0001 22.2L26.9001 29.6L26.7001 30.2C26.7001 30.2 26.0001 31.1 26.5001 31.2C26.5001 31.2 25.9001 31.6 31.0001 31.7C31.0001 31.7 33.0001 32 32.5001 29.5C32.5001 29.5 32.3001 28.6 31.6001 29.9C31.6001 29.9 31.4001 31 28.9001 30.7C28.9001 30.7 28.3001 30.2 28.3001 29.7V26.6C28.3001 26.6 28.2001 25.8 29.4001 25.9C29.4001 25.9 30.7001 26.7 30.9001 26.4C30.9001 26.4 31.4001 25.3 30.9001 24.6C30.9001 24.6 30.3001 24.5 30.2001 24.8C30.2001 24.8 29.8001 25.6 28.6001 25.1C28.6001 25.1 28.0001 24 28.4001 23.1C28.4001 23.1 28.3001 21.3 29.5001 21.5C29.5001 21.5 30.9001 21.8 31.0001 22.2C31.0001 22.2 31.3001 23 31.7001 22.1L31.3001 20.9C31.3001 20.9 31.1001 20.4 30.7001 20.5C30.7001 20.5 28.3001 20.9 28.0001 20.6L26.1001 20.8C26.1001 20.8 25.8001 21.5 26.7001 21.8C26.8001 21.8 27.0001 22 27.0001 22.2ZM22.9001 21.1L22.3001 22.4C22.3001 22.4 20.8001 29.2 19.9001 30.6C19.9001 30.6 19.8001 32 18.6001 30.9C18.6001 30.9 15.9001 22.3 15.7001 22L14.8001 21.4C14.8001 21.4 14.2001 20.6 15.2001 20.6L17.8001 20.7C17.8001 20.7 18.6001 21.4 17.5001 22.2C17.5001 22.2 17.6001 23.3 19.1001 27.6C19.1001 27.6 19.5001 29.2 20.0001 28L21.4001 23L21.0001 21.5C21.0001 21.5 20.6001 20.8 21.2001 20.7C21.3001 20.7 22.7001 20.6 22.9001 21.1Z" fill="black"/>
<path fill-rule="evenodd" clip-rule="evenodd" d="M168.3 77.4C168.3 76.5 167.7 75.8 166.4 75.5V74.9L170.1 75C170.7 75 172.9 74.9 173.6 74.9V75.5C172.4 75.7 171.8 76.4 171.8 77.4V89.3C171.8 93.1 173.9 95.2 178.2 95.2C181.9 95.2 184.9 93.5 184.9 89.6V77.3C184.9 76.4 184.3 75.7 182.9 75.4V74.8C183.4 74.8 185.3 74.9 186 74.9L189.1 74.8V75.4C187.7 75.7 187.1 76.3 187.1 77.3V88.9C187.1 94.1 184.1 97.1 177.5 97.1C171.4 97.1 168.3 94.3 168.3 89.4V77.4ZM194.4 96.2C195.8 95.9 196.4 95.2 196.4 94.3V77.8C196.4 76.4 195.7 75.8 194.4 75.4V74.8C195.1 74.9 196.3 74.9 196.9 74.9C197.5 74.9 198.3 74.9 198.9 74.8L213.2 91.6V77.2C213.2 76.3 212.6 75.6 211.2 75.3V74.7C211.7 74.7 213.6 74.8 214.2 74.8L217.3 74.7V75.3C215.9 75.6 215.3 76.2 215.3 77.2V97H214.4C213.9 96.9 212.8 96.3 211.3 94.6L198.5 79.7V94.2C198.5 95.1 199 95.8 200.4 96.1V96.7C199.9 96.7 198 96.6 197.4 96.6L194.4 96.7V96.2ZM307.3 91.7H307.9C308.2 92.9 308.9 94.1 309.9 94.7C310.9 95.4 312.5 95.8 313.8 95.8C316.7 95.8 318.5 94.4 318.5 92.1C318.5 89.8 316.2 88.6 313.4 87.2C311.3 86.2 307.2 84.4 307.2 80.5C307.2 76.8 310 74.5 314.5 74.5C317.5 74.5 318.9 75.2 320.9 75.1V79.6H320.3C319.5 77 317.1 76 314.5 76C311.6 76 310.5 77.7 310.5 79.4C310.5 81.8 312.9 83.1 315.6 84.3C318.6 85.7 321.9 87.4 321.9 91.2C321.9 94.8 319.1 97.4 313.9 97.4C310.8 97.4 309 96.5 307.4 96.3L307.3 91.7ZM368.8 87.7L363 78.4C362 76.8 361.2 75.9 360.1 75.5V74.9C360.9 74.9 363.1 75 363.7 75C364.3 75 366.6 74.9 367.4 74.9V75.5C366.7 75.6 366.3 76 366.3 76.6C366.3 77.1 366.6 77.7 367 78.3C367.3 78.8 371.3 85.4 371.3 85.4L375.4 78.3C375.8 77.6 376.1 76.9 376.1 76.4C376.1 76 375.8 75.6 375.1 75.5V74.9C375.8 74.9 377.3 75 377.7 75C378.2 75 379.9 74.9 380.6 74.9V75.5C379 76.2 378 77.5 377.1 79.2L371.8 88.1M372.1 86.8V94.3C372.1 95 372.7 96 373.9 96.2V96.8L370.2 96.7C369.6 96.7 367.4 96.8 366.6 96.8V96.2C367.9 96 368.5 95 368.5 94.3V87.2" fill="white"/>
<path fill-rule="evenodd" clip-rule="evenodd" d="M260.5 74.8001H274.2C274.6 74.8001 275.4 74.8001 275.8 74.6001H276.4L276.3 79.0001H275.7C275.2 77.6001 274.6 76.5001 272 76.5001H266.1V84.2001H270.7C271.4 84.2001 272.2 84.1001 272.5 84.1001C273.5 83.9001 274 83.3001 274.2 82.4001H274.8C274.8 83.1001 274.8 84.6001 274.8 85.0001C274.8 85.5001 274.8 87.1001 274.8 87.8001H274.2C273.9 86.9001 273.5 86.3001 272.5 86.0001C272.2 85.9001 271.3 85.8001 270.7 85.8001H266.1V94.9001H272.5C275.3 94.9001 276.1 93.7001 276.8 92.1001L277.4 92.2001L276.8 96.8001C274.7 96.6001 273.4 96.6001 271.1 96.6001H264.3L260.5 96.7001V96.1001C261.7 95.9001 262.4 95.3001 262.4 94.1001V77.3001C262.4 76.3001 261.8 75.6001 260.5 75.4001V74.8001ZM225.6 77.5001C225.6 76.4001 224.9 75.8001 223.6 75.5001V74.9001L227.4 75.0001C228 75.0001 230.4 74.9001 231.2 74.9001V75.5001C229.9 75.8001 229.2 76.3001 229.2 77.5001V94.2001C229.2 95.3001 229.9 95.9001 231.2 96.2001V96.8001L227.4 96.7001C226.8 96.7001 224.3 96.8001 223.6 96.8001V96.2001C224.9 95.9001 225.6 95.4001 225.6 94.2001V77.5001ZM329.3 77.5001C329.3 76.4001 328.6 75.8001 327.3 75.5001V74.9001L331.1 75.0001C331.7 75.0001 334.1 74.9001 334.9 74.9001V75.5001C333.6 75.8001 332.9 76.3001 332.9 77.5001V94.2001C332.9 95.3001 333.6 95.9001 334.9 96.2001V96.8001L331.1 96.7001C330.5 96.7001 328 96.8001 327.3 96.8001V96.2001C328.6 95.9001 329.3 95.4001 329.3 94.2001V77.5001ZM348.3 74.9001C340.8 74.9001 339.6 74.8001 338.1 74.7001V79.2001H338.7C339.3 77.2001 340.4 76.7001 341.8 76.7001H346.5V94.1001C346.5 95.3001 345.9 95.9001 344.5 96.1001V96.7001C345.2 96.7001 347.7 96.6001 348.3 96.6001L352.1 96.7001V96.1001C350.8 95.8001 350.1 95.2001 350.1 94.1001V76.7001H354.8C356.3 76.7001 357.4 77.2001 357.9 79.2001H358.5V74.7001C356.9 74.8001 355.7 74.9001 348.3 74.9001Z" fill="white"/>
<path fill-rule="evenodd" clip-rule="evenodd" d="M288.5 94.2C288.5 95.3 289.2 95.9 290.5 96.2V96.8L286.7 96.7C286.1 96.7 283.8 96.8 283 96.8V96.2C284.2 96 284.9 95.4 284.9 94.2V77.4C284.9 76.4 284.3 75.7 283 75.5V74.9L286.7 75C287.8 75 290.8 74.8 292 74.8C297.2 74.8 300.2 77 300.2 80.7C300.2 83.6 298 85.6 294.7 86.4C294.7 86.4 295.5 86.8 296.2 87.7C297.1 88.8 299.6 92.4001 300.7 93.6001C301.7 94.9001 303.1 96.3 304.5 96.3V96.8C303.8 96.9 302.7 97.1001 301.9 97.1001C300.1 97.1001 298.7 96.5 297.3 94.8C296.1 93.3 294.1 90.3 292.9 88.8C292.1 87.8 291.2 87.1 289.5 86.8C289.2 86.7 288.9 86.7 288.5 86.7V94.2ZM288.5 85.2C289.2 85.3 290.2 85.3 291.2 85.3C295.3 85.3 296.6 82.9 296.6 80.8C296.6 77.8 294.6 76 291 76C290.3 76 289.2 76.1 288.4 76.2V85.2H288.5ZM236.5 77.6001C236 76.5001 235.3 75.8 234 75.5V74.9C234.8 74.9 237.5 75 238.1 75C238.6 75 241 74.9 241.8 74.9V75.5C241.1 75.6 240.3 76 240.3 76.8C240.3 77.3 240.6 78 241.2 79.4L246.9 92.3L252.3 79.4C252.7 78.4 253 77.6 253 76.9C253 76.2 252.4 75.7001 251.5 75.6001V75C252.2 75 254 75.1001 254.5 75.1001C255 75.1001 257 75 257.8 75V75.6001C256.5 76.0001 255.7 76.7 254.9 78.4L247 97H245.2L236.5 77.6001Z" fill="white"/>
</g>
<defs>
<clipPath id="clip0_240_693">
<rect width="436" height="110" fill="white"/>
</clipPath>
</defs>
</svg>
