<svg width="600" height="97" viewBox="0 0 600 97" fill="none" xmlns="http://www.w3.org/2000/svg">
<g clip-path="url(#clip0_241_762)">
<path d="M600 17.5999H585.8V79.8998H600V17.5999Z" fill="white"/>
<path d="M31.3003 29.1V0H31.9003L47.4003 25.8V44.9" fill="white"/>
<path d="M26.0002 46.9998L0.200195 31.8998V31.2998H29.5002L45.3002 46.9998" fill="white"/>
<path d="M0 31.9V0H31.6L32.1 3H2.9L3 32" fill="white"/>
<path d="M50.3999 25.8L65.7999 0H66.3999V29.1L50.3999 45" fill="white"/>
<path d="M52.3999 46.9998L68.1999 31.2998H97.5999V31.8998L71.7999 46.9998" fill="white"/>
<path d="M94.8002 3H65.7002L66.1002 0H97.7002V31.9L94.8002 32" fill="white"/>
<path d="M31.8003 96.9H31.3003V67.8L47.4003 52V71.2L31.9003 96.9" fill="white"/>
<path d="M0.200195 65.7V65L26.0002 50H45.3002L29.5002 65.7" fill="white"/>
<path d="M0 96.9V65H3V93.9H32.1L31.6 96.9" fill="white"/>
<path d="M65.7999 96.9L50.3999 71.2V52L66.3999 67.8V96.9H65.8999" fill="white"/>
<path d="M68.1999 65.7L52.3999 50H71.7999L97.5999 65V65.7" fill="white"/>
<path d="M66.1002 96.9L65.7002 93.9H94.7002L94.8002 65H97.7002V96.9" fill="white"/>
<path d="M157.9 17.5999H143.7V79.8998H157.9V17.5999Z" fill="white"/>
<path d="M168.3 18.5C173.5 17.7 180.3 17.2 187.5 17.2C199.4 17.2 207.1 19.3 213.2 23.9C219.7 28.7 223.8 36.4 223.8 47.4C223.8 59.3 219.4 67.6 213.4 72.7C206.8 78.1 196.8 80.7 184.5 80.7C177.1 80.7 171.9 80.2 168.4 79.8M182.5 69.3C183.7 69.6 185.7 69.6 187.4 69.6C200.2 69.7 208.6 62.7 208.6 47.8C208.7 34.8 201.1 28 188.9 28C185.7 28 183.7 28.3 182.5 28.6V69.3Z" fill="white"/>
<path d="M231.1 18.5C235.7 17.8 242.4 17.2 250 17.2C259.3 17.2 265.8 18.6 270.3 22.1C274 25.1 276.1 29.4 276.1 35.1C276.1 43.1 270.4 48.5 265 50.5V50.8C269.4 52.6 271.8 56.7 273.4 62.5C275.4 69.5 277.3 77.7 278.5 80.1H264C263 78.3 261.5 73.3 259.6 65.6C257.9 57.8 255.2 55.7 249.5 55.6H245.2V80.1H231.2M245.2 45.3H250.8C257.9 45.3 262.1 41.8 262.1 36.3C262.1 30.6 258.2 27.7 251.7 27.6C248.3 27.6 246.3 27.9 245.3 28.1V45.3H245.2Z" fill="white"/>
<path d="M330 78.1998C327.4 79.4998 321.5 80.9998 313.9 80.9998C292.2 80.9998 281.1 67.4998 281.1 49.6998C281.1 28.3998 296.4 16.5999 315.3 16.5999C322.7 16.5999 328.2 18.0998 330.7 19.3998L327.8 30.5999C324.9 29.3999 320.9 28.2998 315.9 28.2998C304.6 28.2998 295.9 34.9998 295.9 48.8998C295.9 61.3998 303.3 69.2998 316 69.2998C320.3 69.2998 325 68.3998 327.8 67.2998" fill="white"/>
<path d="M458.6 78.1998C456 79.4998 450.1 80.9998 442.5 80.9998C420.8 80.9998 409.7 67.4998 409.7 49.6998C409.7 28.3998 424.9 16.5999 443.9 16.5999C451.2 16.5999 456.8 18.0998 459.3 19.3998L456.4 30.5999C453.5 29.3999 449.5 28.2998 444.5 28.2998C433.2 28.2998 424.5 34.9998 424.5 48.8998C424.5 61.3998 431.9 69.2998 444.6 69.2998C448.9 69.2998 453.6 68.3998 456.4 67.2998" fill="white"/>
<path d="M467.9 18.5C472.4 17.8 479.2 17.2 486.8 17.2C496.1 17.2 502.6 18.6 507.1 22.1C510.8 25.1 512.9 29.4 512.9 35.1C512.9 43.1 507.2 48.5 501.8 50.5V50.8C506.2 52.6 508.6 56.7 510.2 62.5C512.1 69.5 514.1 77.7 515.3 80.1H500.8C499.8 78.3 498.3 73.3 496.4 65.6C494.7 57.8 492 55.7 486.3 55.6H482V80.1H468M481.9 45.3H487.5C494.6 45.3 498.7 41.8 498.7 36.3C498.7 30.6 494.8 27.7 488.3 27.6C484.9 27.6 482.9 27.9 481.9 28.1V45.3Z" fill="white"/>
<path d="M523 18.5C528.2 17.7 535 17.2 542.1 17.2C554 17.2 561.7 19.3 567.8 23.9C574.3 28.7 578.4 36.4 578.4 47.4C578.4 59.3 574 67.6 568 72.7C561.4 78.1 551.4 80.7 539.1 80.7C531.8 80.7 526.6 80.2 523 79.8M537.2 69.3C538.4 69.6 540.4 69.6 542.1 69.6C554.9 69.7 563.3 62.7 563.3 47.8C563.4 34.8 555.8 28 543.6 28C540.4 28 538.4 28.3 537.2 28.6V69.3Z" fill="white"/>
<path d="M374.7 0.0998535H371.1V96.8998H374.7V0.0998535Z" fill="white"/>
</g>
<defs>
<clipPath id="clip0_241_762">
<rect width="600" height="97" fill="white"/>
</clipPath>
</defs>
</svg>
