<svg width="541" height="110" viewBox="0 0 541 110" fill="none" xmlns="http://www.w3.org/2000/svg">
<path d="M17.714 72.8829C17.714 79.149 19.0885 83.9598 20.885 86.8703C23.2404 90.6825 26.7535 92.2975 30.3351 92.2975C34.9547 92.2975 39.1807 91.1504 47.3248 79.8795C53.8492 70.8456 61.5371 58.1651 66.7098 50.2155L75.4699 36.7474C81.5552 27.394 88.5986 16.9962 96.6742 9.94827C103.267 4.19581 110.379 1 117.536 1C129.553 1 140.999 7.96801 149.759 21.0366C159.346 35.3493 164 53.3771 164 71.9813C164 83.041 161.821 91.1675 158.114 97.5877C154.533 103.797 147.552 110 135.809 110V92.2975C145.864 92.2975 148.373 83.0525 148.373 72.472C148.373 57.3947 144.86 40.6623 137.121 28.7065C131.629 20.2262 124.511 15.0445 116.681 15.0445C108.212 15.0445 101.396 21.4361 93.7371 32.8326C89.665 38.8875 85.4846 46.2664 80.7909 54.5926L75.6239 63.752C65.2441 82.1679 62.615 86.3624 57.4251 93.2848C48.3286 105.406 40.5609 110 30.3351 110C18.2045 110 10.5337 104.744 5.783 96.823C1.90485 90.3686 0 81.8997 0 72.2495L17.714 72.8829Z" fill="white"/>
<path d="M14 22.2864C22.1195 9.75995 33.8369 1 47.2763 1C55.0594 1 62.7969 3.30555 70.8765 9.90832C79.7144 17.1274 89.134 29.0147 100.886 48.6062L105.099 55.637C115.272 72.5976 121.059 81.3233 124.446 85.4379C128.802 90.7224 131.853 92.2975 135.815 92.2975C145.868 92.2975 148.377 83.0525 148.377 72.472L164 71.9813C164 83.041 161.822 91.1675 158.116 97.5877C154.535 103.797 147.556 110 135.815 110C128.517 110 122.051 108.414 114.901 101.662C109.404 96.4806 102.978 87.2755 98.0347 79.0006L83.3295 54.4157C75.9512 42.0776 69.183 32.8782 65.2658 28.7123C61.0521 24.2324 55.6353 18.8224 46.9912 18.8224C39.995 18.8224 34.0536 23.7359 29.0815 31.2518L14 22.2864Z" fill="url(#paint0_linear_241_778)"/>
<path d="M46.7164 18.8553C39.7557 18.8553 33.8445 23.7779 28.8978 31.3077C21.9031 41.9476 17.62 57.7961 17.62 73.0157C17.62 79.2934 18.9872 84.1131 20.7742 87.0289L5.75232 97C1.89475 90.5337 0 82.0491 0 72.3811C0 54.8002 4.78793 36.4761 13.8929 22.3257C21.9712 9.77613 33.629 1 47 1L46.7164 18.8553Z" fill="url(#paint1_linear_241_778)"/>
<path d="M199 4H219.478L254.296 67.3798L289.119 4H309.153V108.142H292.448V28.3266L261.91 83.5975H246.237L215.705 28.3266V108.142H199V4ZM361.496 42.8296C349.516 42.8296 342.301 51.9019 340.574 63.1361H381.234C380.396 51.5635 373.762 42.8296 361.496 42.8296ZM324.011 69.536C324.011 45.8976 339.195 28.6936 361.787 28.6936C384.009 28.6936 397.277 45.6797 397.277 70.7977V75.4141H340.574C342.586 87.6347 350.645 95.8697 363.639 95.8697C374.007 95.8697 380.487 92.687 386.631 86.8663L395.505 97.8023C387.144 105.538 376.509 110 363.047 110C338.59 110 324.011 92.0562 324.011 69.536ZM417.533 44.3206H402.156V30.5573H417.533V7.79636H433.651V30.5573H457.013V44.3206H433.651V79.2047C433.651 91.1157 437.436 95.3479 446.737 95.3479C450.983 95.3479 453.417 94.9808 457.013 94.3787V107.993C452.533 109.266 448.259 109.851 443.631 109.851C426.231 109.851 417.533 100.285 417.533 81.1373V44.3206ZM524.882 57.7054C521.645 49.4818 514.424 43.426 503.811 43.426C490.019 43.426 481.19 53.2724 481.19 69.3124C481.19 84.9509 489.318 95.2733 503.15 95.2733C514.025 95.2733 521.787 88.9078 524.882 80.9882V57.7054ZM541 108.142H525.178V97.2805C520.756 103.675 512.708 110 499.673 110C478.711 110 464.702 92.3429 464.702 69.3124C464.702 46.0639 479.047 28.6936 500.563 28.6936C511.198 28.6936 519.542 32.9717 525.178 40.5242V30.5573H541V108.142Z" fill="white"/>
<defs>
<linearGradient id="paint0_linear_241_778" x1="34.8177" y1="67.7696" x2="147.716" y2="73.4667" gradientUnits="userSpaceOnUse">
<stop stop-color="white"/>
<stop offset="0.4" stop-color="white"/>
<stop offset="0.83" stop-color="white"/>
<stop offset="1" stop-color="white"/>
</linearGradient>
<linearGradient id="paint1_linear_241_778" x1="25.5281" y1="80.4711" x2="25.5281" y2="38.7345" gradientUnits="userSpaceOnUse">
<stop stop-color="white"/>
<stop offset="1" stop-color="white"/>
</linearGradient>
</defs>
</svg>
